<svg xmlns="http://www.w3.org/2000/svg" width="279.532" height="53.217" viewBox="0 0 279.532 53.217"><path fill="#FFF200" d="M52.618 44.362v-31.21h-3.96V8.975H60.95v4.175h-4.18v31.212M28.717 44.388V9.08l11.957.003v4.097h-7.706v10.89h7.11v4.33h-7.11v15.988M68.665 9.07l11.96-.008v4.106H72.91v10.93H80v4.288h-7.088v11.787h7.92l.037 4.205-12.205.018M97.377 44.388l-.127-.592c-.017-.078-1.7-7.855-3.027-12.265-.46-1.53-.817-1.754-.82-1.756l-.688.01v14.604H88.57V8.94h6.83c3.378 0 5.24 3.43 5.24 9.654 0 3.787-.354 7.873-2.837 9.947 1.357 2.855 3.353 11.955 3.986 14.94l.19.907h-4.603zm-3.052-18.493c1.15 0 2.2-3.217 2.2-6.75 0-6.08-1.178-6.588-2.383-6.588-.473 0-1.008.003-1.428.006v13.332h1.61zM17.26 44.372l-3.177-21.444-2.968 21.444h-4.43L12.054 8.97H16.1l5.8 35.402"/><g><path fill="#FFF200" d="M128.64 44.362v-31.21h-3.958V8.975h12.29v4.175h-4.177v31.212M164.665 9.07l11.96-.008v4.106h-7.712v10.93H176v4.288h-7.087v11.787h7.92l.037 4.205-12.205.018M200.805 44.388V9.08l11.957.003v4.097h-7.705v10.89h7.11v4.33h-7.11v15.988M231.02 44.372l-3.18-21.444-2.965 21.444h-4.43l5.368-35.402h4.046l5.8 35.402M152.608 44.347V28.325h-3.578v16.022h-4.303v-35.3h4.303v14.94h3.578V9.047h4.3v35.3M242.463 44.347V8.974h4.263v31.11h7.994v4.263M261.92 44.347V8.974h4.263v31.11h7.993v4.263"/></g><g><path fill="#FFF200" d="M52.118 44.862v-31.21h-3.96V8.475H61.45v5.175h-4.18v31.212"/><path fill="#020202" d="M60.95 8.976v4.175h-4.18v31.212H52.62v-31.21h-3.96V8.975H60.95m1-1H47.66v6.175h3.958v31.212h6.153v-31.21h4.18V7.975z"/><path fill="#FFF200" d="M28.217 44.888V8.58l12.957.003v5.097h-7.706v9.89h7.11v5.33h-7.11v15.988"/><path fill="#020202" d="M28.717 9.08l11.957.003v4.097h-7.706v10.89h7.11v4.33h-7.11v15.988h-4.25V9.08m-1-1V45.39h6.25v-15.99h7.11v-6.33h-7.11V14.18h7.706V8.083h-1L28.717 8.08h-1z"/><path fill="#FFF200" d="M68.165 8.57l12.96-.008v5.106H73.41v9.93H80.5v5.288h-7.088v10.787h7.915l.047 5.204-13.21.02"/><path fill="#020202" d="M80.624 9.062v4.106h-7.712v10.93H80v4.288h-7.088v11.787h7.92l.037 4.205-12.205.018V9.07l11.96-.008m1-1h-1l-11.96.008h-1v37.326h1l12.205-.018h1.008l-.01-1.01-.037-4.204-.008-.99h-7.91v-9.788H81V23.1h-7.088v-8.932h7.712V8.062z"/><g><path fill="#FFF200" d="M96.973 44.888l-.212-.988c-.177-.818-1.754-8.032-3.016-12.225-.223-.74-.413-1.136-.53-1.334v14.547H88.07V8.44h7.33c2.143 0 5.74 1.32 5.74 10.154 0 3.72-.334 7.798-2.73 10.077 1.384 3.256 3.298 12.02 3.868 14.708l.32 1.51h-5.625zm-2.648-19.493c.597 0 1.7-2.577 1.7-6.25 0-6.088-1.18-6.088-1.883-6.088l-.928.004v12.335h1.11z"/><path fill="#020202" d="M95.4 8.94c3.378 0 5.24 3.43 5.24 9.654 0 3.787-.354 7.873-2.837 9.947 1.357 2.855 3.353 11.955 3.986 14.94l.19.907h-4.603l-.127-.592c-.017-.078-1.7-7.855-3.027-12.265-.46-1.53-.817-1.755-.82-1.757l-.688.01v14.604H88.57V8.94h6.83m-2.685 16.955h1.61c1.15 0 2.2-3.217 2.2-6.75 0-6.08-1.178-6.588-2.383-6.588-.473 0-1.008.003-1.428.006v13.332M95.4 7.94h-7.83V45.39h6.145v-12c1.154 4.196 2.4 9.896 2.556 10.61l.13.6.17.79H103.215l-.255-1.207-.192-.905c-.71-3.347-2.425-11.096-3.77-14.486 2.312-2.44 2.64-6.494 2.64-10.195 0-9.27-3.91-10.654-6.24-10.654zm-1.686 5.618h.428c.414 0 1.382 0 1.382 5.588 0 3.11-.833 5.363-1.298 5.75h-.51l-.002-11.338z"/></g><g><path fill="#FFF200" d="M16.83 44.872L14.1 26.454l-2.55 18.418H6.105l5.52-36.402h4.902l5.962 36.402"/><path fill="#020202" d="M16.1 8.97l5.8 35.402h-4.64l-3.177-21.444-2.968 21.444h-4.43L12.054 8.97H16.1m.85-1h-5.757l-.13.85-5.366 35.403-.174 1.15h6.463l.12-.864 2.01-14.53 2.155 14.54.127.853h6.68l-.19-1.162-5.8-35.402-.136-.838z"/></g><g><path fill="#FFF200" d="M128.14 44.862v-31.21h-3.958V8.475h13.29v5.175h-4.177v31.212"/><path fill="#020202" d="M136.973 8.976v4.175h-4.178v31.212h-4.155v-31.21h-3.958V8.975h12.29m1-1h-14.29v6.175h3.958v31.212h6.155v-31.21h4.178V7.975z"/><path fill="#FFF200" d="M164.165 8.57l12.96-.008v5.106h-7.712v9.93h7.087v5.288h-7.087v10.787h7.916l.045 5.204-13.21.02"/><path fill="#020202" d="M176.625 9.062v4.106h-7.713v10.93H176v4.288h-7.088v11.787h7.92l.037 4.205-12.206.018V9.07l11.96-.008m1-1h-1l-11.96.008h-1v37.326h1.002l12.205-.018h1.01l-.01-1.01-.037-4.204-.01-.99h-7.91v-9.788H177V23.1h-7.088v-8.932h7.713V8.062z"/><path fill="#FFF200" d="M200.305 44.888V8.58l12.957.003v5.097h-7.705v9.89h7.11v5.33h-7.11v15.988"/><path fill="#020202" d="M200.805 9.08l11.957.003v4.097h-7.705v10.89h7.11v4.33h-7.11v15.988h-4.252V9.08m-1-1V45.39h6.252v-15.99h7.11v-6.33h-7.11V14.18h7.705V8.083h-1l-11.957-.002h-1z"/><path fill="#FFF200" d="M230.587 44.872l-2.73-18.418-2.546 18.418h-5.448l5.52-36.402h4.902l5.964 36.402"/><path fill="#020202" d="M229.86 8.97l5.8 35.402h-4.64l-3.18-21.444-2.965 21.444h-4.432l5.37-35.402h4.046m.848-1h-5.756l-.128.85-5.37 35.402-.174 1.15H225.745l.12-.863 2.01-14.53 2.154 14.54.126.853h6.679l-.19-1.162-5.8-35.4-.137-.84z"/><g><path fill="#FFF200" d="M152.108 44.847V28.825h-2.578v16.022h-5.303v-36.3h5.303v14.94h2.578V8.547h5.3v36.3"/><path fill="#020202" d="M156.91 9.047v35.3h-4.302V28.325h-3.578v16.02h-4.303v-35.3h4.303v14.94h3.578V9.048h4.3m1-1h-6.3v14.94h-1.578V8.047h-6.303v37.3h6.303V29.325h1.578v16.02h6.3V8.048z"/></g><g><path fill="#FFF200" d="M241.963 44.847V8.474h5.263v31.11h7.994v5.263"/><path fill="#020202" d="M246.726 8.974v31.11h7.994v4.263h-12.257V8.974h4.263m1-1h-6.263v37.373h14.257v-6.263h-7.994V7.974z"/></g><g><path fill="#FFF200" d="M261.42 44.847V8.474h5.263v31.11h7.993v5.263"/><path fill="#020202" d="M266.183 8.974v31.11h7.993v4.263H261.92V8.974h4.263m1-1h-6.263v37.373h14.256v-6.263h-7.993V7.974z"/></g></g></g></svg>