<?xml version="1.0" encoding="utf-8"?>
<!-- Generator: Adobe Illustrator 15.1.0, SVG Export Plug-In . SVG Version: 6.00 Build 0)  -->
<!DOCTYPE svg PUBLIC "-//W3C//DTD SVG 1.1//EN" "http://www.w3.org/Graphics/SVG/1.1/DTD/svg11.dtd">
<svg version="1.1" id="Layer_1" xmlns="http://www.w3.org/2000/svg" xmlns:xlink="http://www.w3.org/1999/xlink" x="0px" y="0px"
	 width="279.532px" height="53.217px" viewBox="0 0 279.532 53.217" enable-background="new 0 0 279.532 53.217"
	 xml:space="preserve">
<g>
	<g>
		<g>
			<polygon fill="#FFF200" points="52.618,44.362 52.618,13.151 48.659,13.151 48.659,8.976 60.95,8.976 60.95,13.151 
				56.771,13.151 56.771,44.362 			"/>
		</g>
		<g>
			<polygon fill="#FFF200" points="28.717,44.388 28.717,9.081 40.674,9.083 40.674,13.18 32.968,13.18 32.968,24.069 
				40.079,24.069 40.079,28.399 32.968,28.399 32.968,44.388 			"/>
		</g>
		<g>
			<polygon fill="#FFF200" points="68.665,9.07 80.624,9.062 80.624,13.168 72.912,13.168 72.912,24.099 80,24.099 80,28.386 
				72.912,28.386 72.912,40.173 80.831,40.173 80.869,44.378 68.665,44.396 			"/>
		</g>
		<g>
			<path fill="#FFF200" d="M97.377,44.388l-0.127-0.592c-0.017-0.078-1.7-7.855-3.027-12.265c-0.461-1.531-0.817-1.755-0.821-1.757
				l-0.687,0.01v14.604h-4.146V8.941h6.83c3.379,0,5.24,3.428,5.24,9.653c0,3.787-0.353,7.873-2.836,9.947
				c1.357,2.854,3.353,11.954,3.986,14.94l0.192,0.906H97.377L97.377,44.388z M94.325,25.895c1.151,0,2.199-3.217,2.199-6.75
				c0-6.079-1.177-6.588-2.382-6.588c-0.473,0-1.008,0.003-1.428,0.006l0.001,13.332H94.325z"/>
		</g>
		<g>
			<polygon fill="#FFF200" points="17.26,44.372 14.083,22.928 11.115,44.372 6.686,44.372 12.053,8.97 16.101,8.97 21.9,44.372 			
				"/>
		</g>
	</g>
	<g>
		<g>
			<polygon fill="#FFF200" points="128.64,44.362 128.64,13.151 124.682,13.151 124.682,8.976 136.973,8.976 136.973,13.151 
				132.795,13.151 132.795,44.362 			"/>
		</g>
		<g>
			<polygon fill="#FFF200" points="164.665,9.07 176.625,9.062 176.625,13.168 168.913,13.168 168.913,24.099 176,24.099 
				176,28.386 168.913,28.386 168.913,40.173 176.833,40.173 176.87,44.378 164.665,44.396 			"/>
		</g>
		<g>
			<polygon fill="#FFF200" points="200.805,44.388 200.805,9.081 212.762,9.083 212.762,13.18 205.057,13.18 205.057,24.069 
				212.167,24.069 212.167,28.399 205.057,28.399 205.057,44.388 			"/>
		</g>
		<g>
			<polygon fill="#FFF200" points="231.019,44.372 227.84,22.928 224.875,44.372 220.444,44.372 225.813,8.97 229.859,8.97 
				235.659,44.372 			"/>
		</g>
		<g>
			<polygon fill="#FFF200" points="152.608,44.347 152.608,28.325 149.03,28.325 149.03,44.347 144.727,44.347 144.727,9.047 
				149.03,9.047 149.03,23.987 152.608,23.987 152.608,9.047 156.909,9.047 156.909,44.347 			"/>
		</g>
		<g>
			<polygon fill="#FFF200" points="242.463,44.347 242.463,8.974 246.726,8.974 246.726,40.084 254.72,40.084 254.72,44.347 			"/>
		</g>
		<g>
			<polygon fill="#FFF200" points="261.92,44.347 261.92,8.974 266.183,8.974 266.183,40.084 274.176,40.084 274.176,44.347 			"/>
		</g>
	</g>
</g>
<g>
	<g>
		<g>
			<g>
				<polygon fill="#FFF200" points="52.118,44.862 52.118,13.651 48.159,13.651 48.159,8.476 61.45,8.476 61.45,13.651 
					57.271,13.651 57.271,44.862 				"/>
				<path fill="#020202" d="M60.95,8.976v4.175h-4.179v31.211h-4.153V13.151h-3.959V8.976H60.95 M61.95,7.976h-1H48.659h-1v1v4.175
					v1h1h2.959v30.211v1h1h4.153h1v-1V14.151h3.179h1v-1V8.976V7.976L61.95,7.976z"/>
			</g>
		</g>
		<g>
			<g>
				<polygon fill="#FFF200" points="28.217,44.888 28.217,8.581 41.174,8.583 41.174,13.68 33.468,13.68 33.468,23.569 
					40.579,23.569 40.579,28.899 33.468,28.899 33.468,44.888 				"/>
				<path fill="#020202" d="M28.717,9.081l11.957,0.002v4.097h-7.706v10.889h7.111v4.331h-7.111v15.988h-4.251V9.081 M27.717,8.081
					v1v35.307v1h1h4.251h1v-1V29.399h6.111h1v-1v-4.331v-1h-1h-6.111V14.18h6.706h1v-1V9.083v-1h-1L28.717,8.081H27.717
					L27.717,8.081z"/>
			</g>
		</g>
		<g>
			<g>
				<polygon fill="#FFF200" points="68.165,8.57 81.124,8.562 81.124,13.668 73.412,13.668 73.412,23.599 80.5,23.599 80.5,28.886 
					73.412,28.886 73.412,39.673 81.327,39.673 81.374,44.877 68.165,44.896 				"/>
				<path fill="#020202" d="M80.624,9.062v4.106h-7.712v10.931H80v4.287h-7.088v11.787h7.919l0.038,4.205l-12.204,0.018V9.07
					L80.624,9.062 M81.624,8.062l-1,0L68.665,8.07l-1,0v1v35.326v1.001l1.001-0.001l12.204-0.018l1.008-0.001l-0.009-1.008
					l-0.038-4.205l-0.009-0.991h-0.991h-6.919v-9.787H80h1v-1v-4.287v-1h-1h-6.088v-8.931h6.712h1v-1V9.062V8.062L81.624,8.062z"/>
			</g>
		</g>
		<g>
			<g>
				<path fill="#FFF200" d="M96.973,44.888L96.761,43.9c-0.178-0.818-1.755-8.032-3.017-12.225c-0.223-0.74-0.413-1.136-0.529-1.334
					v14.546h-5.146V8.441h7.33c2.144,0,5.74,1.319,5.74,10.153c0,3.72-0.333,7.798-2.73,10.077
					c1.385,3.255,3.299,12.019,3.869,14.707l0.32,1.51H96.973z M94.325,25.395c0.597,0,1.699-2.577,1.699-6.25
					c0-6.088-1.178-6.088-1.882-6.088l-0.928,0.004l0.001,12.334H94.325z"/>
				<path fill="#020202" d="M95.399,8.941c3.379,0,5.24,3.428,5.24,9.653c0,3.787-0.353,7.873-2.836,9.947
					c1.357,2.854,3.353,11.954,3.986,14.94l0.192,0.906h-4.604l-0.127-0.592c-0.017-0.078-1.7-7.855-3.027-12.265
					c-0.461-1.531-0.817-1.755-0.821-1.757l-0.687,0.01v14.604h-4.146V8.941H95.399 M92.715,25.895h1.61
					c1.151,0,2.199-3.217,2.199-6.75c0-6.079-1.177-6.588-2.382-6.588c-0.473,0-1.008,0.003-1.428,0.006L92.715,25.895
					 M95.399,7.941h-6.83h-1v1v35.447v1h1h4.146h1v-1V33.387c1.154,4.197,2.401,9.897,2.556,10.61l0.129,0.601l0.169,0.79h0.808
					h4.604h1.234l-0.255-1.207l-0.192-0.906c-0.71-3.347-2.425-11.096-3.77-14.486c2.312-2.44,2.641-6.493,2.641-10.194
					C101.639,9.325,97.729,7.941,95.399,7.941L95.399,7.941z M93.714,13.558c0.145,0,0.29,0,0.428,0c0.414,0,1.382,0,1.382,5.588
					c0,3.111-0.833,5.363-1.298,5.75h-0.511L93.714,13.558L93.714,13.558z"/>
			</g>
		</g>
		<g>
			<g>
				<polygon fill="#FFF200" points="16.829,44.872 14.1,26.454 11.551,44.872 6.104,44.872 11.624,8.47 16.526,8.47 22.488,44.872 
									"/>
				<path fill="#020202" d="M16.101,8.97L21.9,44.372h-4.64l-3.177-21.444l-2.968,21.444H6.686L12.053,8.97H16.101 M16.951,7.97
					h-0.85h-4.048h-0.86l-0.129,0.85L5.697,44.223l-0.174,1.149h1.163h4.429h0.871l0.12-0.863l2.011-14.529l2.154,14.539
					l0.126,0.854h0.863h4.64h1.177l-0.19-1.162L17.088,8.808L16.951,7.97L16.951,7.97z"/>
			</g>
		</g>
	</g>
	<g>
		<g>
			<g>
				<polygon fill="#FFF200" points="128.14,44.862 128.14,13.651 124.182,13.651 124.182,8.476 137.473,8.476 137.473,13.651 
					133.295,13.651 133.295,44.862 				"/>
				<path fill="#020202" d="M136.973,8.976v4.175h-4.178v31.211h-4.155V13.151h-3.958V8.976H136.973 M137.973,7.976h-1h-12.291h-1v1
					v4.175v1h1h2.958v30.211v1h1h4.155h1v-1V14.151h3.178h1v-1V8.976V7.976L137.973,7.976z"/>
			</g>
		</g>
		<g>
			<g>
				<polygon fill="#FFF200" points="164.165,8.57 177.125,8.562 177.125,13.668 169.413,13.668 169.413,23.599 176.5,23.599 
					176.5,28.886 169.413,28.886 169.413,39.673 177.329,39.673 177.375,44.877 164.165,44.896 				"/>
				<path fill="#020202" d="M176.625,9.062v4.106h-7.713v10.931H176v4.287h-7.088v11.787h7.92l0.037,4.205l-12.205,0.018V9.07
					L176.625,9.062 M177.625,8.062l-1.001,0L164.664,8.07l-0.999,0v1v35.326v1.001l1.001-0.001l12.205-0.018l1.008-0.001
					l-0.009-1.008l-0.037-4.205l-0.009-0.991h-0.991h-6.92v-9.787H176h1v-1v-4.287v-1h-1h-6.088v-8.931h6.713h1v-1V9.062V8.062
					L177.625,8.062z"/>
			</g>
		</g>
		<g>
			<g>
				<polygon fill="#FFF200" points="200.305,44.888 200.305,8.581 213.262,8.583 213.262,13.68 205.557,13.68 205.557,23.569 
					212.667,23.569 212.667,28.899 205.557,28.899 205.557,44.888 				"/>
				<path fill="#020202" d="M200.805,9.081l11.957,0.002v4.097h-7.705v10.889h7.109v4.331h-7.109v15.988h-4.252V9.081
					 M199.805,8.081v1v35.307v1h1h4.252h1v-1V29.399h6.109h1v-1v-4.331v-1h-1h-6.109V14.18h6.705h1v-1V9.083v-1h-1l-11.957-0.002
					H199.805L199.805,8.081z"/>
			</g>
		</g>
		<g>
			<g>
				<polygon fill="#FFF200" points="230.587,44.872 227.858,26.454 225.311,44.872 219.862,44.872 225.383,8.47 230.284,8.47 
					236.248,44.872 				"/>
				<path fill="#020202" d="M229.859,8.97l5.8,35.402h-4.64l-3.179-21.444l-2.965,21.444h-4.432l5.369-35.402H229.859 M230.708,7.97
					h-0.85h-4.046h-0.859l-0.129,0.85l-5.369,35.402l-0.175,1.15h1.163h4.432h0.871l0.119-0.863l2.009-14.528l2.155,14.538
					l0.127,0.854h0.862h4.64h1.177l-0.189-1.162l-5.8-35.402L230.708,7.97L230.708,7.97z"/>
			</g>
		</g>
		<g>
			<g>
				<polygon fill="#FFF200" points="152.108,44.847 152.108,28.825 149.53,28.825 149.53,44.847 144.227,44.847 144.227,8.547 
					149.53,8.547 149.53,23.487 152.108,23.487 152.108,8.547 157.409,8.547 157.409,44.847 				"/>
				<path fill="#020202" d="M156.909,9.047v35.3h-4.301V28.325h-3.578v16.021h-4.303v-35.3h4.303v14.94h3.578V9.047H156.909
					 M157.909,8.047h-1h-4.301h-1v1v13.94h-1.578V9.047v-1h-1h-4.303h-1v1v35.3v1h1h4.303h1v-1V29.325h1.578v15.021v1h1h4.301h1v-1
					v-35.3V8.047L157.909,8.047z"/>
			</g>
		</g>
		<g>
			<g>
				<polygon fill="#FFF200" points="241.963,44.847 241.963,8.474 247.226,8.474 247.226,39.584 255.22,39.584 255.22,44.847 				
					"/>
				<path fill="#020202" d="M246.726,8.974v31.11h7.994v4.263h-12.257V8.974H246.726 M247.726,7.974h-1h-4.263h-1v1v35.373v1h1
					h12.257h1v-1v-4.263v-1h-1h-6.994V8.974V7.974L247.726,7.974z"/>
			</g>
		</g>
		<g>
			<g>
				<polygon fill="#FFF200" points="261.42,44.847 261.42,8.474 266.683,8.474 266.683,39.584 274.676,39.584 274.676,44.847 				
					"/>
				<path fill="#020202" d="M266.183,8.974v31.11h7.993v4.263H261.92V8.974H266.183 M267.183,7.974h-1h-4.263h-1v1v35.373v1h1
					h12.256h1v-1v-4.263v-1h-1h-6.993V8.974V7.974L267.183,7.974z"/>
			</g>
		</g>
	</g>
</g>
</svg>
