<?xml version="1.0" encoding="utf-8"?>
<!-- Generator: Adobe Illustrator 15.1.0, SVG Export Plug-In . SVG Version: 6.00 Build 0)  -->
<!DOCTYPE svg PUBLIC "-//W3C//DTD SVG 1.1//EN" "http://www.w3.org/Graphics/SVG/1.1/DTD/svg11.dtd">
<svg version="1.1" id="Layer_1" xmlns="http://www.w3.org/2000/svg" xmlns:xlink="http://www.w3.org/1999/xlink" x="0px" y="0px"
	 width="110.5px" height="237.5px" viewBox="0 0 110.5 237.5" enable-background="new 0 0 110.5 237.5" xml:space="preserve">
<g>
	<path fill="#939598" d="M31.514,194.113C31.305,193.12,31.104,194.185,31.514,194.113L31.514,194.113z"/>
	<path fill="#939598" d="M71.188,181.817c-0.264,0.149-0.669,0.016-0.678,0.68C70.772,182.345,71.178,182.479,71.188,181.817z"/>
	<path fill="#939598" d="M70.849,198.212C70.562,202.254,71.043,195.475,70.849,198.212L70.849,198.212z"/>
	<path fill="#939598" d="M95.264,202.993C95.121,202.707,95.486,203.447,95.264,202.993L95.264,202.993z"/>
	<path fill="#939598" d="M87.125,166.787C87.348,167.23,86.982,166.498,87.125,166.787L87.125,166.787z"/>
	<path fill="#939598" d="M71.866,192.745c-0.114,0-0.226,0-0.339,0C71.592,193.523,71.867,193.125,71.866,192.745z"/>
	<path fill="#939598" d="M36.301,26.215l-0.279,1.839c0.055-0.298,0.128-0.541,0.239-0.663
		C36.311,27.074,36.314,26.662,36.301,26.215z"/>
	<path fill="#939598" d="M71.565,182.573c-0.047-0.094-0.114-0.229-0.038-0.076C71.546,182.534,71.555,182.552,71.565,182.573z"/>
	<path fill="#939598" d="M78.648,219.396C78.871,219.841,78.506,219.108,78.648,219.396L78.648,219.396z"/>
	<path fill="#939598" d="M75.256,185.913C75.049,184.919,74.848,185.981,75.256,185.913L75.256,185.913z"/>
	<path fill="#939598" d="M72.544,194.113C72.051,194.532,72.578,194.939,72.544,194.113L72.544,194.113z"/>
	<path fill="#939598" d="M72.544,181.133C72.766,181.579,72.402,180.845,72.544,181.133L72.544,181.133z"/>
	<path fill="#939598" d="M73.562,183.868c-0.264,0.149-0.67,0.013-0.679,0.676C73.146,184.395,73.552,184.531,73.562,183.868z"/>
	<path fill="#939598" d="M72.884,182.497c-0.005-0.685-0.595-0.859-0.679,0C72.586,182.429,72.733,183.487,72.884,182.497z"/>
	<path fill="#939598" d="M23.035,177.027c-0.113,0-0.226,0-0.338,0C22.761,177.806,23.037,177.413,23.035,177.027z"/>
	<path fill="#939598" d="M99.44,203.619l-0.236-1.444C98.75,202.75,98.496,203.328,99.44,203.619z"/>
	<path fill="#939598" d="M48.55,2.414h-0.396C48.214,2.916,48.35,2.705,48.55,2.414z"/>
	<path fill="#939598" d="M97.637,204.364c0.639-2.356,0.639-1.748,0-4.1c0.564,0.312,0.851,1.188,1.479,1.37l-0.826-5.041
		c-0.203,0.111-0.428,0.183-0.653,0.249c0,0.687,0,1.369,0,2.056c-0.943,0.307,0.266-3.726-0.678-3.419
		c0.218-1.367,0.546-1.108,0.99-0.97l-12.29-75.028c-0.394-0.011-0.884-0.396-1.586,0.151c-0.342-2.055,0.755-1.208,1.356-1.363
		c0-0.081-0.005-0.151-0.006-0.229l-0.537-3.275c-0.632-1.75-1.654-2.712-2.169-4.695c0.457,0.212,0.647,0.97,1.355,0.681
		c0.024-1.517-0.355-1.488-0.196-2.152l-0.095-0.58c-0.693,0-1.388,0-2.083,0c0.423-0.871,1.133-1.111,1.901-1.106l-5.87-35.837
		c-0.034,0.012-0.068,0.025-0.1,0.043c0.002-0.138,0.024-0.236,0.056-0.314l-2.085-12.73c-0.302,0.1-0.475,0.458-0.346,1.427
		c-2.958-1.672-1.657-2.286,0.205-2.287l-2.118-12.931c-0.119-0.185-0.214-0.563-0.139-0.845l-0.215-1.312
		c-0.395-0.316-0.974-0.26-0.784-1.755c0.2-0.034,0.368-0.002,0.51,0.082l-0.233-1.426c-3.767,1.199-0.9-2.406-0.103-0.627
		l-0.214-1.302c-0.188,0.033-0.398-0.002-0.638-0.144c-0.028-0.903,0.125-1.442,0.296-1.946l-1.243-7.591
		c-0.025-0.01-0.044-0.013-0.07-0.025c-0.068,2.045-1.408-0.653,0,0c0.004-0.104,0.012-0.188,0.021-0.268l-2.118-12.935
		c-0.036,0.419-0.129,0.557-0.278-0.466c0.04-0.276,0.076-0.45,0.107-0.574L66.484,2.414h-6.951c-0.312,0.78-0.827,1.151-1.57,1.061
		c-0.006-0.421,0.029-0.759,0.081-1.061h-2.003c0.256,0.675,0.694,0.978,1.244,1.061c-0.493,2.021-1.324-0.901-2.374,0
		c0.009-0.667,0.415-0.531,0.678-0.686c0.005-0.138,0.002-0.26-0.004-0.375h-2.164c-0.423,0.811-0.961,0.402-1.011,0h-1.289
		c-0.062,0.148-0.158,0.198-0.223,0h-0.759c-0.062,0.253-0.214,0.186-0.178,0h-0.6c-0.312,0.78-0.828,1.151-1.572,1.061
		c0.006-0.436-0.039-0.77-0.104-1.061h-0.626c-0.117,0.31-0.415,0.254-0.625,0.375c0.002-0.174,0.034-0.292,0.082-0.375h-3.599
		c0.019,0.15-0.027,0.312-0.213,0.375c0.034,0.832-0.492,0.423,0,0c0-0.125,0-0.25,0-0.375h-1.359c-0.034,2.018-0.859,0.673-0.471,0
		h-0.964l-2.554,16.845c0.457-0.085,1.088-0.521,0.94,0.614c0.028,1.332-0.695,1.742-1.294,1.723l-0.15,0.992
		c0.03,0.008,0.055,0.008,0.088,0.022c0.272,2.367-0.505,2.623-0.339,4.781c-0.113,0-0.226,0-0.339,0
		c0.579,3.635-0.577,7.429,0.339,8.197c-0.346,0.901-0.332,2.521-0.678,3.421c-0.662,0.182-1.126-0.036-1.493-0.446l-0.681,4.491
		c0.325-0.602,0.663-0.948,1.156,0.051c-0.062-3.007,1.335-0.19,0,0c0.076,0.532,0.009,1.348,0.34,1.369
		c-0.035-0.826,0.492-0.419,0,0c0,0.684,0,1.364,0,2.051c-0.635,0.036-0.719-0.527-0.34-1.367c-2.211,2.038,2.131,5.105,1.356-0.684
		c1.286,0.559,0.521,4.515-0.679,4.098c0.289,2.008,1.093-0.405,1.696,0c-0.487,2.774-4.402,0.357-3.053,4.782
		c-1.081,0.588-1.048-1.072-1.694-1.365c0.139-0.859,0.436-1.393,1.018-1.366c-0.236-0.408-0.54-0.581-0.853-0.629l-8.438,55.663
		c0.009,0.058,0.001,0.109-0.024,0.159l-0.852,5.62c0.111,0,0.222,0,0.333,0c0,0.454,0,0.909,0,1.366c-0.18,0-0.36,0-0.54,0
		l-0.823,5.427c0.001,0.015,0.004,0.027,0.005,0.042c0.207,0.036,0.401,0.098,0.34,0.684c0.621-4.619,0.715-0.342,1.356,2.046
		c-0.642,0.153-0.749-0.769-1.356-0.686c0.543,1.924-0.569,2.913,1.018,2.734c-0.535,1.928-1.198,0.93-2.195,0.672l-7.189,47.426
		c0.167,0.122,0.355,0.253,0.568,0.42c-0.208,1.262-0.471,1.326-0.782,0.988l-0.727,4.794c0.846,0.568,1.723,1.758,2.524,2.414
		c-0.545,1.858-1.533,0.163-2.76-0.859l-0.733,4.838c-0.034,2.229,1.013,2.28,1.459,3.543c-0.455,0.345-1.2,0.516-2.089,0.615
		l-0.706,4.653c0.135,0.081,0.276,0.154,0.421,0.192c0.027,0.689-0.232,0.802-0.566,0.767l-6.261,41.305h29.079l2.02-14.593
		c-0.142,0.254-0.243,0.59-0.195,1.227c-0.709,0.287-0.896-0.474-1.356-0.687c0.033-1.516,0.862-1.425,1.667-1.38l1.403-10.134
		c-0.006-0.039-0.011-0.062-0.018-0.105c0.044-0.305,0.083-0.495,0.117-0.616l0.277-2.004c-0.011-0.022-0.026-0.054-0.056-0.112
		c-0.086-0.174,0.013,0.026,0.056,0.112l1.535-11.089c-0.125,0.184-0.163,0.125,0.078-0.561l6.921-50.006
		c-0.038,0.013-0.076,0.027-0.11,0.048c0.003-0.269,0.073-0.403,0.17-0.482l0.502-3.628c-0.029-0.06-0.044-0.089,0-0.001
		l2.07-14.957c-0.01-0.021-0.017-0.032-0.031-0.062c-0.072-0.146-0.015-0.031,0.031,0.062l4.401-31.798l14.906,100.642
		c0.053-0.534,0.421-0.438,0.67-0.578c-0.011,0.643-0.392,0.539-0.656,0.671l1.661,11.215c0.075-0.528,0.195-1.118,0.35-2.318
		c0.666,1.32,0.167,3.207,0.047,4.995l3.871,26.141h30.463l-5.01-30.586C99.175,204.815,98.133,204.037,97.637,204.364z
		 M36.938,36.274C37.16,36.724,36.797,35.988,36.938,36.274L36.938,36.274z M14.559,170.2
		C14.416,169.912,14.781,170.646,14.559,170.2L14.559,170.2z M13.201,184.544c0.011-0.663,0.416-0.526,0.679-0.676
		C13.871,184.531,13.466,184.395,13.201,184.544z M12.524,191.382C12.383,191.093,12.746,191.828,12.524,191.382L12.524,191.382z
		 M12.863,194.795c-0.056,0.804-0.619,0.576-1.018,0.685C11.9,194.684,12.465,194.907,12.863,194.795z M10.828,208.463
		c0.883-0.408,1.221,0.273,1.018,2.053C11.531,209.783,10.596,210.3,10.828,208.463z M10.489,200.948
		c-0.009,0.664-0.415,0.53-0.678,0.68C9.82,200.966,10.225,201.101,10.489,200.948z M10.15,211.194
		C10.372,211.643,10.008,210.91,10.15,211.194L10.15,211.194z M6.42,233.744C6.011,233.815,6.211,232.751,6.42,233.744L6.42,233.744
		z M6.42,224.859c0.01-0.662,0.415-0.53,0.68-0.68C7.089,224.844,6.684,224.707,6.42,224.859z M7.776,219.396
		c0.01-0.669,0.416-0.53,0.679-0.685C8.445,219.378,8.039,219.24,7.776,219.396z M8.115,212.565c-0.107-1.209,1.9-1.224,1.357,0.677
		C8.863,213.333,8.757,212.411,8.115,212.565z M9.133,227.596C9.525,224.892,9.525,230.292,9.133,227.596L9.133,227.596z
		 M9.133,220.764C8.99,220.475,9.355,221.21,9.133,220.764L9.133,220.764z M10.489,225.546
		C10.348,225.254,10.711,225.992,10.489,225.546L10.489,225.546z M11.168,225.546C10.471,228.817,11.9,222.102,11.168,225.546
		L11.168,225.546z M9.812,220.077c1.173-0.537,1.432,0.758,2.034,1.373C11.66,222.642,9.109,222.928,9.812,220.077z M10.489,217.345
		c-0.397-0.111-0.286-1.244-0.339-2.048c-0.273,0.36-0.551,0.715-1.018,0.683c0.076-2.129,1.688-1.156,2.713-1.369
		C12.203,217.155,10.702,215.951,10.489,217.345z M11.506,211.881C12.001,209.613,12.35,214.547,11.506,211.881L11.506,211.881z
		 M13.88,201.628c-0.565,0-1.13,0-1.694,0C12.312,199.801,13.988,198.427,13.88,201.628z M12.524,231.012
		C12.489,230.184,13.018,230.592,12.524,231.012L12.524,231.012z M13.541,219.396c0.01-0.669,0.415-0.53,0.678-0.685
		C14.21,219.378,13.805,219.24,13.541,219.396z M13.88,214.61C14.103,215.062,13.738,214.324,13.88,214.61L13.88,214.61z
		 M13.541,209.828c0.01-0.664,0.415-0.532,0.678-0.684C14.21,209.813,13.805,209.679,13.541,209.828z M13.201,204.364
		c-0.914-0.61,0.158-2.777,1.018-2.053C14.746,204.742,13.068,202.728,13.201,204.364z M15.236,220.077
		c0.011-0.664,0.416-0.532,0.678-0.682C15.906,220.06,15.5,219.925,15.236,220.077z M98.994,212.565
		c-0.01,0.664-0.416,0.529-0.678,0.677C98.324,212.583,98.73,212.715,98.994,212.565z M98.316,222.127
		C98.537,222.576,98.174,221.844,98.316,222.127L98.316,222.127z M97.637,206.412C97.604,205.586,98.131,205.994,97.637,206.412
		C97.672,207.238,97.145,206.833,97.637,206.412z M97.977,207.778c-0.01,0.666-0.416,0.529-0.678,0.685
		C97.307,207.799,97.713,207.933,97.977,207.778z M96.959,216.661C97.182,217.112,96.816,216.377,96.959,216.661L96.959,216.661z
		 M94.586,203.681c-0.211-1.86,1.533-3.201,0.678-4.101c1.012-0.375,1.16,2.615,1.695,5.464
		C95.998,204.933,95.546,203.792,94.586,203.681z M95.604,222.127c0.787,1.026,0.518,1.673,0.338,3.419
		c-0.445-0.241-0.533-1.204-1.018-1.366C95.145,223.483,95.703,223.471,95.604,222.127z M94.586,198.898
		C94.443,198.609,94.809,199.345,94.586,198.898L94.586,198.898z M95.604,197.529C95.825,197.979,95.461,197.243,95.604,197.529
		L95.604,197.529z M96.281,190.697C96.674,187.996,96.674,193.396,96.281,190.697L96.281,190.697z M94.586,192.745
		C94.809,193.199,94.443,192.461,94.586,192.745L94.586,192.745z M93.567,190.016C93.426,189.729,93.79,190.462,93.567,190.016
		L93.567,190.016z M96.619,194.795c-0.782,2.524-2.525,0.271-4.068,2.048c0.348-2.293-1.055-1.06-1.695-1.363
		C91.422,192.685,93.701,195.406,96.619,194.795z M93.229,208.463C93.264,209.289,92.736,208.883,93.229,208.463
		C93.194,207.634,93.723,208.042,93.229,208.463z M90.517,205.044C90.738,205.495,90.373,204.758,90.517,205.044L90.517,205.044z
		 M88.82,196.843c0.01-0.658,0.416-0.524,0.678-0.679C89.49,196.83,89.084,196.691,88.82,196.843z M88.82,211.881
		C88.68,211.59,89.043,212.327,88.82,211.881L88.82,211.881z M87.803,194.113c1.037-0.494,1.236,0.7,2.036,0.682
		C89.833,195.84,87.324,196.298,87.803,194.113z M87.803,202.993c0.414,0.076,0.805,0.208,0.679,1.371c-0.226,0-0.452,0-0.679,0
		C87.803,203.908,87.803,203.452,87.803,202.993C87.394,203.067,87.595,202.005,87.803,202.993z M85.43,179.083
		c-0.02,0.413-0.051,0.806-0.34,0.68c-0.037,0.836-0.1,1.619-0.678,1.37c0-0.458,0-0.914,0-1.37c0.227,0,0.453,0,0.678,0
		C85.11,179.35,85.142,178.954,85.43,179.083c0.617-1.774-0.146-2.065,0.34-4.103c0.562,0.689,0.367,2.904,0.678,4.103
		C86.108,179.083,85.77,179.083,85.43,179.083z M86.108,211.194C86.33,211.643,85.966,210.91,86.108,211.194L86.108,211.194z
		 M84.412,211.194c0.057-0.793,0.536-0.742,1.018-0.679c-0.392-4.38,1.035-1.503,0,0C85.491,213.133,85.152,210.756,84.412,211.194z
		 M84.752,196.164c0.055-0.801,0.618-0.575,1.018-0.685C85.715,196.283,85.151,196.055,84.752,196.164z M84.412,178.398
		c0.01-0.664,0.415-0.529,0.678-0.687C85.082,178.381,84.676,178.244,84.412,178.398z M85.43,172.933
		c0.18-0.553,0.354-1.11,0.34-2.051c0.328,0.019,0.264,0.837,0.339,1.366c0.247,0.637,0.616,1.034,1.017,1.369
		C86.816,175.475,85.938,172.92,85.43,172.933z M86.786,192.066C86.645,191.779,87.008,192.512,86.786,192.066L86.786,192.066z
		 M87.803,196.164c-0.307,2.286-0.758,0.596-1.355,0C86.67,194.113,87.172,196.82,87.803,196.164z M87.465,187.284
		C87.322,186.995,87.687,187.728,87.465,187.284L87.465,187.284z M87.465,185.913C87.687,186.361,87.322,185.627,87.465,185.913
		L87.465,185.913z M89.498,175.667C89.356,175.378,89.722,176.113,89.498,175.667L89.498,175.667z M89.839,207.097
		C90.061,207.543,89.695,206.811,89.839,207.097L89.839,207.097z M90.517,208.463c-0.009,0.664-0.415,0.532-0.678,0.682
		C89.848,208.48,90.253,208.614,90.517,208.463z M87.465,138.085c-0.01,0.661-0.415,0.529-0.679,0.682
		C86.796,138.105,87.201,138.236,87.465,138.085z M87.125,158.584c-0.009,0.661-0.414,0.526-0.678,0.684
		C86.457,158.599,86.862,158.735,87.125,158.584z M87.465,164.731C87.055,164.8,87.256,163.741,87.465,164.731
		c0.627-0.106,0.209-2.313,0.678-2.734c0.539,3.854,0.855,3.994,2.035,6.15c-0.834-0.362-2.27-0.02-3.73-0.684
		C86.547,166.075,87.127,165.644,87.465,164.731z M85.77,165.413C85.99,165.862,85.627,165.13,85.77,165.413L85.77,165.413z
		 M85.43,161.997C85.652,162.448,85.289,161.716,85.43,161.997L85.43,161.997z M85.09,141.501
		C84.948,141.215,85.312,141.949,85.09,141.501L85.09,141.501z M86.108,167.464c-0.548,1.084-1.075,0.266-1.696,0
		C84.5,165.867,85.902,167.07,86.108,167.464z M84.412,172.933c0.02-0.416,0.051-0.809,0.34-0.685c-0.034-0.826,0.492-0.421,0,0
		C84.732,172.666,84.701,173.057,84.412,172.933c-0.057,0.793-0.535,0.74-1.018,0.685c0.059,0.795,0.537,0.737,1.018,0.682
		c-0.041,1.938-1.445,1.312-1.355-0.682c0.113,0,0.227,0,0.338,0c0-0.231,0-0.457,0-0.685c-1.334-0.195,0.062-3.009,0,0
		C83.734,172.933,84.073,172.933,84.412,172.933z M83.734,195.479C84.229,193.214,84.578,198.144,83.734,195.479L83.734,195.479z
		 M83.734,211.881C83.592,211.59,83.957,212.327,83.734,211.881L83.734,211.881z M82.718,179.763
		c0.886-0.186,1.697-0.231,1.355,2.055C83.426,181.526,82.613,181.566,82.718,179.763z M83.395,113.486
		C83.252,113.196,83.617,113.932,83.395,113.486L83.395,113.486z M83.395,114.854C83.252,114.567,83.617,115.299,83.395,114.854
		L83.395,114.854z M83.057,118.954C83.9,116.287,83.551,121.217,83.057,118.954L83.057,118.954z M83.395,123.734
		C82.986,123.805,83.187,122.745,83.395,123.734C83.805,123.662,83.604,124.727,83.395,123.734z M83.734,125.102
		c-0.01,0.662-0.416,0.53-0.678,0.685C83.065,125.122,83.471,125.251,83.734,125.102z M82.718,142.183
		C83.109,139.483,83.109,144.882,82.718,142.183L82.718,142.183z M82.718,138.767C82.939,139.218,82.576,138.48,82.718,138.767
		L82.718,138.767z M82.718,144.235C82.031,150.224,82.941,142.271,82.718,144.235L82.718,144.235z M82.378,118.27
		c-0.009,0.667-0.415,0.53-0.679,0.684C81.709,118.284,82.115,118.421,82.378,118.27z M82.378,125.786
		C82.235,125.496,82.6,126.232,82.378,125.786L82.378,125.786z M81.021,118.954C81.415,116.252,81.415,121.654,81.021,118.954
		L81.021,118.954z M81.021,165.413c-0.01,0.667-0.415,0.535-0.678,0.685C80.353,165.434,80.76,165.568,81.021,165.413z
		 M80.682,192.066C81.698,192.205,80.357,194.899,80.682,192.066C80.272,192.135,80.474,191.07,80.682,192.066z M80.005,125.102
		c-0.056,0.8-0.618,0.578-1.018,0.685C79.041,124.982,79.605,125.208,80.005,125.102z M78.987,183.868
		C79.38,181.164,79.38,186.564,78.987,183.868L78.987,183.868z M78.987,182.497C79.209,182.945,78.845,182.21,78.987,182.497
		L78.987,182.497z M79.326,187.963c-0.009,0.664-0.416,0.53-0.678,0.685C78.657,187.983,79.062,188.115,79.326,187.963z
		 M78.648,189.329c0.226,0,0.451,0,0.678,0c0,0.91,0,1.822,0,2.737c-0.346-0.446-0.352-1.571-1.018-1.369
		C78.373,190.14,78.648,190.019,78.648,189.329z M78.309,185.231C78.166,184.939,78.53,185.677,78.309,185.231L78.309,185.231z
		 M77.631,118.27c0.739-0.127,1.078,0.558,1.018,2.045C78.331,119.587,77.396,120.106,77.631,118.27z M77.292,92.304
		C77.148,92.015,77.514,92.75,77.292,92.304L77.292,92.304z M77.292,106.654c-0.056,0.8-0.618,0.575-1.019,0.683
		C76.329,106.533,76.894,106.759,77.292,106.654z M76.952,218.029c0.055-0.801,0.618-0.575,1.018-0.685
		C77.914,218.146,77.352,217.92,76.952,218.029z M76.773,225.983c0.006-0.059,0.054-0.545,0.179-1.804
		C77.125,222.439,76.791,225.811,76.773,225.983z M76.952,209.828C76.811,209.542,77.176,210.274,76.952,209.828L76.952,209.828z
		 M77.292,118.954c-0.009,0.662-0.415,0.527-0.679,0.679C76.623,118.969,77.028,119.106,77.292,118.954z M76.273,133.3
		C76.667,130.602,76.667,136.004,76.273,133.3L76.273,133.3z M76.952,180.449c-0.009,0.664-0.415,0.529-0.679,0.684
		C76.283,180.47,76.689,180.599,76.952,180.449z M76.613,220.077C76.836,220.528,76.471,219.791,76.613,220.077L76.613,220.077z
		 M75.936,118.954c-0.084,0.738-0.675,0.461-0.68,1.361c-0.328-0.017-0.262-0.833-0.338-1.361
		C75.363,118.133,75.451,118.688,75.936,118.954z M74.918,61.557C74.775,61.267,75.141,62.002,74.918,61.557L74.918,61.557z
		 M75.256,140.815C75.223,139.993,75.75,140.398,75.256,140.815C75.188,142.864,73.849,140.165,75.256,140.815z M75.256,178.398
		C75.114,178.11,75.479,178.848,75.256,178.398L75.256,178.398z M74.578,67.707C74.545,66.874,75.072,67.283,74.578,67.707
		C74.947,70.899,72.99,66.958,74.578,67.707z M73.9,70.437C74.123,70.886,73.758,70.15,73.9,70.437L73.9,70.437z M74.24,102.55
		c-0.15,0.991-0.298-0.068-0.678,0C73.645,101.69,74.235,101.865,74.24,102.55z M74.24,130.567
		C74.098,130.279,74.463,131.013,74.24,130.567L74.24,130.567z M73.223,73.17C73.444,73.616,73.08,72.884,73.223,73.17L73.223,73.17
		z M73.223,143.551c0.844,0.276,0.02,2.648-0.679,2.048c0.034,0.826-0.493,0.421,0,0C72.625,144.626,73.103,144.448,73.223,143.551z
		 M72.205,178.398c-0.301,2.051-2.141,2.715-2.374,0C70.623,178.398,71.414,178.398,72.205,178.398z M69.831,161.318
		C69.689,161.029,70.053,161.762,69.831,161.318L69.831,161.318z M70.51,170.2c0.547-0.197,0.584,0.644,1.018,0.682
		C71.661,172.208,69.982,171.878,70.51,170.2z M70.51,83.418C70.731,83.869,70.367,83.132,70.51,83.418L70.51,83.418z
		 M71.188,146.283C70.778,146.353,70.979,145.29,71.188,146.283c0.658-0.273,0.496,3.114-0.339,2.05
		C70.867,147.462,71.283,147.388,71.188,146.283z M71.188,82.737C71.045,82.448,71.41,83.183,71.188,82.737L71.188,82.737z
		 M71.188,140.133C71.58,137.431,71.58,142.833,71.188,140.133L71.188,140.133z M71.188,143.551
		C72.325,141.897,70.367,145.842,71.188,143.551L71.188,143.551z M71.527,97.77C71.92,95.07,71.92,100.469,71.527,97.77
		L71.527,97.77z M71.527,107.337C71.92,104.638,71.92,110.033,71.527,107.337L71.527,107.337z M71.501,100.449
		c0.005,0.011,0.012,0.023,0.026,0.053C71.691,100.832,71.537,100.522,71.501,100.449z M71.527,138.085
		C71.385,137.796,71.75,138.531,71.527,138.085L71.527,138.085z M70.849,154.483C71.242,151.782,71.242,157.18,70.849,154.483
		L70.849,154.483z M70.849,158.584C70.706,158.292,71.07,159.029,70.849,158.584L70.849,158.584z M71.866,174.98
		C72.088,175.432,71.725,174.699,71.866,174.98L71.866,174.98z M71.527,94.354c0,0.227,0,0.454,0,0.682c0.41-0.071,0.209,0.993,0,0
		C71.339,95.038,71.143,94.483,71.527,94.354c0.139-0.859,0.437-1.399,1.017-1.369C72.404,93.847,72.107,94.382,71.527,94.354z
		 M71.527,77.272C71.385,76.984,71.75,77.719,71.527,77.272L71.527,77.272z M72.205,76.586C72.062,76.3,72.428,77.032,72.205,76.586
		L72.205,76.586z M72.544,114.854C72.402,114.567,72.766,115.299,72.544,114.854L72.544,114.854z M72.884,141.501
		C73.105,141.949,72.741,141.215,72.884,141.501L72.884,141.501z M72.544,44.473c-0.01,0.665-0.415,0.529-0.678,0.684
		C71.875,44.489,72.281,44.626,72.544,44.473z M72.884,45.837c-0.056,0.802-0.618,0.574-1.018,0.687
		C71.92,45.724,72.484,45.947,72.884,45.837z M72.544,50.622C71.516,53.15,71.401,48.547,72.544,50.622L72.544,50.622z
		 M72.205,54.035c-0.289-0.12-0.319,0.268-0.339,0.686c-0.397-0.11-0.286-1.246-0.339-2.051
		C72.104,52.417,72.166,53.203,72.205,54.035z M72.544,57.454C71.8,59.543,70.372,56.668,72.544,57.454L72.544,57.454z
		 M72.884,69.07c-0.01,0.664-0.415,0.532-0.679,0.684c0.01,0.667,0.415,0.534,0.679,0.683c-1.009,1.755-1.887-0.47-3.053,0.682
		c0.108,1.609,0.536,2.567,0.339,4.786c-1.438-1.779-0.894-6.034-3.391-4.103c0.016-2.474,2.408-0.156,2.036-3.416
		C69.737,70.926,71.236,68.882,72.884,69.07z M66.779,160.634C67.273,158.365,67.624,163.3,66.779,160.634L66.779,160.634z
		 M66.779,41.738C67.002,42.185,66.637,41.453,66.779,41.738L66.779,41.738z M67.119,39.009
		C69.053,36.548,68.607,40.733,67.119,39.009L67.119,39.009z M68.135,21.925C68.529,19.227,68.529,24.627,68.135,21.925
		L68.135,21.925z M68.135,68.386C67.994,68.099,68.358,68.832,68.135,68.386L68.135,68.386z M67.119,36.274
		C67.342,36.724,66.977,35.988,67.119,36.274L67.119,36.274z M68.815,32.172C69.037,32.619,68.672,31.886,68.815,32.172
		L68.815,32.172z M68.815,25.339C69.037,25.79,68.672,25.056,68.815,25.339L68.815,25.339z M70.849,52.669
		C71.07,53.117,70.706,52.39,70.849,52.669L70.849,52.669z M70.17,34.903C70.564,32.206,70.564,37.606,70.17,34.903L70.17,34.903z
		 M70.17,33.537c0.001,0.001,0.001,0.001,0.001,0.003C70.137,33.471,70.114,33.425,70.17,33.537z M70.849,45.837
		c-0.055,0.802-0.618,0.574-1.018,0.687C69.885,45.724,70.449,45.947,70.849,45.837z M69.831,24.657
		C69.689,24.371,70.053,25.103,69.831,24.657L69.831,24.657z M69.831,31.49C69.689,31.201,70.053,31.936,69.831,31.49L69.831,31.49z
		 M69.492,45.157C69.35,44.865,69.714,45.6,69.492,45.157L69.492,45.157z M69.153,21.925C69.546,19.227,69.546,24.627,69.153,21.925
		L69.153,21.925z M69.831,59.502c-0.226,0-0.452,0-0.678,0c0-0.453,0-0.911,0-1.361c-0.41,0.067-0.208-0.996,0,0
		C69.566,58.214,69.956,58.337,69.831,59.502z M68.815,19.873C69.225,19.807,69.022,20.869,68.815,19.873
		C67.016,20.615,68.412,17.796,68.815,19.873z M67.457,8.941C67.315,8.655,67.68,9.388,67.457,8.941L67.457,8.941z M67.119,7.577
		C66.977,7.288,67.342,8.022,67.119,7.577L67.119,7.577z M67.119,20.558C66.977,20.271,67.342,21.001,67.119,20.558L67.119,20.558z
		 M67.119,31.49c-0.01,0.664-0.416,0.529-0.678,0.683C66.449,31.506,66.854,31.643,67.119,31.49z M66.441,83.418
		C66.662,83.869,66.298,83.132,66.441,83.418L66.441,83.418z M66.441,105.966C66.851,105.897,66.649,106.962,66.441,105.966
		C66.03,106.038,66.23,104.978,66.441,105.966z M66.102,31.49c-0.009,0.664-0.415,0.529-0.679,0.683
		C65.433,31.506,65.838,31.643,66.102,31.49z M65.084,19.873C65.307,20.321,64.941,19.589,65.084,19.873L65.084,19.873z
		 M64.745,38.322c0.675-0.009,0.431-1.863,1.356-1.369c-0.361,1.552-1.029,2.488-2.035,2.737c-0.055-0.796,0.075-1.218,0.34-1.369
		c-0.148-0.839-0.434-1.401-1.018-1.369c0.076-0.98,1.012-0.231,1.018-1.366C65.392,36.182,64.787,36.611,64.745,38.322z
		 M64.406,19.193C64.799,16.493,64.799,21.89,64.406,19.193L64.406,19.193z M63.727,34.903c0.01-0.663,0.416-0.53,0.68-0.679
		C64.396,34.883,63.99,34.752,63.727,34.903z M63.727,10.31c-0.031,1.071,0.047,2.368-0.678,2.046
		C63.213,11.551,63.412,10.809,63.727,10.31C63.693,9.481,64.221,9.888,63.727,10.31z M63.049,45.837
		C62.907,45.551,63.272,46.284,63.049,45.837L63.049,45.837z M63.049,52.669C63.272,53.117,62.907,52.39,63.049,52.669
		L63.049,52.669z M63.049,40.371C62.907,40.084,63.272,40.819,63.049,40.371L63.049,40.371z M61.354,5.525
		c0.115,0.762,1.801,2.221,0.34,2.052c0.062,1.011,0.818,0.625,1.355,0.682c-0.418,0.979-1.165,1.292-2.035,1.37
		C60.771,7.536,61.361,7.133,61.354,5.525C60.943,5.589,61.146,4.529,61.354,5.525z M61.354,83.418
		C61.576,83.869,61.212,83.132,61.354,83.418L61.354,83.418z M61.354,66.338C61.212,66.054,61.576,66.781,61.354,66.338
		L61.354,66.338z M61.693,85.466c-0.01,0.667-0.415,0.532-0.68,0.687C61.024,85.489,61.43,85.621,61.693,85.466z M61.014,45.157
		c0.084-1.204,0.585-1.557,1.357-1.367C62.289,44.992,61.788,45.344,61.014,45.157z M61.014,16.46
		C60.873,16.17,61.236,16.902,61.014,16.46L61.014,16.46z M61.014,11.672C60.873,11.388,61.236,12.12,61.014,11.672L61.014,11.672z
		 M61.014,19.873C60.873,19.589,61.236,20.321,61.014,19.873L61.014,19.873z M61.014,33.537c0.227,0,0.453,0,0.68,0
		c0,0.456,0,0.91,0,1.366c-0.227,0-0.453,0-0.68,0C61.014,34.447,61.014,33.993,61.014,33.537z M61.354,41.738
		C62.492,40.087,60.535,44.031,61.354,41.738L61.354,41.738z M62.371,15.09C62.593,15.537,62.229,14.805,62.371,15.09L62.371,15.09z
		 M62.371,10.993C62.229,10.703,62.593,11.435,62.371,10.993L62.371,10.993z M62.371,37.636
		C63.216,34.976,62.865,39.901,62.371,37.636L62.371,37.636z M60.337,12.356C60.559,12.805,60.195,12.071,60.337,12.356
		L60.337,12.356z M59.998,38.322C61.536,36.039,62.232,40.014,59.998,38.322L59.998,38.322z M59.32,31.49
		C59.814,29.227,60.164,34.157,59.32,31.49L59.32,31.49z M59.32,22.609C59.178,22.319,59.541,23.05,59.32,22.609L59.32,22.609z
		 M59.32,5.525C60.572,7.597,58.29,7.826,59.32,5.525L59.32,5.525z M58.302,13.722C58.524,14.172,58.16,13.438,58.302,13.722
		L58.302,13.722z M57.285,11.672C57.508,12.12,57.143,11.388,57.285,11.672L57.285,11.672z M56.607,7.577
		c-0.01,0.664-0.416,0.529-0.68,0.682C55.938,7.597,56.344,7.729,56.607,7.577z M55.25,21.237
		C55.473,21.687,55.107,20.952,55.25,21.237L55.25,21.237z M56.607,23.974c-0.031,1.076-0.865,0.534-0.68,2.048
		c-0.393-0.569-0.908-0.902-1.695-0.683c0,0.454,0,0.913,0,1.37c-0.925-0.063-0.682,1.134-1.355,0c0-0.457,0-0.916,0-1.37
		c0.674-1.138,0.431,0.064,1.355,0C54.28,23.385,55.646,24.091,56.607,23.974z M55.25,32.172
		C54.753,34.76,53.326,31.882,55.25,32.172L55.25,32.172z M54.911,69.07C55.303,66.371,55.303,71.772,54.911,69.07L54.911,69.07z
		 M55.25,35.587C55.473,36.039,55.107,35.302,55.25,35.587L55.25,35.587z M56.268,36.274c-0.148,0.838-0.435,1.398-1.018,1.362
		C55.092,36.182,55.734,36.337,56.268,36.274z M56.268,32.858C56.125,32.569,56.489,33.302,56.268,32.858L56.268,32.858z
		 M55.928,41.738C55.786,41.453,56.151,42.185,55.928,41.738L55.928,41.738z M56.607,49.254c-0.01,0.666-0.416,0.532-0.68,0.686
		C55.938,49.273,56.344,49.407,56.607,49.254z M54.572,6.208c-0.01,0.663-0.415,0.53-0.678,0.682
		C53.903,6.228,54.309,6.357,54.572,6.208z M53.895,3.475C53.752,3.187,54.116,3.921,53.895,3.475L53.895,3.475z M53.555,17.139
		C53.412,16.852,53.777,17.585,53.555,17.139L53.555,17.139z M54.572,19.873c0,0.227,0,0.456,0,0.686c0.41-0.072,0.208,0.992,0,0
		c-0.459,0.214-0.647,0.973-1.356,0.679C53.163,19.33,54.174,19.007,54.572,19.873z M52.199,17.139c0.111,0,0.225,0,0.338,0
		c0.068-2.045,1.409,0.653,0,0C52.538,17.521,52.264,17.916,52.199,17.139C50.79,17.792,52.13,15.094,52.199,17.139z M52.199,33.537
		c0.037-0.829,0.102-1.614,0.678-1.365c0,0.457,0,0.913,0,1.365C52.65,33.537,52.424,33.537,52.199,33.537
		C52.232,34.363,51.705,33.96,52.199,33.537z M52.199,30.804C52.42,31.256,52.057,30.521,52.199,30.804L52.199,30.804z
		 M52.537,19.193C52.502,18.365,53.03,18.77,52.537,19.193C52.572,20.017,52.045,19.609,52.537,19.193z M51.859,28.073
		c-0.015-0.029-0.021-0.042-0.026-0.053C51.87,28.094,52.022,28.403,51.859,28.073z M51.52,5.525
		C51.378,5.235,51.742,5.972,51.52,5.525L51.52,5.525z M51.52,32.858c-0.01,0.663-0.414,0.525-0.678,0.679
		C50.851,32.873,51.256,33.009,51.52,32.858z M51.182,28.073C51.402,28.522,51.039,27.785,51.182,28.073L51.182,28.073z
		 M50.842,5.525C50.809,4.698,51.334,5.103,50.842,5.525C50.877,6.35,50.349,5.944,50.842,5.525z M50.842,9.628
		C51.036,6.883,50.557,13.669,50.842,9.628L50.842,9.628z M50.503,8.258C50.725,8.708,50.359,7.973,50.503,8.258L50.503,8.258z
		 M50.842,16.46C51.252,16.389,51.051,17.449,50.842,16.46C49.435,17.109,50.773,14.411,50.842,16.46z M49.824,29.439
		C50.046,29.885,49.682,29.155,49.824,29.439L49.824,29.439z M49.486,30.804c-0.489,0.369-0.828-2.663-1.019-0.683
		C47.031,28.758,50.362,27.465,49.486,30.804z M48.129,26.708C47.986,26.421,48.352,27.155,48.129,26.708L48.129,26.708z
		 M49.486,27.391c-1.064-0.473-0.442-1.825-0.34-3.417C50.285,24.6,49.314,25.244,49.486,27.391z M49.486,18.509
		C49.344,18.22,49.707,18.955,49.486,18.509L49.486,18.509z M49.486,7.577c-0.01,0.664-0.416,0.529-0.679,0.682
		C48.816,7.597,49.223,7.729,49.486,7.577z M48.808,19.193C48.665,18.903,49.03,19.64,48.808,19.193L48.808,19.193z M47.111,4.842
		C46.97,4.553,47.334,5.288,47.111,4.842L47.111,4.842z M47.451,18.509c1.158-0.515,0.431,2.775,1.695,2.049
		c-0.66,0.953-1.6,3.407-2.373,2.051C46.715,19.789,48.289,21.325,47.451,18.509z M48.468,30.804
		c-0.063,0.559-0.34,0.686-0.339,1.368c0.148,1.013,0.435-0.27,1.018,0c0.342,2.054-0.756,1.21-1.357,1.365c0-0.452,0-0.908,0-1.365
		c-0.338,0-0.678,0-1.016,0C47.061,31.158,47.865,31.184,48.468,30.804z M49.146,34.903C49.368,35.354,49.004,34.619,49.146,34.903
		L49.146,34.903z M46.096,4.842c0.158,0.319,0.019,0.038-0.022-0.045C46.079,4.808,46.083,4.816,46.096,4.842z M45.416,71.802
		C45.639,72.253,45.273,71.515,45.416,71.802L45.416,71.802z M45.476,80.123c-0.011-0.022-0.028-0.057-0.06-0.121
		C45.327,79.824,45.436,80.042,45.476,80.123z M45.077,30.121C45.299,30.575,44.936,29.84,45.077,30.121L45.077,30.121z
		 M43.382,32.858c0.295-1.991,0.508-0.769,1.356-0.686C44.645,33.758,43.833,33.744,43.382,32.858z M43.721,89.569
		C43.578,89.283,43.943,90.015,43.721,89.569L43.721,89.569z M43.382,34.903C43.604,35.354,43.239,34.619,43.382,34.903
		L43.382,34.903z M43.382,45.837C43.604,46.284,43.239,45.551,43.382,45.837L43.382,45.837z M43.382,26.022
		C42.623,32.519,43.795,22.473,43.382,26.022L43.382,26.022z M43.721,30.121C44.113,27.425,44.113,32.821,43.721,30.121
		L43.721,30.121z M44.06,13.722C44.025,12.901,44.553,13.306,44.06,13.722C44.094,14.551,43.566,14.145,44.06,13.722z M44.06,4.842
		C43.918,4.553,44.281,5.288,44.06,4.842L44.06,4.842z M44.398,2.789c-0.009,0.668-0.415,0.53-0.678,0.686
		C43.73,2.807,44.135,2.944,44.398,2.789z M44.06,19.193c-0.009,0.663-0.415,0.526-0.678,0.679
		C43.392,19.208,43.797,19.347,44.06,19.193z M42.365,5.525C42.33,4.698,42.857,5.103,42.365,5.525
		C42.399,6.35,41.871,5.944,42.365,5.525z M43.043,13.722c0.342,0.01,0.426,1.196,0,1.368c0.104,1.579-0.98,0.76-1.018,2.049
		c1.029,0.809-0.368,3.625,0,0c-0.585-0.82-2.305-0.832-1.356-2.734c0.937,0.815,1.19,1.943,2.374,0.686
		C43.043,14.636,43.043,14.181,43.043,13.722c-0.678,0-1.356,0-2.035,0C41.574,12.488,42.641,12.032,43.043,13.722z M43.043,61.557
		C42.9,61.267,43.266,62.002,43.043,61.557L43.043,61.557z M43.043,23.289C43.238,20.549,42.756,27.331,43.043,23.289L43.043,23.289
		z M41.008,71.119c0.01-0.662,0.414-0.526,0.679-0.682C41.678,71.102,41.271,70.967,41.008,71.119z M41.347,138.085
		C41.205,137.796,41.568,138.531,41.347,138.085L41.347,138.085z M40.33,36.953c0.436-2.729,0.701,0.19,1.695,0
		C41.938,38.555,40.535,37.35,40.33,36.953z M40.39,54.841c-0.011-0.022-0.028-0.057-0.06-0.121
		C40.241,54.542,40.35,54.761,40.39,54.841z M40.669,34.224C40.525,33.935,40.891,34.666,40.669,34.224L40.669,34.224z
		 M41.347,49.94c0.01-0.667,0.416-0.533,0.679-0.686C42.016,49.92,41.611,49.787,41.347,49.94z M41.687,53.353
		C41.908,53.805,41.545,53.07,41.687,53.353L41.687,53.353z M41.687,61.557C41.545,61.267,41.908,62.002,41.687,61.557
		L41.687,61.557z M42.365,73.853c-0.011,0.667-0.416,0.53-0.679,0.683C41.695,73.874,42.102,74.006,42.365,73.853z M42.365,138.767
		c-0.011,0.664-0.416,0.529-0.679,0.685C41.695,138.787,42.102,138.921,42.365,138.767z M42.025,112.119
		c0.009-0.664,0.415-0.532,0.678-0.685C42.694,112.099,42.289,111.967,42.025,112.119z M42.703,53.353
		C42.926,53.805,42.561,53.07,42.703,53.353L42.703,53.353z M40.33,4.156c0.345,0.444,0.351,1.571,1.017,1.369
		c-0.054,0.8-0.618,0.577-1.017,0.683C40.33,5.525,40.33,4.842,40.33,4.156z M40.33,13.04C40.553,13.489,40.188,12.756,40.33,13.04
		L40.33,13.04z M39.99,19.873c0.453,0,0.904,0,1.356,0c0.343,2.058-0.755,1.211-1.356,1.365C39.99,20.785,39.99,20.329,39.99,19.873
		z M39.99,31.49c-0.009,0.664-0.415,0.529-0.678,0.683C39.322,31.506,39.729,31.643,39.99,31.49z M39.99,34.224
		c-0.009,0.659-0.415,0.528-0.678,0.679C39.322,34.24,39.729,34.374,39.99,34.224z M39.652,15.777
		c-0.01,0.659-0.416,0.526-0.679,0.683C38.982,15.792,39.389,15.927,39.652,15.777z M38.974,19.873
		C39.195,20.321,38.832,19.589,38.974,19.873L38.974,19.873z M39.652,54.035C38.623,56.566,38.51,51.964,39.652,54.035
		L39.652,54.035z M39.99,69.754c-0.009,0.667-0.415,0.534-0.678,0.683C39.322,69.774,39.729,69.907,39.99,69.754z M38.974,58.141
		C38.832,57.851,39.195,58.585,38.974,58.141L38.974,58.141z M39.025,112.223c-0.012-0.023-0.027-0.054-0.052-0.104
		C38.89,111.951,38.981,112.134,39.025,112.223z M38.635,36.274c-0.01,0.663-0.416,0.527-0.678,0.679
		C37.965,36.294,38.371,36.428,38.635,36.274z M38.635,70.437C38.857,70.886,38.492,70.15,38.635,70.437L38.635,70.437z
		 M38.295,53.353C38.518,53.805,38.152,53.07,38.295,53.353L38.295,53.353z M38.295,77.955c-0.396-0.112-0.286-1.245-0.338-2.05
		C38.865,76.437,39.309,76.127,38.295,77.955z M37.617,45.837c0.164,0.33,0.01,0.02-0.026-0.053
		C37.596,45.795,37.603,45.808,37.617,45.837z M36.938,52.669c-0.79,0-1.581,0-2.374,0C34.867,50.619,36.705,49.959,36.938,52.669z
		 M35.244,58.821c0.316,0.731,1.25,0.211,1.017,2.049C35.38,61.281,35.041,60.598,35.244,58.821z M35.922,148.333
		C36.144,148.782,35.779,148.047,35.922,148.333L35.922,148.333z M34.904,153.798C35.297,151.101,35.297,156.498,34.904,153.798
		L34.904,153.798z M34.904,144.235C34.763,143.949,35.127,144.682,34.904,144.235L34.904,144.235z M34.226,138.085
		c0.14-0.859,0.438-1.399,1.019-1.369c0-0.226,0-0.453,0-0.682c-0.41,0.066-0.209-0.995,0,0c0.113,0,0.225,0,0.338,0
		c-0.034-0.828,0.494-0.423,0,0c-0.02,0.416-0.05,0.809-0.338,0.682C35.105,137.575,34.806,138.115,34.226,138.085z M34.226,155.166
		C34.084,154.877,34.449,155.614,34.226,155.166L34.226,155.166z M33.888,114.854C35.357,115.137,33.53,118.819,33.888,114.854
		L33.888,114.854z M34.564,130.567C34.424,130.279,34.788,131.013,34.564,130.567L34.564,130.567z M34.904,124.416
		C35.127,124.866,34.763,124.131,34.904,124.416L34.904,124.416z M34.904,93.668C35.127,94.118,34.763,93.383,34.904,93.668
		L34.904,93.668z M34.904,133.3C36.042,131.646,34.085,135.595,34.904,133.3L34.904,133.3z M35.244,89.569
		C35.466,90.015,35.102,89.283,35.244,89.569L35.244,89.569z M35.244,87.521C35.637,84.817,35.637,90.218,35.244,87.521
		L35.244,87.521z M35.244,90.938C35.102,90.646,35.466,91.381,35.244,90.938L35.244,90.938z M35.582,84.787
		C34.553,83.979,35.951,81.162,35.582,84.787C35.991,84.721,35.791,85.778,35.582,84.787z M35.582,77.272
		C35.439,76.984,35.805,77.719,35.582,77.272L35.582,77.272z M35.582,73.17C35.439,72.884,35.805,73.616,35.582,73.17L35.582,73.17z
		 M36.261,71.119C36.482,71.571,36.118,70.833,36.261,71.119L36.261,71.119z M34.564,56.772
		C34.424,56.486,34.788,57.218,34.564,56.772L34.564,56.772z M33.549,84.787c0.339,0,0.677,0,1.016,0
		c0.299,2.195-1.116,0.935-1.016,2.734C32.532,87.072,33.872,86.06,33.549,84.787z M32.531,128.516
		C33.024,126.252,33.375,131.183,32.531,128.516L32.531,128.516z M32.191,101.186C32.414,101.635,32.049,100.9,32.191,101.186
		L32.191,101.186z M32.191,163.365C32.227,164.189,31.699,163.786,32.191,163.365C31.822,160.168,33.779,164.11,32.191,163.365z
		 M31.514,89.569C31.906,86.869,31.906,92.266,31.514,89.569L31.514,89.569z M31.514,111.435
		C31.479,110.606,32.006,111.017,31.514,111.435c0.062,2.618-0.277,0.247-1.018,0.685C30.553,111.321,31.031,111.374,31.514,111.435
		z M31.514,170.2C31.371,169.912,31.735,170.646,31.514,170.2L31.514,170.2z M30.496,97.77c-0.15,0.991-0.297-0.07-0.679,0
		C29.902,96.908,30.492,97.078,30.496,97.77z M30.496,123.734c-0.009,0.665-0.415,0.53-0.679,0.682
		C29.826,123.755,30.233,123.891,30.496,123.734z M31.514,171.566c0.287-0.129,0.32,0.264,0.339,0.682
		c-0.058,1.48,1.203,0.31,1.696,0.685c-0.121,1.112-3.148,1.166-4.408,0.685C29.396,171.851,31.648,174.113,31.514,171.566z
		 M35.582,172.933C34.838,175.019,33.41,172.145,35.582,172.933L35.582,172.933z M35.642,179.204
		c-0.011-0.022-0.028-0.058-0.06-0.121C35.493,178.904,35.602,179.123,35.642,179.204z M34.564,178.398c0-0.458,0-0.912,0-1.371
		c0.289,0.127,0.321-0.266,0.34-0.679C35.562,176.077,35.4,179.463,34.564,178.398z M34.226,180.449
		C35.255,177.922,35.368,182.522,34.226,180.449L34.226,180.449z M34.904,184.544C34.159,186.633,32.732,183.759,34.904,184.544
		L34.904,184.544z M34.226,186.597C34.084,186.311,34.449,187.048,34.226,186.597L34.226,186.597z M34.564,190.697
		c-0.339,0-0.677,0-1.016,0c0.002,0.899,0.594,0.626,0.677,1.369c0.675-1.144,0.433,0.056,1.356,0c-0.105,0.777-1.607,2.607-1.356,0
		c-0.695,0.782-1.616-1.077-0.677-1.369c-0.02-0.877-0.436-0.945-0.339-2.05c-1.409,0.651-0.069-2.045,0,0
		C33.857,188.934,34.67,188.894,34.564,190.697z M33.21,187.284C33.066,186.995,33.432,187.728,33.21,187.284L33.21,187.284z
		 M32.191,191.382C32.049,191.093,32.414,191.828,32.191,191.382L32.191,191.382z M32.251,179.204
		c-0.011-0.022-0.028-0.058-0.06-0.121C32.103,178.904,32.211,179.123,32.251,179.204z M31.853,183.868
		C31.711,183.579,32.075,184.312,31.853,183.868L31.853,183.868z M31.853,190.016C31.711,189.729,32.075,190.462,31.853,190.016
		L31.853,190.016z M31.175,176.349C30.766,176.417,30.966,175.355,31.175,176.349C31.584,176.277,31.383,177.342,31.175,176.349z
		 M29.141,139.451c-0.076-0.153-0.009-0.018,0.038,0.076C29.168,139.506,29.159,139.488,29.141,139.451z M29.141,112.801
		c-0.926,0.499-0.684-1.356-1.357-1.366C27.89,109.988,29.391,111.288,29.141,112.801z M28.461,160.634
		C28.32,160.348,28.683,161.08,28.461,160.634L28.461,160.634z M27.783,105.287c-0.009,0.664-0.414,0.53-0.679,0.679
		C27.115,105.304,27.521,105.438,27.783,105.287z M27.104,160.634c0.02-0.418,0.052-0.811,0.339-0.687c-0.033-0.826,0.494-0.418,0,0
		c0,0.228,0,0.456,0,0.687c0.411-0.071,0.209,0.991,0,0C27.331,160.634,27.218,160.634,27.104,160.634
		C27.14,161.46,26.612,161.052,27.104,160.634z M26.767,166.787C26.625,166.498,26.988,167.23,26.767,166.787L26.767,166.787z
		 M25.41,112.119c0.169-0.023,0.264-0.035,0.321-0.043c-0.164,0.022-0.587,0.079-0.89,0.12c-0.024,0.003-0.041,0.005-0.062,0.008
		c-0.074,0.01-0.134,0.018-0.182,0.024c-0.02,0.002-0.04,0.005-0.052,0.007c-0.042,0.006-0.049,0.006,0,0
		c0.014-0.002,0.031-0.004,0.052-0.007c0.042-0.006,0.102-0.014,0.182-0.024c0.019-0.003,0.041-0.006,0.062-0.008
		C24.979,112.177,25.165,112.152,25.41,112.119z M28.801,174.299c-1.644-0.17-2.402,0.469-4.747-0.682
		C23.515,172.96,28.775,171.617,28.801,174.299z M26.428,185.913C22.788,188.538,23.326,184.134,26.428,185.913L26.428,185.913z
		 M24.054,182.497C24.446,179.795,24.446,185.195,24.054,182.497L24.054,182.497z M24.054,133.3c-0.01,0.667-0.416,0.53-0.679,0.684
		C23.384,133.317,23.791,133.457,24.054,133.3z M23.375,154.483C23.233,154.195,23.597,154.93,23.375,154.483L23.375,154.483z
		 M23.035,167.464c1.231,0.62,0.208,2.02,0.34,4.103c-1.029,0.251-0.703-2.23-1.018-3.419
		C22.752,168.26,22.961,167.998,23.035,167.464z M23.035,174.299C22.894,174.012,23.258,174.744,23.035,174.299L23.035,174.299z
		 M22.357,151.749C22.58,152.198,22.215,151.463,22.357,151.749L22.357,151.749z M23.035,176.349c0,0.229,0,0.456,0,0.679
		c1.285,1.171-0.735,1.128-0.678,2.056c-0.447-0.01-0.31-1.198-0.678-1.371C21.761,176.508,22.264,176.156,23.035,176.349z
		 M23.375,180.449C23.088,184.491,23.568,177.707,23.375,180.449L23.375,180.449z M19.307,188.647
		c0.008-0.664,0.414-0.532,0.678-0.685C19.975,188.627,19.569,188.493,19.307,188.647z M19.645,198.212
		C19.504,197.925,19.867,198.662,19.645,198.212L19.645,198.212z M18.289,188.647c-0.104-2.213,1.387-4.704,1.695-2.051
		c0.338,0,0.679,0,1.017,0c1.094-2.091,2.538,0.816,0,0c-0.005,0.897-0.94,0.87-1.017,0
		C18.445,185.32,19.523,189.312,18.289,188.647z M17.271,177.712c0.009-0.664,0.414-0.529,0.678-0.685
		C17.941,177.694,17.535,177.562,17.271,177.712z M17.611,183.868C17.469,183.579,17.832,184.312,17.611,183.868L17.611,183.868z
		 M19.984,178.398c-0.302-0.529-0.768-0.737-1.357-0.687C18.52,176.506,20.527,176.493,19.984,178.398z M18.967,176.349
		c0.01-0.667,0.416-0.532,0.678-0.682C19.637,176.331,19.229,176.194,18.967,176.349z M19.645,181.133
		c0.051-0.189,0.73-1.264,1.019-0.684C20.896,180.92,19.324,182.329,19.645,181.133z M19.984,183.868
		c-0.691-1.199-0.665,0.507-1.357-0.688C18.52,181.978,20.527,181.959,19.984,183.868z M18.967,181.133
		C19.377,181.064,19.176,182.124,18.967,181.133c-0.467,0.028-0.744-0.324-1.018-0.684
		C18.318,178.543,19.822,179.324,18.967,181.133z M17.949,208.463C17.915,207.634,18.442,208.042,17.949,208.463
		C17.983,209.289,17.457,208.883,17.949,208.463z M18.289,192.066C17.921,188.439,19.319,191.258,18.289,192.066
		C18.323,192.89,17.795,192.484,18.289,192.066z M18.967,195.479c-0.01,0.664-0.416,0.535-0.678,0.685
		C18.298,195.5,18.703,195.634,18.967,195.479z M21.001,173.617C20.859,173.325,21.224,174.065,21.001,173.617L21.001,173.617z
		 M21.001,179.763C21.496,177.504,21.846,182.429,21.001,179.763L21.001,179.763z M21.68,174.299
		C21.537,174.012,21.902,174.744,21.68,174.299L21.68,174.299z M21.34,142.183C21.562,142.629,21.197,141.897,21.34,142.183
		L21.34,142.183z M19.645,164.05C19.504,163.764,19.867,164.498,19.645,164.05L19.645,164.05z M21.001,166.787
		c0.063,0.58-0.132,0.641-0.338,0.677c0.054,0.801,0.618,0.577,1.017,0.684c-0.253,1.544-1.902,0.267-2.713,0.685
		C19.442,167.742,20.136,167.083,21.001,166.787z M19.307,171.566C19.164,171.277,19.528,172.015,19.307,171.566L19.307,171.566z
		 M20.663,173.617c-0.147,1.522-1.672,0.271-2.374,0.682C18.789,172.269,19.6,173.579,20.663,173.617z M17.949,161.997
		C18.172,162.448,17.807,161.716,17.949,161.997L17.949,161.997z M17.949,171.566C17.807,171.277,18.172,172.015,17.949,171.566
		L17.949,171.566z M17.271,172.248c0.273,0.132,0.338,0.685,0.678,0.685c0,0.453,0,0.909,0,1.366
		c-0.526-1.288-1.32,0.978-2.035-0.682C15.672,171.762,17.514,174.104,17.271,172.248z M14.898,172.933c0.226,0,0.451,0,0.678,0
		c0.158,1.457-0.484,1.3-1.018,1.366C14.623,173.746,14.898,173.619,14.898,172.933z M14.559,177.712
		c-0.021-1.924,1.742-1.262,1.695,0.687C15.438,178.678,15.518,177.149,14.559,177.712z M16.254,184.544
		C16.476,184.995,16.111,184.261,16.254,184.544L16.254,184.544z M16.933,211.194c0.167-2.312,1.772-1.328,1.356,1.371
		c-0.34,0-0.678,0-1.018,0C17.195,212.03,17.262,211.215,16.933,211.194C17.3,214.821,15.902,212.003,16.933,211.194z
		 M16.593,217.345C17.088,215.077,17.437,220.011,16.593,217.345L16.593,217.345z M16.933,229.646
		C16.898,228.817,17.426,229.229,16.933,229.646L16.933,229.646z M17.271,226.23C17.129,225.941,17.493,226.674,17.271,226.23
		L17.271,226.23z M16.593,222.812c0.384-0.826,0.968-1.237,0.679-3.416c-1.408,0.653-0.068-2.048,0,0
		c0.781,0.93,1.893,1.196,1.695,4.095C18.066,225.323,17.355,223.275,16.593,222.812z M18.967,226.914
		C18.825,226.623,19.189,227.36,18.967,226.914L18.967,226.914z M20.322,200.265C19.578,202.35,18.151,199.474,20.322,200.265
		L20.322,200.265z M19.645,206.412C19.84,203.67,19.359,210.452,19.645,206.412L19.645,206.412z M19.984,205.044
		c-0.734,0.116-0.154-2.42-0.34-3.416c0.926-0.494,0.683,1.358,1.356,1.365C20.963,204.283,19.881,203.468,19.984,205.044z
		 M21.34,217.345C21.562,217.794,21.197,217.062,21.34,217.345L21.34,217.345z M21.34,206.412
		C21.562,206.858,21.197,206.126,21.34,206.412L21.34,206.412z M21.34,200.265C21.562,200.713,21.197,199.978,21.34,200.265
		L21.34,200.265z M21.001,188.647c0.01-0.664,0.415-0.532,0.679-0.685C21.67,188.627,21.264,188.493,21.001,188.647z M21.68,219.396
		C21.537,219.108,21.902,219.841,21.68,219.396L21.68,219.396z M21.68,196.843c0.009-0.658,0.415-0.524,0.678-0.679
		C22.35,196.83,21.943,196.691,21.68,196.843z M22.357,190.016c-0.089-0.179,0.02,0.04,0.06,0.121
		C22.407,190.114,22.389,190.079,22.357,190.016z M23.035,183.181C23.002,182.353,23.529,182.763,23.035,183.181
		C24.143,185.637,21.231,184.142,23.035,183.181z M22.697,207.097C22.919,207.543,22.555,206.811,22.697,207.097L22.697,207.097z
		 M23.035,212.565C22.894,212.276,23.258,213.012,23.035,212.565L23.035,212.565z M23.715,194.795
		C24.124,194.729,23.923,195.789,23.715,194.795C23.305,194.866,23.506,193.802,23.715,194.795z M23.715,207.097
		C24.107,204.397,24.107,209.796,23.715,207.097L23.715,207.097z M24.054,229.646c-0.062-0.581,0.131-0.644,0.339-0.685
		c-0.221-0.697-0.779-0.707-0.678-2.048c0.957-0.57,0.878,0.961,1.695,0.682C25.115,228.595,24.902,229.758,24.054,229.646z
		 M24.054,216.661C24.275,217.112,23.91,216.377,24.054,216.661L24.054,216.661z M24.731,221.45
		c0.009-0.669,0.416-0.534,0.679-0.687C25.4,221.425,24.994,221.293,24.731,221.45z M25.41,229.646
		C25.268,229.359,25.632,230.092,25.41,229.646L25.41,229.646z M25.07,200.265C25.105,201.093,24.578,200.683,25.07,200.265
		C25.641,197.85,26.13,202.494,25.07,200.265z M25.07,191.382c-0.4-0.788-1.198-0.775-2.035-0.685
		c0.085-0.74,0.676-0.461,0.68-1.368c0.062-0.578-0.133-0.644-0.34-0.682c-0.062-0.58,0.133-0.646,0.34-0.685
		c0.226,0,0.452,0,0.678,0c-0.408,0.897-0.132,1.08,0,2.053c0.799-0.21,0.631-2.374,1.695-2.053
		C26.143,189.895,25.068,189.555,25.07,191.382z M27.104,224.18c-0.009,0.664-0.413,0.527-0.677,0.68
		C26.437,224.197,26.842,224.329,27.104,224.18z M26.767,216.661C26.988,217.112,26.625,216.377,26.767,216.661L26.767,216.661z
		 M27.104,184.544C27.328,184.995,26.963,184.261,27.104,184.544L27.104,184.544z M26.767,228.277
		C26.625,227.991,26.988,228.724,26.767,228.277L26.767,228.277z M26.767,229.646c0.009-0.664,0.414-0.535,0.677-0.685
		C27.436,229.623,27.029,229.494,26.767,229.646z M27.783,196.164C27.641,195.878,28.006,196.609,27.783,196.164L27.783,196.164z
		 M28.123,212.565C27.98,212.276,28.345,213.012,28.123,212.565L28.123,212.565z M28.123,191.382
		C27.98,191.093,28.345,191.828,28.123,191.382L28.123,191.382z M29.141,205.73c-0.089-0.179,0.02,0.04,0.06,0.121
		C29.19,205.829,29.172,205.794,29.141,205.73z M28.461,200.265C29.49,197.74,29.604,202.34,28.461,200.265L28.461,200.265z
		 M28.801,179.083c-0.642,1.437-0.541,4.372-2.034,4.098c-0.527-2.425,1.151-0.413,1.017-2.048c-0.006-0.896-0.94-0.871-1.017,0
		c-0.923-2.476,0.441-2.541,1.356-2.734c-0.092-1.408-1.502-0.164-1.356-2.05c-0.41,0.068-0.208-0.993,0,0
		c1.493-1.868,1.349,1.814,2.712,2.05c0,0.229,0,0.451,0,0.685c0.957-0.806,1.439-0.137,2.374,0.68
		c0.076,1.295-0.382,1.508-0.339,2.734c-0.934-0.624-1.866-1.252-2.035-3.414C29.254,179.083,29.027,179.083,28.801,179.083z
		 M31.514,187.284C31.371,186.995,31.735,187.728,31.514,187.284L31.514,187.284z M30.496,188.647
		C30.889,185.948,30.889,191.344,30.496,188.647L30.496,188.647z M30.556,190.818c-0.011-0.022-0.028-0.058-0.06-0.121
		C30.407,190.519,30.516,190.737,30.556,190.818z M29.817,188.647C30.039,189.096,29.676,188.361,29.817,188.647L29.817,188.647z
		 M30.157,187.284C30.015,186.995,30.379,187.728,30.157,187.284L30.157,187.284z M30.157,216.661
		c0.009-0.667,0.415-0.532,0.679-0.682C30.826,216.641,30.42,216.509,30.157,216.661z M30.496,214.61
		C30.719,215.062,30.354,214.324,30.496,214.61L30.496,214.61z M30.157,200.265c0.009-0.667,0.415-0.53,0.679-0.685
		C30.826,200.246,30.42,200.109,30.157,200.265z M30.157,194.795c0.379-1.059,1.103-1.421,1.018-3.413
		c0.64,0.073,0.235,2.258,1.017,2.053c0,0.223,0,0.448,0,0.679c0.434-0.035,0.471-0.877,1.019-0.679
		c0.042,1.222-0.338,1.592-1.019,1.36c0-0.228,0-0.456,0-0.682c-0.225,0-0.452,0-0.678,0
		C31.615,196.904,31.044,193.997,30.157,194.795z M32.191,196.843C31.781,196.916,31.982,195.854,32.191,196.843
		C33.6,196.194,32.261,198.894,32.191,196.843z M31.853,200.948C31.711,200.659,32.075,201.395,31.853,200.948L31.853,200.948z
		 M31.175,212.565c0.136,0.272,0.052,0.104-0.001-0.002C31.174,212.564,31.174,212.564,31.175,212.565z M31.175,224.18
		c0.288,0.127,0.319-0.269,0.339-0.689c0.417,0.305,0.696,0.877,0.678,2.056c-0.301-0.421-0.606-0.826-0.678,0
		C31.184,225.523,31.251,224.71,31.175,224.18z M31.514,226.914c0.414-2.07,1.293,0.477,1.696,0.682
		C32.699,229.854,32.381,226.177,31.514,226.914z M33.21,216.661C32.182,219.189,32.066,214.59,33.21,216.661L33.21,216.661z
		 M32.87,211.194C33.263,208.498,33.263,213.894,32.87,211.194L32.87,211.194z M33.21,209.145
		C32.799,209.213,33.001,208.15,33.21,209.145C33.619,209.076,33.418,210.141,33.21,209.145z M33.21,205.73
		C33.432,206.177,33.066,205.444,33.21,205.73L33.21,205.73z M34.564,211.881C34.424,211.59,34.788,212.327,34.564,211.881
		L34.564,211.881z M33.21,202.993c0.03-1.583,1.563-2.866-0.34-2.729c-0.776-0.53,1.057-1.435,1.694-1.366
		c0.098,1.191-1.083,3.664,0.34,3.413C34.49,203.287,33.61,203.865,33.21,202.993z M34.564,195.479c0.408,0.897,0.134,1.074,0,2.05
		c-1.096,0.847-0.259-2.212-1.354-1.365c0.009-0.664,0.415-0.53,0.678-0.685c0.062-0.58-0.133-0.644-0.339-0.685
		c-0.059-1.479,1.202-0.307,1.695-0.682C35.368,195.274,34.98,195.401,34.564,195.479z M35.582,204.364
		C35.439,204.076,35.805,204.809,35.582,204.364L35.582,204.364z M36.938,184.544C36.194,186.633,34.768,183.759,36.938,184.544
		L36.938,184.544z M36.6,200.265C36.458,199.978,36.822,200.713,36.6,200.265L36.6,200.265z M36.6,192.066
		c-0.008,0.661-0.414,0.529-0.678,0.679C35.932,192.081,36.338,192.218,36.6,192.066z M36.261,198.212
		C36.482,198.662,36.118,197.925,36.261,198.212L36.261,198.212z M36.6,207.097C36.458,206.811,36.822,207.543,36.6,207.097
		L36.6,207.097z M36.261,203.681c0.011-0.664,0.415-0.53,0.678-0.688C36.93,203.663,36.523,203.525,36.261,203.681z M36.938,197.529
		C37.16,197.979,36.797,197.243,36.938,197.529L36.938,197.529z M36.938,172.248C37.434,169.982,37.783,174.912,36.938,172.248
		L36.938,172.248z M37.617,199.58c-0.089-0.179,0.02,0.04,0.06,0.121C37.667,199.679,37.649,199.644,37.617,199.58z M39.312,192.066
		C38.568,194.149,37.141,191.272,39.312,192.066L39.312,192.066z M38.295,163.365C38.518,163.814,38.152,163.082,38.295,163.365
		L38.295,163.365z M39.652,190.016C39.874,190.462,39.51,189.729,39.652,190.016L39.652,190.016z M39.652,183.868
		C39.51,183.579,39.874,184.312,39.652,183.868L39.652,183.868z M37.957,162.679c-1.113-2.156-2.322-0.694-4.069-0.682
		c0.009-0.661,0.415-0.527,0.677-0.679c-0.055-0.801-0.617-0.575-1.016-0.685c0.47-1.562,2.359-0.256,3.39-0.687
		c-0.107-1.604-0.536-2.562-0.339-4.781c0.33,0.02,0.263,0.838,0.339,1.365c1.201,0.826,0.844,4.797,3.052,2.736
		C40.11,162.013,37.328,158.91,37.957,162.679z M39.99,148.333C39.85,148.047,40.213,148.782,39.99,148.333L39.99,148.333z
		 M40.33,125.102C39.92,125.173,40.121,124.108,40.33,125.102C40.74,125.028,40.538,126.092,40.33,125.102z M39.652,60.87
		c-0.158-1.457,0.484-1.301,1.017-1.368C40.521,60.344,40.234,60.904,39.652,60.87z M41.008,112.119
		c0.167,0.334,0.003,0.007-0.029-0.058C40.984,112.071,40.992,112.087,41.008,112.119z M41.008,146.283c0.227,0,0.452,0,0.679,0
		c0,0.456,0,0.912,0,1.368c-0.227,0-0.452,0-0.679,0C41.008,147.195,41.008,146.739,41.008,146.283z M41.687,160.634
		c0.417,0.297,0.696,0.877,0.679,2.045C41.947,162.385,41.668,161.81,41.687,160.634z M42.025,153.118
		c0.709-0.289,0.897,0.467,1.356,0.68C43.041,155.22,41.883,155.673,42.025,153.118z M43.382,164.05
		C43.416,164.876,42.889,164.474,43.382,164.05C43.348,163.224,43.875,163.627,43.382,164.05z M43.721,144.917
		C44.857,143.265,42.9,147.208,43.721,144.917L43.721,144.917z M44.06,126.468c-0.708,0.289-0.897-0.472-1.356-0.682
		C42.596,124.58,44.604,124.562,44.06,126.468z M44.06,34.224c0.489,0.154,0.118,2.04,0.679,2.05
		C44.355,38.469,43.77,35.613,44.06,34.224z M45.077,38.322c-0.01,0.664-0.415,0.532-0.679,0.687
		C44.408,38.345,44.814,38.477,45.077,38.322z M44.798,41.177c-0.011-0.022-0.028-0.057-0.06-0.121
		C44.649,40.877,44.758,41.096,44.798,41.177z M45.077,44.473C46.244,46.237,43.333,46.124,45.077,44.473L45.077,44.473z
		 M45.077,47.206C44.936,46.918,45.299,47.652,45.077,47.206L45.077,47.206z M44.738,71.802
		C44.961,72.253,44.596,71.515,44.738,71.802L44.738,71.802z M44.707,60.506c-0.04,0.398-0.07,0.704-0.093,0.932
		C44.642,61.157,44.676,60.816,44.707,60.506c0.01-0.102,0.02-0.207,0.032-0.322c0.013-0.131,0.022-0.227,0.03-0.303
		C44.753,60.031,44.731,60.26,44.707,60.506z M44.602,61.564c-0.016,0.161-0.027,0.268-0.034,0.337
		C44.576,61.825,44.587,61.707,44.602,61.564z M45.416,125.102C42.723,125.462,47.077,124.879,45.416,125.102L45.416,125.102z
		 M45.794,135.427c-0.011-0.021-0.02-0.039-0.038-0.076C45.68,135.197,45.747,135.333,45.794,135.427z M45.077,145.599
		c0.009-0.664,0.415-0.524,0.679-0.682C45.746,145.581,45.34,145.446,45.077,145.599z M45.756,140.815
		C45.979,141.268,45.613,140.527,45.756,140.815L45.756,140.815z M45.756,81.371C45.613,81.082,45.979,81.817,45.756,81.371
		L45.756,81.371z M45.756,61.557C45.613,61.267,45.979,62.002,45.756,61.557L45.756,61.557z M46.096,49.94c-0.228,0-0.453,0-0.68,0
		c0-0.458,0-0.912,0-1.37c0.227,0,0.452,0,0.68,0C46.096,49.028,46.096,49.482,46.096,49.94z M46.096,47.206
		c0.843-2.135,0.805,1.399,1.016,1.365C46.533,51.16,46.554,47.089,46.096,47.206z M46.434,125.786
		C46.292,125.496,46.656,126.232,46.434,125.786L46.434,125.786z M46.434,71.802c0.055-0.798,0.618-0.575,1.018-0.683
		C47.396,71.922,46.833,71.698,46.434,71.802z M47.789,71.802c0.01-0.666,0.416-0.526,0.679-0.683
		C48.459,71.787,48.053,71.652,47.789,71.802z M47.451,47.889c0.01-0.663,0.414-0.53,0.678-0.683
		C48.12,47.871,47.714,47.735,47.451,47.889z M50.842,69.754c-0.041,2.528-0.493,1.718-1.355,1.365
		C49.709,70.204,50.211,69.848,50.842,69.754z M50.503,42.42C50.896,39.725,50.896,45.125,50.503,42.42L50.503,42.42z
		 M49.824,112.119C50.046,112.565,49.682,111.834,49.824,112.119L49.824,112.119z M49.824,88.203c0.065-0.555,0.34-0.679,0.34-1.368
		c0.226,0,0.452,0,0.678,0C51,88.294,50.357,88.137,49.824,88.203z M51.52,77.272C51.378,76.984,51.742,77.719,51.52,77.272
		L51.52,77.272z M51.52,52.669C51.742,53.117,51.378,52.39,51.52,52.669L51.52,52.669z M50.842,36.953
		c-2.223-0.22-3.03,0.61-4.746,0c-0.84,0.09-0.578-0.835,0-0.679c2.821,0.22,5.381-0.089,7.12-2.05
		c0.041,1.968,1.858,0.35,1.695,2.729c-1.303-1.534-1.315,0.726-2.374,1.369C51.455,38.905,51.488,37.248,50.842,36.953z
		 M54.232,38.322C54.091,38.033,54.455,38.771,54.232,38.322L54.232,38.322z M53.895,55.403
		C54.287,52.706,54.287,58.102,53.895,55.403L53.895,55.403z M51.859,45.157C51.717,44.865,52.081,45.6,51.859,45.157L51.859,45.157
		z M52.199,91.617C53.336,89.967,51.379,93.91,52.199,91.617L52.199,91.617z M52.199,89.569
		C52.232,90.396,51.705,89.99,52.199,89.569C52.266,87.524,53.606,90.221,52.199,89.569z M53.216,89.569
		C53.438,90.015,53.072,89.283,53.216,89.569L53.216,89.569z M52.877,70.437c-1.08,1.821-1.148-1.748-0.678-3.416
		C52.902,67.197,52.291,70.025,52.877,70.437C55.048,69.647,53.621,72.524,52.877,70.437z M53.895,97.086
		C54.116,97.533,53.752,96.799,53.895,97.086L53.895,97.086z M54.232,90.938C54.091,90.646,54.455,91.381,54.232,90.938
		L54.232,90.938z M53.555,88.203c0.055-0.801,0.618-0.579,1.018-0.682C54.517,88.32,53.954,88.097,53.555,88.203z M53.555,82.053
		c0-0.451,0-0.91,0-1.367c0.682-0.229,1.061,0.138,1.018,1.367C54.232,82.053,53.895,82.053,53.555,82.053z M54.911,76.586
		C55.105,73.844,54.625,80.628,54.911,76.586L54.911,76.586z M54.911,74.536C55.133,74.985,54.77,74.252,54.911,74.536
		L54.911,74.536z M55.25,80.686C55.66,80.616,55.459,81.678,55.25,80.686C54.234,80.55,55.574,77.849,55.25,80.686z M55.25,88.203
		c-0.016-0.031-0.022-0.046-0.027-0.056c0.007,0.015,0.021,0.042,0.035,0.071c0.117,0.236,0.051,0.104,0,0
		C55.255,88.212,55.253,88.21,55.25,88.203z M55.589,89.569C56.727,87.917,54.77,91.86,55.589,89.569L55.589,89.569z M55.928,86.835
		c-1.456,0.237-0.916-2.486-0.678-4.098C55.731,83.766,56.506,85.682,55.928,86.835z M54.572,71.802
		C56.456,68.469,58.096,71.772,54.572,71.802L54.572,71.802z M56.607,86.835C56.828,87.282,56.464,86.548,56.607,86.835
		L56.607,86.835z M56.945,50.622C56.804,50.332,57.168,51.068,56.945,50.622L56.945,50.622z M56.607,14.405
		c0.008-0.663,0.414-0.526,0.678-0.683C57.275,14.389,56.869,14.255,56.607,14.405z M58.98,29.439c0,1.138,0,2.277,0,3.418
		C56.516,33.537,56.742,30.208,58.98,29.439z M57.963,38.322C58.457,36.059,58.807,40.987,57.963,38.322L57.963,38.322z
		 M57.285,36.274C57.508,36.724,57.143,35.988,57.285,36.274L57.285,36.274z M57.624,105.966
		C57.846,106.415,57.481,105.682,57.624,105.966L57.624,105.966z M57.624,84.787C58.017,82.084,58.017,87.486,57.624,84.787
		L57.624,84.787z M57.963,90.252C57.821,89.962,58.186,90.702,57.963,90.252L57.963,90.252z M58.643,85.466
		C58.863,85.917,58.499,85.18,58.643,85.466L58.643,85.466z M58.302,64.969C59.146,62.306,58.797,67.237,58.302,64.969
		L58.302,64.969z M58.98,84.105C58.838,83.816,59.202,84.551,58.98,84.105L58.98,84.105z M58.98,82.053
		C59.373,79.354,59.373,84.754,58.98,82.053L58.98,82.053z M59.32,39.009C59.178,38.718,59.541,39.455,59.32,39.009L59.32,39.009z
		 M60.337,64.29c-0.055,0.796-0.619,0.573-1.017,0.679C59.374,64.17,59.938,64.393,60.337,64.29z M59.658,90.938
		C59.517,90.646,59.881,91.381,59.658,90.938L59.658,90.938z M59.998,114.167C60.22,114.614,59.855,113.88,59.998,114.167
		L59.998,114.167z M59.998,105.966C60.22,106.415,59.855,105.682,59.998,105.966L59.998,105.966z M60.337,111.435
		C60.195,111.146,60.559,111.881,60.337,111.435L60.337,111.435z M59.998,86.835c0.01-0.664,0.415-0.532,0.678-0.682
		C60.666,86.817,60.261,86.683,59.998,86.835z M60.676,96.401C60.898,96.852,60.533,96.115,60.676,96.401L60.676,96.401z
		 M60.676,90.938C60.533,90.646,60.898,91.381,60.676,90.938L60.676,90.938z M59.658,84.105c0.223-2.05,0.725,0.652,1.355,0
		C60.963,85.803,59.867,84.306,59.658,84.105z M61.014,105.966c0.052-0.183,0.73-1.257,1.019-0.679
		C62.267,105.755,60.693,107.169,61.014,105.966z M62.711,67.021C64.119,66.368,62.779,69.065,62.711,67.021
		C61.303,67.673,62.642,64.975,62.711,67.021z M64.745,75.905c0,0.682,0,1.367,0,2.05c-0.481-0.06-0.96-0.112-1.019,0.687
		C62.709,77.618,63.977,75.571,64.745,75.905z M64.406,69.07C64.899,66.804,65.25,71.736,64.406,69.07L64.406,69.07z M62.711,86.153
		C63.555,83.487,63.205,88.417,62.711,86.153L62.711,86.153z M62.711,104.603c0.707-0.292,0.897,0.469,1.355,0.684
		C64.175,106.49,62.166,106.505,62.711,104.603z M63.727,119.633c0.01-0.664,0.416-0.527,0.68-0.679
		C64.396,119.615,63.99,119.481,63.727,119.633z M64.406,157.218C64.628,157.664,64.264,156.932,64.406,157.218L64.406,157.218z
		 M64.745,170.2C64.604,169.912,64.967,170.646,64.745,170.2L64.745,170.2z M64.406,92.304c0.009-0.667,0.414-0.532,0.678-0.687
		C65.074,92.283,64.669,92.149,64.406,92.304z M65.084,160.634c0.01-0.667,0.415-0.532,0.679-0.687
		C65.752,160.613,65.346,160.481,65.084,160.634z M65.084,84.105C65.928,81.438,65.578,86.366,65.084,84.105L65.084,84.105z
		 M65.763,41.056c-0.253,1.539-1.901,0.266-2.714,0.682c0.932-2.037,1.566-0.446,2.714-2.047
		C65.555,40.297,65.354,40.912,65.763,41.056z M66.102,177.027C66.323,177.479,65.959,176.744,66.102,177.027L66.102,177.027z
		 M66.102,171.566c0.064-0.555,0.34-0.685,0.34-1.366c0.225,0,0.451,0,0.678,0C67.277,171.658,66.635,171.501,66.102,171.566z
		 M67.119,177.027C68.146,174.506,68.262,179.111,67.119,177.027L67.119,177.027z M67.797,161.318
		C67.655,161.029,68.02,161.762,67.797,161.318L67.797,161.318z M68.135,178.398C67.994,178.11,68.358,178.848,68.135,178.398
		L68.135,178.398z M67.797,154.483c0.05-0.188,0.729-1.262,1.019-0.686C69.049,154.271,67.477,155.683,67.797,154.483z
		 M68.475,184.544C68.697,184.995,68.333,184.261,68.475,184.544L68.475,184.544z M68.815,185.913
		C69.037,186.361,68.672,185.627,68.815,185.913L68.815,185.913z M69.492,195.479C69.714,195.926,69.35,195.195,69.492,195.479
		L69.492,195.479z M70.17,185.913c-0.226,0-0.452,0-0.678,0c0.756-2.058,0.62-2.826,0-4.78c1.889,0.389,3.887-0.309,3.052-3.421
		c1.082-0.583,1.048,1.077,1.696,1.371c-0.139,0.856-0.438,1.396-1.018,1.366c0.047,1.125,2.327,1.125,2.373,0
		c-0.409,0.068-0.207-0.993,0,0c1.271,0.534-0.892,4.232,0.678,3.419c-0.188,0.98-0.527,1.662-1.018,2.045
		c-1.08,0.831,0.228,2.572-1.355,2.734c0-0.685,0-1.363,0-2.051c-0.746,0.497-1.127,3.209-2.034,1.366
		c-0.019,0.416-0.05,0.812-0.339,0.685c0.033,0.823-0.494,0.418,0,0c0.02-0.418,0.051-0.809,0.339-0.685
		c-0.076-0.532-0.009-1.351-0.339-1.366c0.033,0.832-0.494,0.419,0,0c0-0.684,0-1.365,0-2.053c0.448,0.013,0.31,1.201,0.678,1.369
		c1.321-2.955-2.361-4.442-1.695,0.684C70.303,186.562,70.108,186.496,70.17,185.913z M75.936,203.681
		C76.156,204.126,75.793,203.395,75.936,203.681L75.936,203.681z M75.596,200.948C75.453,200.659,75.818,201.395,75.596,200.948
		L75.596,200.948z M74.918,200.265c-0.15,0.99-0.299-0.071-0.678,0C74.323,199.405,74.914,199.57,74.918,200.265z M71.188,200.265
		c-0.264,0.151-0.394,0.572-0.339,1.363c-1.517-1.533,0.476-5.479-0.679-6.148c0.305-1.437,0.528-3.036,1.018-4.098
		c0.381,0.142,0.529,0.758,0.679,1.363c0.413,0.078,0.803,0.205,0.678,1.368c0.828,0.68,0.724,0.226,2.034,0.682
		c-0.922,1.954-1.904,0.624-3.391,0.685c0.302,1.67,0.791,2.965,0.679,5.469C71.604,200.797,71.197,200.928,71.188,200.265z
		 M73.223,207.097C73.444,207.543,73.08,206.811,73.223,207.097L73.223,207.097z M72.205,198.212c0.562,0.694,0.368,2.904,0.679,4.1
		C71.658,202.961,72.41,199.62,72.205,198.212z M72.205,205.044C72.428,205.495,72.062,204.758,72.205,205.044L72.205,205.044z
		 M71.866,218.029c-0.245-3.713-0.778-6.941-0.339-13.665c0.73-2.506-0.127,3.819,0.678,3.414c0.096-2.688,1.494,0.129,0,0
		c0.014,0.942-0.159,1.503-0.339,2.05c1.534,2.947,2.571-9.138,3.729-2.731c-0.451,0-0.904,0-1.355,0
		c-0.484,3.023,1.146,1.786,1.016,4.098c-1.402-1.729-1.209,1.53-3.051,0.687C71.725,212.011,72.742,216.925,71.866,218.029
		C72.275,217.961,72.074,219.021,71.866,218.029z M73.562,226.23C73.955,223.528,73.955,228.929,73.562,226.23L73.562,226.23z
		 M74.578,228.277C74.168,228.346,74.37,227.284,74.578,228.277L74.578,228.277z M75.256,214.61c0,1.138,0,2.281,0,3.419
		c-0.564,0-1.129,0-1.693,0c0.332-0.925,1.143-0.887,1.355-2.05c-0.051-1.263-1.148-0.421-1.355-1.369c0,0.375-0.275,0.775-0.34,0
		c-0.113,0-0.227,0-0.339,0c0.034,0.829-0.494,0.421,0,0c-0.002-0.375,0.274-0.772,0.339,0c0.113,0,0.227,0,0.34,0
		c0-0.453,0-0.909,0-1.368C74.844,212.256,74.213,215.122,75.256,214.61C75.223,213.787,75.75,214.195,75.256,214.61z
		 M75.596,226.914c0.289-2.01,0.854,0.885,1.696,0C77.024,229.312,76.105,227.702,75.596,226.914z M78.309,231.694
		C78.53,232.145,78.166,231.407,78.309,231.694L78.309,231.694z M80.005,220.764c-0.688,2.356-0.448,3.023-0.339,6.15
		c-1.098,0.839-0.26-2.217-1.357-1.368c0.03-1.077,0.865-0.532,0.679-2.056c-0.139-1.16-0.438,0.145-1.018,0
		c-0.076-0.529-0.009-1.346-0.339-1.363c0.566-0.644,1.187-2.526-0.339-2.05c1.459-0.938,0.638-3.373,1.695-4.098
		c-0.341-0.91-0.321-2.545-1.018-2.737c1.652-2.501,0.563-4.336,1.018-9.562C80.909,208.901,78.338,218.929,80.005,220.764
		C79.97,219.938,80.496,220.341,80.005,220.764z M79.666,202.993c-0.34,0-0.679,0-1.018,0c0-0.453,0-0.909,0-1.365
		C79.328,201.397,79.709,201.767,79.666,202.993z M78.987,198.898C78.845,198.609,79.209,199.345,78.987,198.898L78.987,198.898z
		 M80.005,209.828c0.263,0.155,0.668,0.018,0.677,0.688C80.42,210.355,80.014,210.495,80.005,209.828z M80.682,215.297
		C80.54,215.011,80.904,215.743,80.682,215.297L80.682,215.297z M80.344,218.029c0.05-0.19,0.729-1.265,1.017-0.685
		C81.595,217.819,80.023,219.228,80.344,218.029z M81.36,195.479c-0.875,0.55-3.284,1.533-4.068,0c-0.411,0.068-0.209-0.991,0,0
		c1.26,0.261,0.886-2.768,2.374-2.045c-0.082,0.971-0.559,1.147-0.679,2.045c1.509,1.044,1.364-2.727,2.373-0.685
		C81.36,195.026,81.36,195.252,81.36,195.479C81.771,195.411,81.57,196.476,81.36,195.479z M80.682,183.868
		c-0.053-1.39,2.126-3.543,0.34-4.105c-0.16-2.142,0.912-1.805,1.018-3.414c-1.139-0.626-0.168-1.27-0.34-3.416
		c0.113,0,0.227,0,0.34,0c0.275-2.362-0.633-2.89,0-4.101c0.887-0.19,1.459,0.254,1.355,2.05c-1.325-1.079-0.702,1.774-1.355,2.051
		c0,1.135,0,2.278,0,3.416c0.584,2.402,0.448,7.78,0.339,9.564c-0.735,0.116-0.153-2.426-0.339-3.416
		C80.941,181.652,81.779,184.707,80.682,183.868z M82.039,196.843C82.262,197.294,81.896,196.56,82.039,196.843L82.039,196.843z
		 M82.039,200.265C81.533,205.358,82.279,197.836,82.039,200.265L82.039,200.265z M82.039,187.284
		C83.232,191.635,81.211,191.417,82.039,187.284L82.039,187.284z M82.039,193.435C83.594,193.883,81.767,197.565,82.039,193.435
		L82.039,193.435z M82.039,203.681c0.113,0,0.225,0,0.339,0c-0.034-0.826,0.493-0.418,0,0c0.832,0.907-0.611,2.062,0.34,2.731
		c-0.035-0.826,0.492-0.418,0,0c0,0.229,0,0.456,0,0.685c0.409-0.071,0.208,0.993,0,0c-0.114,0-0.227,0-0.34,0
		c-0.226,0-0.452,0-0.679,0C81.984,206.304,82.146,205.265,82.039,203.681z M82.378,209.828c-1.3,0.125-0.122-0.56-0.339-2.05
		C82.434,207.893,82.407,208.86,82.378,209.828C83.713,210.023,82.314,212.839,82.378,209.828z M83.734,221.45
		C84.145,221.372,83.942,222.441,83.734,221.45L83.734,221.45z M83.395,215.297c-0.111,0-0.225,0-0.338,0
		c-0.535-2.298,1.408-2.979,1.355-2.055C84.547,214.887,82.867,212.869,83.395,215.297z M84.752,220.077
		c0.244-2.089-0.348-2.489-0.34-4.098C85.877,212.421,85.215,218.214,84.752,220.077z M84.752,224.859
		c-0.042-1.708-0.646-2.137,0.338-2.732C84.933,223.435,86.137,225.069,84.752,224.859z M85.09,213.924
		c0.01-0.659,0.416-0.524,0.68-0.682C85.76,213.911,85.354,213.779,85.09,213.924z M86.786,227.596
		C86.645,227.307,87.008,228.039,86.786,227.596L86.786,227.596z M85.77,215.979c0.513-2.474,0.67-2.134,1.695-4.099
		c-0.41,0.066-0.209-0.996,0,0c0.459,0.213,0.647,0.971,1.355,0.685c-0.092,1.406-1.263,0.642-1.355,2.045
		c0.409-0.07,0.209,0.996,0,0C86.419,214.099,87.051,216.968,85.77,215.979z M88.143,231.694c-0.443-0.008-0.432-1.896,0-2.048
		C88.143,230.325,88.143,231.012,88.143,231.694z M88.143,228.277C87.732,228.346,87.934,227.284,88.143,228.277
		C88.553,228.207,88.351,229.271,88.143,228.277z M88.481,221.45c-0.226,0-0.452,0-0.679,0c0-0.456,0-0.917,0-1.373
		c-0.409,0.07-0.208-0.991,0,0C88.217,220.155,88.607,220.285,88.481,221.45z M90.178,223.49c0-0.223,0-0.451,0-0.679
		c-0.342-0.008-0.427-1.196,0-1.361c0.859-1.675-0.715-1.462-0.339-4.105c-0.61-0.091-0.794,0.68-0.68,2.051
		c-1.208-1.308-0.353-2.899,0.339-4.785c0.654,0.279,0.03,3.13,1.357,2.051c-0.892,0.907-0.85,2.646,0.678,2.05
		c-0.146,1.525-0.6,2.438-1.355,2.739c0,0.449,0,0.905,0,1.361c0.467-0.03,0.744,0.324,1.018,0.679
		C91.105,224.558,90.451,223.967,90.178,223.49z M92.891,231.694C91.4,234.203,91.602,229.804,92.891,231.694L92.891,231.694z
		 M92.213,229.646c-0.229,0-0.453,0-0.68,0c-0.02,0.413-0.051,0.811-0.338,0.679c0.324,2.841-1.016,0.14,0,0
		c0.02-0.415,0.05-0.803,0.338-0.679c-0.139-0.862-0.437-1.401-1.017-1.369c1.05-2.344,1.296-0.022,2.713,0
		C93.141,229.238,92.485,229.056,92.213,229.646z M92.551,224.18c-0.057-1.485,1.203-0.312,1.695-0.689
		C94.303,224.979,93.043,223.803,92.551,224.18z M94.246,221.45c0.01-0.669,0.415-0.534,0.678-0.687
		C94.916,221.425,94.51,221.293,94.246,221.45z M94.924,227.596c0.051-0.189,0.73-1.262,1.018-0.682
		C96.176,227.386,94.604,228.795,94.924,227.596z M95.604,231.012C96.446,228.346,96.098,233.272,95.604,231.012L95.604,231.012z
		 M95.941,228.962c0.01-0.666,0.416-0.532,0.678-0.685C96.61,228.941,96.205,228.808,95.941,228.962z M96.619,223.49
		C96.843,223.944,96.479,223.209,96.619,223.49L96.619,223.49z M96.959,220.077C97.182,220.528,96.816,219.791,96.959,220.077
		L96.959,220.077z M97.637,220.764c-0.008,0.661-0.414,0.529-0.678,0.687C96.969,220.781,97.375,220.916,97.637,220.764z
		 M97.977,228.277C98.198,228.724,97.834,227.991,97.977,228.277L97.977,228.277z M97.977,226.23
		c-0.265-0.152-0.395-0.576-0.34-1.371c-0.409,0.073-0.207-0.991,0,0c0.34,0,0.68,0,1.018,0
		C98.651,225.762,98.061,225.485,97.977,226.23z M98.994,220.077C99.217,220.528,98.852,219.791,98.994,220.077L98.994,220.077z
		 M99.672,219.396C99.529,219.108,99.895,219.841,99.672,219.396L99.672,219.396z M101.707,222.127
		C102.1,219.428,102.1,224.826,101.707,222.127L101.707,222.127z M101.707,218.029C101.564,217.74,101.93,218.476,101.707,218.029
		L101.707,218.029z M101.707,226.23c-0.303,0.301-0.607,0.601-0.68,1.365c-0.395-0.116-0.367-1.082-0.338-2.05
		C101.088,225.652,101.652,225.43,101.707,226.23z M101.027,216.661C100.887,216.377,101.251,217.112,101.027,216.661
		L101.027,216.661z M100.689,223.49C100.912,223.944,100.547,223.209,100.689,223.49L100.689,223.49z M100.012,213.242
		C100.232,213.695,99.868,212.963,100.012,213.242L100.012,213.242z M100.689,215.979c-0.18,0.55-0.354,1.109-0.339,2.05
		c-0.565,0-1.132,0-1.696,0c0.564-1.358-0.029-0.869,0-2.732C99.58,217.011,99.519,217.632,100.689,215.979z M99.732,209.949
		c-0.012-0.022-0.029-0.058-0.061-0.121C99.583,209.649,99.692,209.868,99.732,209.949z"/>
	<path fill="#939598" d="M34.904,38.322C35.127,38.771,34.763,38.033,34.904,38.322L34.904,38.322z"/>
	<path fill="#939598" d="M34.904,35.587c0.466-0.567,0.434-1.28,0.293-2.094l-0.314,2.074
		C34.891,35.572,34.896,35.583,34.904,35.587z"/>
	<path fill="#939598" d="M22.019,122.365c-0.076-0.196-0.142-0.396-0.203-0.598l-0.161,1.061
		C21.819,122.76,21.958,122.642,22.019,122.365z"/>
	<path fill="#939598" d="M33.21,47.206C33.066,46.918,33.432,47.652,33.21,47.206L33.21,47.206z"/>
	<path fill="#939598" d="M22.3,118.571c0.034-0.084,0.058-0.191,0.057-0.301c-0.004,0-0.008,0-0.012,0L22.3,118.571z"/>
	<path fill="#939598" d="M33.888,50.622C34.109,51.068,33.745,50.332,33.888,50.622L33.888,50.622z"/>
	<path fill="#939598" d="M35.599,30.846c0.243-0.249,0.251-1.465,0.365-2.409L35.599,30.846z"/>
	<path fill="#939598" d="M34.564,49.254C34.788,49.703,34.424,48.971,34.564,49.254L34.564,49.254z"/>
	<path fill="#939598" d="M33.888,48.57C34.28,51.272,34.28,45.87,33.888,48.57L33.888,48.57z"/>
	<path fill="#939598" d="M35.582,32.172c-0.045-0.216-0.089-0.322-0.127-0.376l-0.045,0.3C35.447,32.148,35.5,32.186,35.582,32.172z
		"/>
	<path fill="#939598" d="M35.582,32.172C35.791,33.167,35.991,32.103,35.582,32.172L35.582,32.172z"/>
</g>
</svg>
