<svg xmlns="http://www.w3.org/2000/svg" width="110.5" height="237.5" viewBox="0 0 110.5 237.5"><g fill="#939598"><path d="M31.514 194.113c-.21-.993-.41.072 0 0zM71.188 181.817c-.264.15-.67.016-.678.68.262-.152.668-.018.678-.68zM70.85 198.212c-.288 4.042.193-2.737 0 0zM95.264 202.993c-.143-.286.222.454 0 0zM87.125 166.787c.223.443-.143-.29 0 0zM71.866 192.745h-.34c.066.778.34.38.34 0zM36.3 26.215l-.278 1.84c.055-.3.128-.542.24-.664.05-.316.052-.728.04-1.175zM71.565 182.573l-.038-.076c.02.037.028.055.038.076zM78.648 219.396c.223.445-.142-.288 0 0zM75.256 185.913c-.207-.994-.408.068 0 0zM72.544 194.113c-.493.42.034.826 0 0zM72.544 181.133c.222.446-.142-.288 0 0zM73.562 183.868c-.264.15-.67.013-.68.676.264-.15.67-.013.68-.676zM72.884 182.497c-.005-.685-.595-.86-.68 0 .382-.068.53.99.68 0zM23.035 177.027h-.338c.064.78.34.386.338 0zM99.44 203.62l-.236-1.445c-.454.575-.708 1.153.236 1.444zM48.55 2.414h-.396c.06.502.196.29.396 0z"/><path d="M97.637 204.364c.64-2.356.64-1.748 0-4.1.564.312.85 1.188 1.48 1.37l-.827-5.04c-.203.11-.428.182-.653.248v2.056c-.943.307.266-3.726-.678-3.42.217-1.366.545-1.107.99-.97l-12.29-75.027c-.395-.01-.885-.395-1.587.152-.342-2.055.755-1.208 1.356-1.363 0-.082-.006-.152-.007-.23l-.537-3.275c-.632-1.75-1.654-2.712-2.17-4.695.458.212.648.97 1.356.68.024-1.516-.355-1.487-.196-2.15l-.095-.58H81.7c.423-.872 1.133-1.112 1.9-1.107l-5.87-35.837c-.033.012-.067.025-.1.043.003-.14.025-.237.057-.315L75.6 58.075c-.302.1-.475.458-.346 1.427-2.958-1.672-1.657-2.286.205-2.287l-2.12-12.93c-.118-.186-.213-.564-.138-.846l-.215-1.313c-.395-.316-.974-.26-.784-1.755.2-.034.368-.002.51.082l-.233-1.426c-3.767 1.2-.9-2.406-.103-.627l-.214-1.3c-.188.032-.398-.003-.638-.145-.028-.903.125-1.442.296-1.946l-1.242-7.592c-.025-.01-.044-.013-.07-.025-.068 2.045-1.408-.653 0 0 .004-.104.012-.188.02-.268L68.412 14.19c-.035.42-.128.557-.277-.466.04-.276.076-.45.107-.574L66.484 2.414h-6.95c-.313.78-.828 1.15-1.57 1.06-.007-.42.028-.758.08-1.06H56.04c.257.675.695.978 1.245 1.06-.493 2.022-1.324-.9-2.374 0 .01-.666.416-.53.68-.685.004-.14 0-.26-.005-.376H53.42c-.422.81-.96.402-1.01 0h-1.29c-.06.148-.157.198-.222 0h-.76c-.06.253-.213.186-.177 0h-.6c-.31.78-.827 1.15-1.57 1.06.005-.435-.04-.77-.105-1.06h-.626c-.118.31-.416.254-.626.375.002-.175.034-.293.082-.376h-3.6c.02.15-.026.312-.212.375.034.83-.492.422 0 0v-.376h-1.36c-.033 2.018-.858.673-.47 0h-.964L37.356 19.26c.457-.086 1.088-.522.94.613.028 1.332-.695 1.742-1.294 1.723l-.15.992c.03.008.055.008.088.022.272 2.367-.505 2.623-.34 4.78h-.338c.58 3.636-.577 7.43.34 8.198-.347.9-.333 2.52-.68 3.42-.66.183-1.125-.035-1.492-.445l-.68 4.49c.324-.6.662-.947 1.155.052-.062-3.007 1.335-.19 0 0 .076.532.01 1.348.34 1.37-.035-.827.492-.42 0 0v2.05c-.635.036-.72-.527-.34-1.367-2.21 2.038 2.13 5.105 1.356-.684 1.287.56.522 4.515-.678 4.098.29 2.008 1.093-.405 1.696 0-.487 2.774-4.402.357-3.053 4.782-1.08.588-1.048-1.072-1.694-1.365.14-.86.437-1.394 1.02-1.367-.237-.408-.54-.58-.854-.63l-8.438 55.664c.01.058 0 .11-.024.16l-.852 5.62h.333v1.365h-.54l-.823 5.427c0 .014.004.026.005.04.207.037.4.1.34.685.62-4.62.715-.342 1.356 2.046-.642.154-.75-.768-1.356-.685.543 1.924-.57 2.913 1.018 2.734-.535 1.927-1.198.93-2.195.67l-7.19 47.427c.168.122.356.253.57.42-.21 1.262-.472 1.326-.783.988l-.727 4.794c.846.567 1.723 1.757 2.524 2.413-.545 1.858-1.533.163-2.76-.86l-.733 4.84c-.033 2.228 1.014 2.28 1.46 3.542-.455.345-1.2.516-2.09.615l-.705 4.653c.135.08.276.154.42.192.028.69-.23.802-.565.767l-6.26 41.305h29.078l2.02-14.593c-.142.254-.243.59-.195 1.227-.71.288-.896-.473-1.356-.686.033-1.516.862-1.425 1.667-1.38l1.403-10.134-.018-.105c.043-.305.082-.495.116-.616l.277-2.005-.056-.112.056.112 1.535-11.09c-.125.185-.163.126.078-.56l6.92-50.006c-.037.012-.075.026-.11.047.004-.27.074-.403.17-.482l.503-3.628c-.03-.06-.045-.09 0 0l2.07-14.958c-.01-.022-.018-.033-.032-.063-.072-.146-.015-.03.03.062l4.402-31.8 14.906 100.643c.053-.534.42-.438.67-.578-.01.643-.392.54-.656.67l1.66 11.216c.076-.527.196-1.117.35-2.317.667 1.32.168 3.207.048 4.995l3.87 26.14h30.464l-5.01-30.585c-.367.582-1.41-.196-1.905.13zm-60.7-168.09c.223.45-.14-.286 0 0zM14.56 170.2c-.144-.288.22.446 0 0zm-1.36 14.344c.012-.663.417-.526.68-.676-.01.663-.414.527-.68.676zm-.676 6.838c-.14-.29.222.446 0 0zm.34 3.413c-.057.804-.62.576-1.02.685.056-.796.62-.573 1.02-.685zm-2.036 13.668c.883-.408 1.22.273 1.018 2.053-.315-.733-1.25-.216-1.018-2.053zm-.34-7.515c-.008.664-.414.53-.677.68.01-.662.415-.527.68-.68zm-.338 10.246c.222.45-.142-.284 0 0zm-3.73 22.55c-.41.07-.21-.993 0 0zm0-8.885c.01-.663.415-.53.68-.68-.01.664-.416.527-.68.68zm1.356-5.464c.01-.67.416-.53.68-.685-.01.668-.417.53-.68.686zm.34-6.83c-.108-1.21 1.9-1.225 1.356.676-.61.09-.715-.83-1.357-.677zm1.017 15.03c.392-2.704.392 2.696 0 0zm0-6.832c-.143-.29.222.446 0 0zm1.356 4.782c-.142-.292.22.446 0 0zm.678 0c-.697 3.27.732-3.444 0 0zm-1.356-5.47c1.173-.536 1.432.76 2.034 1.374-.186 1.192-2.737 1.478-2.034-1.373zm.677-2.73c-.398-.112-.287-1.245-.34-2.05-.273.36-.55.716-1.018.684.076-2.13 1.688-1.156 2.713-1.37.358 2.545-1.143 1.34-1.356 2.735zm1.016-5.465c.495-2.267.844 2.667 0 0zm2.374-10.252h-1.694c.126-1.827 1.802-3.2 1.694 0zm-1.356 29.384c-.035-.828.494-.42 0 0zm1.017-11.616c.01-.67.416-.53.68-.685-.01.668-.415.53-.68.686zm.34-4.786c.223.452-.142-.286 0 0zm-.34-4.782c.01-.664.416-.532.68-.684-.01.67-.415.535-.68.684zm-.34-5.464c-.913-.61.16-2.777 1.02-2.053.526 2.432-1.152.418-1.02 2.054zm2.036 15.713c.01-.664.416-.532.678-.682-.008.665-.414.53-.678.682zm83.758-7.512c-.01.664-.416.53-.678.677.008-.66.414-.527.678-.677zm-.678 9.562c.22.45-.142-.283 0 0zm-.68-15.715c-.032-.826.495-.418 0 0 .036.826-.49.42 0 0zm.34 1.366c-.01.666-.415.53-.677.685.007-.664.413-.53.677-.685zm-1.017 8.883c.222.452-.144-.283 0 0zm-2.374-12.98c-.21-1.86 1.533-3.2.678-4.1 1.012-.375 1.16 2.615 1.695 5.464-.962-.11-1.414-1.252-2.374-1.363zm1.018 18.447c.787 1.026.518 1.673.338 3.42-.445-.242-.533-1.205-1.018-1.367.22-.697.78-.71.68-2.053zm-1.018-23.23c-.143-.288.223.448 0 0zm1.018-1.368c.22.45-.143-.287 0 0zm.677-6.833c.394-2.7.394 2.7 0 0zm-1.694 2.048c.223.454-.143-.284 0 0zm-1.02-2.73c-.14-.286.224.447 0 0zm3.053 4.78c-.783 2.524-2.526.27-4.07 2.048.35-2.293-1.054-1.06-1.694-1.363.566-2.795 2.845-.074 5.763-.685zm-3.39 13.668c.034.826-.494.42 0 0-.036-.83.493-.42 0 0zm-2.713-3.42c.22.452-.144-.285 0 0zm-1.697-8.2c.01-.658.416-.524.678-.68-.008.667-.414.528-.678.68zm0 15.038c-.14-.29.223.447 0 0zm-1.017-17.767c1.037-.494 1.236.7 2.036.682-.007 1.045-2.516 1.503-2.037-.682zm0 8.88c.414.076.805.208.68 1.37h-.68v-1.37c-.41.074-.208-.988 0 0zm-2.373-23.91c-.02.413-.05.806-.34.68-.037.836-.1 1.62-.678 1.37v-1.37h.678c.02-.413.052-.81.34-.68.617-1.774-.146-2.065.34-4.103.562.69.367 2.904.678 4.103H85.43zm.678 32.11c.222.45-.142-.283 0 0zm-1.696 0c.057-.792.536-.74 1.018-.678-.392-4.38 1.035-1.503 0 0 .06 2.618-.278.24-1.018.68zm.34-15.03c.055-.8.618-.574 1.018-.684-.055.803-.62.575-1.018.684zm-.34-17.765c.01-.664.415-.53.678-.687-.008.67-.414.534-.678.688zm1.018-5.465c.18-.553.354-1.11.34-2.05.328.018.264.836.34 1.365.246.637.615 1.034 1.016 1.37-.31 1.857-1.188-.698-1.696-.685zm1.356 19.133c-.14-.287.222.446 0 0zm1.017 4.098c-.307 2.286-.758.596-1.355 0 .222-2.05.724.656 1.355 0zm-.338-8.88c-.143-.29.222.444 0 0zm0-1.37c.222.447-.143-.287 0 0zm2.033-10.247c-.142-.29.224.446 0 0zm.34 31.43c.223.446-.143-.286 0 0zm.68 1.366c-.01.664-.416.532-.68.682.01-.665.415-.53.68-.682zm-3.053-70.378c-.01.66-.415.53-.68.682.01-.662.416-.53.68-.682zm-.34 20.5c-.01.66-.414.525-.678.683.01-.67.415-.533.678-.684zm.34 6.146c-.41.07-.21-.99 0 0 .627-.105.21-2.312.678-2.733.54 3.854.855 3.994 2.035 6.15-.834-.362-2.27-.02-3.73-.684.1-1.388.68-1.82 1.017-2.732zm-1.695.683c.22.45-.143-.283 0 0zm-.34-3.416c.222.45-.14-.28 0 0zm-.34-20.496c-.142-.285.222.45 0 0zm1.018 25.964c-.548 1.084-1.075.266-1.696 0 .088-1.597 1.49-.394 1.696 0zm-1.696 5.47c.02-.417.05-.81.34-.686-.034-.826.492-.42 0 0-.02.418-.05.81-.34.685-.057.793-.535.74-1.018.685.06.795.537.737 1.018.682-.04 1.938-1.445 1.312-1.355-.682h.338v-.685c-1.334-.195.062-3.01 0 0h1.017zm-.678 22.545c.495-2.266.844 2.664 0 0zm0 16.4c-.142-.29.223.447 0 0zm-1.016-32.117c.886-.186 1.697-.23 1.355 2.055-.647-.292-1.46-.252-1.355-2.055zm.677-66.277c-.143-.29.222.446 0 0zm0 1.368c-.143-.287.222.445 0 0zm-.338 4.1c.843-2.667.494 2.263 0 0zm.338 4.78c-.41.07-.208-.99 0 0 .41-.072.21.993 0 0zm.34 1.368c-.01.662-.417.53-.68.685.01-.665.416-.536.68-.685zm-1.017 17.08c.39-2.7.39 2.7 0 0zm0-3.415c.22.45-.142-.287 0 0zm0 5.468c-.687 5.99.223-1.964 0 0zm-.34-25.965c-.01.667-.415.53-.68.684.01-.67.417-.533.68-.684zm0 7.516c-.143-.29.222.446 0 0zm-1.357-6.832c.395-2.702.395 2.7 0 0zm0 46.46c-.01.666-.414.534-.677.684.01-.664.417-.53.678-.685zm-.338 26.652c1.016.14-.325 2.833 0 0-.41.07-.208-.996 0 0zm-.677-66.964c-.056.8-.618.578-1.018.685.054-.805.618-.58 1.018-.685zm-1.018 58.766c.393-2.704.393 2.696 0 0zm0-1.37c.222.447-.142-.288 0 0zm.34 5.465c-.01.664-.417.53-.68.685.01-.665.415-.533.68-.685zm-.68 1.366h.68v2.736c-.347-.446-.353-1.57-1.02-1.37.066-.556.34-.677.34-1.367zm-.338-4.1c-.144-.29.22.447 0 0zm-.68-66.96c.74-.127 1.08.558 1.02 2.045-.32-.728-1.254-.21-1.02-2.045zm-.338-25.966c-.144-.29.222.446 0 0zm0 14.35c-.056.8-.618.575-1.02.683.057-.804.622-.578 1.02-.683zm-.34 111.375c.055-.802.618-.576 1.018-.686-.056.802-.618.576-1.018.685zm-.18 7.953c.007-.06.055-.545.18-1.804.173-1.74-.16 1.63-.18 1.803zm.18-16.155c-.14-.286.224.446 0 0zm.34-90.874c-.01.662-.415.527-.68.68.01-.665.416-.528.68-.68zm-1.02 14.346c.395-2.698.395 2.704 0 0zm.68 47.15c-.01.663-.415.528-.68.683.01-.663.417-.534.68-.684zm-.34 39.627c.224.45-.14-.286 0 0zm-.676-101.123c-.084.738-.675.46-.68 1.36-.328-.016-.262-.832-.338-1.36.445-.82.533-.266 1.018 0zm-1.018-57.397c-.143-.29.223.445 0 0zm.338 79.258c-.033-.822.494-.417 0 0-.068 2.05-1.407-.65 0 0zm0 37.583c-.142-.288.223.45 0 0zm-.678-110.69c-.033-.834.494-.425 0 0 .37 3.19-1.588-.75 0 0zm-.678 2.73c.223.448-.142-.288 0 0zm.34 32.112c-.15.99-.298-.068-.678 0 .083-.86.673-.685.678 0zm0 28.017c-.142-.288.223.446 0 0zM73.223 73.17c.22.446-.143-.286 0 0zm0 70.38c.844.277.02 2.65-.68 2.05.035.825-.492.42 0 0 .082-.974.56-1.152.68-2.05zM72.205 178.4c-.3 2.05-2.14 2.715-2.374 0h2.375zm-2.374-17.08c-.14-.29.223.444 0 0zm.68 8.882c.547-.197.584.644 1.018.682.133 1.326-1.546.996-1.018-.682zm0-86.782c.22.45-.143-.286 0 0zm.678 62.865c-.41.07-.21-.993 0 0 .658-.273.496 3.114-.34 2.05.02-.87.435-.945.34-2.05zm0-63.546c-.143-.29.222.446 0 0zm0 57.396c.392-2.702.392 2.7 0 0zm0 3.418c1.137-1.653-.82 2.292 0 0zm.34-45.78c.392-2.7.392 2.7 0 0zm0 9.567c.392-2.7.392 2.696 0 0zm-.027-6.888c.006.01.013.022.027.052.164.33.01.02-.026-.053zm.027 37.635c-.142-.29.223.446 0 0zm-.678 16.398c.392-2.7.392 2.697 0 0zm0 4.1c-.144-.29.22.446 0 0zm1.016 16.397c.222.452-.14-.28 0 0zm-.34-80.626v.682c.41-.07.21.993 0 0-.187.002-.383-.553 0-.682.14-.86.438-1.4 1.018-1.37-.14.863-.437 1.398-1.017 1.37zm0-17.082c-.14-.288.224.447 0 0zm.68-.686c-.144-.286.222.446 0 0zm.338 38.268c-.142-.287.222.445 0 0zm.34 26.647c.22.45-.143-.285 0 0zm-.34-97.027c-.01.665-.415.53-.678.684.01-.668.415-.53.678-.684zm.34 1.364c-.056.802-.618.574-1.018.687.054-.8.618-.577 1.018-.687zm-.34 4.785c-1.028 2.528-1.143-2.075 0 0zm-.34 3.413c-.288-.12-.318.268-.338.686-.397-.11-.286-1.245-.34-2.05.578-.253.64.533.68 1.365zm.34 3.42c-.744 2.088-2.172-.787 0 0zm.34 11.615c-.01.664-.415.532-.68.684.01.667.416.534.68.683-1.01 1.755-1.887-.47-3.053.682.11 1.608.537 2.566.34 4.785-1.438-1.78-.894-6.034-3.39-4.103.015-2.474 2.407-.156 2.035-3.416.922 2.54 2.42.496 4.07.684zm-6.105 91.564c.493-2.27.844 2.666 0 0zm0-118.896c.222.447-.143-.285 0 0zm.34-2.73c1.933-2.46 1.487 1.725 0 0zm1.015-17.083c.394-2.698.394 2.702 0 0zm0 46.46c-.14-.286.223.447 0 0zm-1.016-32.11c.222.45-.143-.287 0 0zm1.695-4.103c.222.447-.143-.286 0 0zm0-6.833c.222.45-.143-.284 0 0zm2.034 27.33c.22.447-.144-.28 0 0zm-.68-17.767c.394-2.697.394 2.703 0 0zm0-1.366v.003c-.033-.07-.056-.115 0-.003zm.68 12.3c-.056.802-.62.574-1.02.687.055-.8.62-.577 1.02-.687zm-1.02-21.18c-.14-.286.223.446 0 0zm0 6.833c-.14-.29.223.446 0 0zm-.338 13.667c-.142-.292.222.443 0 0zm-.34-23.232c.394-2.698.394 2.702 0 0zm.68 37.577h-.68v-1.36c-.41.066-.207-.997 0 0 .414.072.804.195.68 1.36zm-1.017-39.63c.41-.065.207.997 0 0-1.8.743-.403-2.076 0 0zm-1.358-10.93c-.142-.287.223.446 0 0zm-.338-1.365c-.143-.29.222.445 0 0zm0 12.98c-.143-.286.222.444 0 0zm0 10.933c-.01.664-.417.53-.68.683.01-.667.414-.53.68-.683zm-.68 51.928c.222.45-.142-.286 0 0zm0 22.548c.41-.07.21.996 0 0-.41.072-.21-.988 0 0zm-.338-74.476c-.01.664-.415.53-.68.683.01-.667.416-.53.68-.683zm-1.018-11.617c.223.448-.143-.284 0 0zm-.34 18.45c.676-.01.432-1.864 1.357-1.37-.36 1.552-1.028 2.488-2.034 2.737-.055-.796.075-1.218.34-1.37-.148-.838-.434-1.4-1.018-1.368.076-.98 1.012-.23 1.018-1.366.986.596.38 1.025.34 2.736zm-.338-19.13c.393-2.7.393 2.697 0 0zm-.68 15.71c.01-.663.417-.53.68-.68-.01.66-.416.53-.68.68zm0-24.593c-.03 1.07.048 2.368-.677 2.046.163-.805.362-1.547.677-2.046-.034-.83.494-.422 0 0zm-.677 35.527c-.143-.286.222.447 0 0zm0 6.832c.222.447-.143-.28 0 0zm0-12.3c-.143-.286.222.45 0 0zM61.353 5.526c.115.762 1.8 2.22.34 2.052.062 1.01.818.625 1.355.682-.42.978-1.166 1.29-2.036 1.37-.243-2.094.347-2.497.34-4.105-.41.064-.208-.996 0 0zm0 77.893c.222.45-.142-.286 0 0zm0-17.08c-.142-.284.222.443 0 0zm.34 19.128c-.01.667-.416.532-.68.687.01-.664.416-.532.68-.687zm-.68-40.31c.084-1.203.585-1.556 1.357-1.366-.08 1.202-.582 1.554-1.356 1.367zm0-28.696c-.14-.29.222.442 0 0zm0-4.788c-.14-.284.222.448 0 0zm0 8.2c-.14-.283.222.45 0 0zm0 13.665h.68v1.366h-.68v-1.366zm.34 8.2c1.138-1.65-.82 2.294 0 0zM62.37 15.09c.223.447-.14-.285 0 0zm0-4.097c-.14-.29.223.442 0 0zm0 26.643c.846-2.66.495 2.265 0 0zm-2.033-25.28c.222.45-.142-.285 0 0zm-.34 25.966c1.54-2.283 2.235 1.692 0 0zm-.677-6.832c.494-2.263.844 2.667 0 0zm0-8.88c-.142-.29.22.44 0 0zm0-17.085c1.252 2.072-1.03 2.3 0 0zm-1.018 8.197c.222.45-.142-.284 0 0zm-1.017-2.05c.223.448-.142-.284 0 0zm-.678-4.095c-.01.664-.416.53-.68.682.01-.663.417-.53.68-.683zm-1.357 13.66c.223.45-.143-.285 0 0zm1.357 2.737c-.03 1.076-.865.534-.68 2.048-.393-.57-.908-.902-1.695-.683v1.37c-.925-.064-.682 1.133-1.355 0v-1.37c.674-1.14.43.063 1.355 0 .048-1.955 1.414-1.25 2.375-1.366zm-1.357 8.198c-.497 2.588-1.924-.29 0 0zm-.34 36.898c.393-2.7.393 2.702 0 0zm.34-33.483c.223.452-.143-.285 0 0zm1.018.687c-.148.838-.435 1.398-1.018 1.362-.158-1.454.484-1.3 1.018-1.362zm0-3.416c-.143-.29.22.444 0 0zm-.34 8.88c-.142-.285.223.447 0 0zm.68 7.516c-.01.666-.417.532-.68.686.01-.667.416-.533.68-.686zM54.57 6.208c-.01.663-.415.53-.678.682.01-.662.415-.533.678-.682zm-.677-2.733c-.143-.288.22.446 0 0zm-.34 13.664c-.143-.288.222.445 0 0zm1.017 2.733v.686c.41-.073.208.99 0 0-.46.213-.647.972-1.356.678-.053-1.908.958-2.23 1.356-1.365zM52.2 17.14h.337c.068-2.046 1.41.652 0 0 0 .38-.273.776-.338 0-1.41.652-.07-2.046 0 0zm0 16.397c.036-.83.1-1.614.677-1.365v1.365H52.2c.032.826-.495.423 0 0zm0-2.733c.22.452-.143-.283 0 0zm.337-11.61c-.035-.83.493-.424 0 0 .035.823-.492.415 0 0zm-.678 8.88l-.027-.054c.037.074.19.383.026.053zm-.34-22.55c-.142-.29.222.448 0 0zm0 27.334c-.01.663-.414.525-.678.68.01-.665.414-.53.678-.68zm-.338-4.785c.22.45-.143-.288 0 0zm-.34-22.548c-.033-.827.492-.422 0 0 .035.825-.493.42 0 0zm0 4.103c.194-2.745-.285 4.04 0 0zm-.34-1.37c.223.45-.143-.285 0 0zm.34 8.202c.41-.07.21.99 0 0-1.407.65-.07-2.05 0 0zm-1.018 12.98c.222.445-.142-.285 0 0zm-.338 1.364c-.49.37-.828-2.663-1.02-.683-1.435-1.362 1.896-2.655 1.02.684zm-1.357-4.096c-.144-.287.222.447 0 0zm1.356.683c-1.064-.472-.442-1.824-.34-3.416 1.14.626.168 1.27.34 3.417zm0-8.88c-.142-.29.22.445 0 0zm0-10.933c-.01.664-.416.53-.68.682.01-.663.417-.53.68-.683zm-.678 11.616c-.143-.29.222.447 0 0zM47.11 4.843c-.14-.29.224.445 0 0zm.34 13.666c1.16-.516.432 2.774 1.696 2.048-.66.953-1.6 3.407-2.373 2.05-.058-2.82 1.516-1.283.678-4.1zm1.018 12.294c-.063.56-.34.686-.34 1.368.15 1.013.436-.27 1.02 0 .34 2.054-.757 1.21-1.358 1.365v-1.365h-1.016c.287-1.014 1.09-.988 1.694-1.368zm.678 4.1c.222.45-.142-.285 0 0zM46.096 4.84c.158.32.02.038-.022-.045l.022.045zm-.68 66.96c.223.45-.143-.287 0 0zm.06 8.32l-.06-.12.06.12zm-.4-50c.223.453-.14-.282 0 0zm-1.694 2.736c.295-1.99.508-.77 1.356-.686-.093 1.586-.905 1.572-1.356.686zm.34 56.71c-.144-.285.22.447 0 0zm-.34-54.665c.222.45-.143-.284 0 0zm0 10.934c.222.447-.143-.286 0 0zm0-19.815c-.76 6.497.413-3.55 0 0zm.34 4.1c.39-2.697.39 2.7 0 0zm.338-16.4c-.035-.82.493-.416 0 0 .034.83-.494.423 0 0zm0-8.88c-.142-.29.22.446 0 0zm.338-2.053c-.01.667-.415.53-.678.685.01-.668.415-.53.678-.686zm-.338 16.403c-.01.663-.415.526-.678.68.01-.665.415-.526.678-.68zM42.365 5.525c-.035-.827.492-.422 0 0 .034.825-.494.42 0 0zm.678 8.197c.342.01.426 1.196 0 1.368.104 1.58-.98.76-1.018 2.05 1.03.808-.368 3.624 0 0-.585-.82-2.305-.833-1.356-2.735.936.815 1.19 1.943 2.373.686v-1.368h-2.035c.566-1.234 1.633-1.69 2.035 0zm0 47.835c-.143-.29.223.445 0 0zm0-38.268c.195-2.74-.287 4.04 0 0zm-2.035 47.83c.01-.663.414-.527.68-.683-.01.665-.417.53-.68.682zm.34 66.965c-.143-.29.22.446 0 0zM40.33 36.953c.436-2.73.7.19 1.695 0-.087 1.602-1.49.397-1.695 0zm.06 17.888l-.06-.12.06.12zm.28-20.616c-.145-.29.22.442 0 0zm.677 15.716c.01-.667.416-.533.68-.686-.01.666-.416.533-.68.686zm.34 3.413c.22.452-.142-.283 0 0zm0 8.204c-.142-.29.22.445 0 0zm.678 12.296c-.01.667-.416.53-.68.683.01-.662.417-.53.68-.683zm0 64.914c-.01.664-.416.53-.68.685.01-.665.417-.53.68-.685zm-.34-26.648c.01-.665.415-.533.678-.686-.01.665-.414.533-.678.685zm.678-58.767c.223.452-.142-.283 0 0zM40.33 4.156c.345.444.35 1.57 1.017 1.37-.054.8-.618.576-1.017.682V4.156zm0 8.884c.223.45-.142-.284 0 0zm-.34 6.833h1.356c.343 2.058-.755 1.21-1.356 1.365v-1.365zm0 11.617c-.01.664-.415.53-.678.683.01-.667.417-.53.678-.683zm0 2.734c-.01.66-.415.528-.678.68.01-.664.417-.53.678-.68zm-.338-18.447c-.01.66-.416.526-.68.683.01-.668.417-.533.68-.683zm-.678 4.096c.22.448-.142-.284 0 0zm.678 34.162c-1.03 2.53-1.142-2.07 0 0zm.338 15.72c-.01.666-.415.533-.678.682.01-.663.417-.53.678-.683zM38.974 58.14c-.142-.29.22.445 0 0zm.05 54.083l-.05-.104c-.084-.17.007.014.05.103zm-.39-75.95c-.01.664-.415.528-.677.68.008-.66.414-.525.678-.68zm0 34.164c.223.45-.142-.287 0 0zm-.34-17.084c.224.452-.142-.283 0 0zm0 24.602c-.395-.112-.285-1.245-.337-2.05.908.532 1.352.222.338 2.05zm-.677-32.118c.164.33.01.02-.026-.053l.027.053zm-.68 6.832h-2.373c.303-2.05 2.14-2.71 2.374 0zm-1.693 6.15c.316.732 1.25.212 1.017 2.05-.88.41-1.22-.272-1.016-2.05zm.678 89.513c.222.45-.143-.286 0 0zm-1.018 5.465c.393-2.697.393 2.7 0 0zm0-9.563c-.14-.286.223.447 0 0zm-.678-6.15c.14-.86.438-1.4 1.02-1.37v-.68c-.41.065-.21-.996 0 0h.337c-.034-.83.494-.424 0 0-.02.415-.05.808-.338.68-.14.86-.44 1.4-1.02 1.37zm0 17.08c-.142-.288.223.45 0 0zm-.338-40.31c1.47.282-.358 3.964 0 0zm.676 15.712c-.14-.288.224.446 0 0zm.34-6.15c.223.45-.14-.286 0 0zm0-30.75c.223.45-.14-.284 0 0zm0 39.633c1.138-1.654-.82 2.295 0 0zm.34-43.73c.222.445-.142-.287 0 0zm0-2.05c.393-2.703.393 2.698 0 0zm0 3.418c-.142-.292.222.443 0 0zm.338-6.15c-1.03-.81.37-3.626 0 0 .41-.067.21.99 0 0zm0-7.516c-.143-.288.223.447 0 0zm0-4.102c-.143-.286.223.446 0 0zm.68-2.05c.22.45-.144-.287 0 0zM34.563 56.77c-.14-.286.224.446 0 0zM33.55 84.787h1.015c.3 2.195-1.116.935-1.016 2.734-1.018-.448.322-1.46 0-2.733zm-1.02 43.73c.494-2.265.845 2.666 0 0zm-.34-27.33c.224.448-.14-.287 0 0zm0 62.178c.037.824-.49.42 0 0-.368-3.197 1.59.745 0 0zm-.676-73.796c.392-2.7.392 2.696 0 0zm0 21.865c-.035-.83.492-.418 0 0 .062 2.618-.277.247-1.018.685.057-.8.535-.746 1.018-.685zm0 58.765c-.143-.288.22.446 0 0zm-1.018-72.43c-.15.99-.297-.07-.68 0 .086-.862.676-.692.68 0zm0 25.964c-.01.665-.415.53-.68.682.01-.66.417-.525.68-.682zm1.018 47.832c.287-.13.32.264.34.682-.06 1.48 1.202.31 1.695.685-.122 1.112-3.15 1.166-4.41.685.256-1.767 2.508.495 2.374-2.052zm4.068 1.367c-.744 2.086-2.172-.788 0 0zm.06 6.27l-.06-.12.06.12zm-1.078-.805v-1.37c.29.126.32-.267.34-.68.658-.27.496 3.115-.34 2.05zm-.338 2.05c1.03-2.526 1.142 2.074 0 0zm.678 4.096c-.745 2.09-2.172-.785 0 0zm-.678 2.053c-.142-.286.223.45 0 0zm.338 4.1h-1.016c.002.9.594.626.677 1.37.675-1.145.433.055 1.356 0-.104.776-1.606 2.606-1.355 0-.695.78-1.616-1.078-.677-1.37-.02-.877-.436-.945-.34-2.05-1.408.65-.068-2.045 0 0 .65.287 1.462.247 1.356 2.05zm-1.354-3.413c-.144-.29.222.444 0 0zm-1.02 4.098c-.14-.29.224.446 0 0zm.06-12.178c-.01-.022-.027-.058-.06-.12-.087-.18.02.04.06.12zm-.397 4.664c-.142-.29.222.444 0 0zm0 6.148c-.142-.287.222.446 0 0zm-.678-13.667c-.41.067-.21-.995 0 0 .41-.073.208.992 0 0zm-2.034-36.9c-.075-.152-.008-.017.04.077-.012-.02-.02-.04-.04-.076zm0-26.65c-.925.5-.683-1.355-1.356-1.365.106-1.447 1.607-.147 1.357 1.366zm-.68 47.834c-.14-.286.223.446 0 0zm-.677-55.347c-.01.664-.414.53-.68.68.012-.663.418-.53.68-.68zm-.68 55.347c.02-.418.053-.81.34-.687-.033-.826.494-.418 0 0v.687c.41-.07.21.99 0 0h-.34c.037.826-.49.418 0 0zm-.336 6.153c-.142-.29.22.443 0 0zM25.41 112.12l.32-.044-.89.12-.06.008-.183.024-.052.007c-.042.006-.05.006 0 0l.052-.007.182-.024.06-.008c.14-.02.325-.044.57-.077zm3.39 62.18c-1.643-.17-2.4.468-4.746-.683-.54-.657 4.72-2 4.747.682zm-2.372 11.613c-3.64 2.625-3.102-1.78 0 0zm-2.374-3.416c.392-2.702.392 2.698 0 0zm0-49.197c-.01.667-.416.53-.68.684.01-.667.417-.527.68-.684zm-.68 21.183c-.14-.288.223.447 0 0zm-.34 12.98c1.232.62.21 2.02.34 4.104-1.028.25-.702-2.23-1.017-3.42.395.113.604-.15.678-.683zm0 6.836c-.14-.288.224.444 0 0zm-.677-22.55c.223.448-.142-.287 0 0zm.678 24.6v.678c1.285 1.17-.735 1.128-.678 2.056-.447-.01-.31-1.198-.678-1.37.08-1.206.584-1.558 1.355-1.365zm.34 4.1c-.287 4.04.193-2.743 0 0zm-4.068 8.197c.008-.664.414-.532.678-.685-.01.665-.416.53-.678.685zm.338 9.565c-.14-.287.222.45 0 0zm-1.356-9.565c-.105-2.213 1.386-4.704 1.694-2.05H21c1.095-2.092 2.54.815 0 0-.004.896-.94.87-1.016 0-1.54-1.277-.46 2.715-1.695 2.05zm-1.02-10.935c.01-.664.415-.53.68-.685-.01.667-.415.535-.68.685zm.34 6.156c-.14-.29.222.444 0 0zm2.374-5.47c-.302-.53-.768-.737-1.357-.687-.107-1.204 1.9-1.217 1.357.688zm-1.017-2.05c.01-.666.416-.53.678-.68-.008.663-.416.526-.678.68zm.678 4.785c.05-.19.73-1.264 1.02-.684.23.47-1.34 1.88-1.02.683zm.34 2.735c-.692-1.2-.666.507-1.358-.688-.107-1.202 1.9-1.22 1.357.688zm-1.018-2.735c.41-.07.21.99 0 0-.467.028-.744-.324-1.018-.684.368-1.907 1.872-1.126 1.017.683zm-1.018 27.33c-.035-.83.492-.42 0 0 .033.826-.493.42 0 0zm.34-16.397c-.37-3.627 1.03-.808 0 0 .033.824-.495.418 0 0zm.677 3.413c-.01.663-.416.534-.678.684.008-.664.413-.53.677-.685zM21 173.616c-.14-.292.224.448 0 0zm0 6.146c.496-2.26.846 2.666 0 0zm.68-5.464c-.143-.288.222.444 0 0zm-.34-32.117c.222.446-.143-.286 0 0zm-1.695 21.867c-.14-.286.222.448 0 0zM21 166.787c.064.58-.13.64-.337.677.054.8.618.577 1.017.684-.253 1.544-1.902.267-2.713.685.475-1.09 1.17-1.75 2.034-2.046zm-1.693 4.78c-.143-.29.22.448 0 0zm1.356 2.05c-.147 1.522-1.672.27-2.374.682.5-2.03 1.31-.72 2.373-.683zm-2.714-11.62c.222.45-.143-.28 0 0zm0 9.57c-.143-.29.222.448 0 0zm-.68.68c.274.133.34.686.68.686v1.366c-.527-1.29-1.32.977-2.036-.683-.242-1.855 1.6.487 1.357-1.37zm-2.372.686h.678c.158 1.457-.484 1.3-1.018 1.366.065-.554.34-.68.34-1.367zm-.34 4.78c-.02-1.925 1.743-1.263 1.696.686-.816.278-.736-1.25-1.695-.688zm1.696 6.83c.222.452-.143-.282 0 0zm.68 26.65c.166-2.31 1.77-1.327 1.355 1.372h-1.02c-.075-.535-.008-1.35-.337-1.37.367 3.626-1.03.808 0 0zm-.34 6.152c.494-2.268.843 2.666 0 0zm.34 12.3c-.036-.828.492-.416 0 0zm.337-3.415c-.14-.29.223.444 0 0zm-.677-3.418c.384-.826.968-1.237.68-3.416-1.41.653-.07-2.048 0 0 .78.93 1.892 1.196 1.694 4.095-.9 1.833-1.612-.215-2.374-.678zm2.374 4.102c-.142-.29.222.446 0 0zm1.355-26.65c-.744 2.086-2.17-.79 0 0zm-.677 6.148c.195-2.742-.286 4.04 0 0zm.34-1.368c-.735.116-.155-2.42-.34-3.416.925-.494.682 1.358 1.355 1.365-.037 1.29-1.12.475-1.016 2.05zm1.355 12.3c.222.45-.143-.282 0 0zm0-10.932c.222.446-.143-.286 0 0zm0-6.147c.222.448-.143-.287 0 0zM21 188.647c.01-.664.416-.532.68-.685-.01.665-.416.53-.68.685zm.68 30.75c-.143-.29.222.444 0 0zm0-22.554c.01-.658.415-.524.678-.68-.008.667-.415.528-.678.68zm.677-6.827l.06.12-.06-.12zm.678-6.835c-.033-.827.494-.417 0 0 1.108 2.457-1.804.962 0 0zm-.338 23.917c.222.446-.142-.286 0 0zm.338 5.468c-.14-.29.223.447 0 0zm.68-17.77c.41-.066.208.994 0 0-.41.07-.21-.993 0 0zm0 12.302c.392-2.7.392 2.7 0 0zm.34 22.55c-.063-.582.13-.645.338-.686-.22-.696-.78-.706-.678-2.047.957-.57.878.96 1.695.682-.295 1-.508 2.163-1.356 2.05zm0-12.986c.22.452-.145-.283 0 0zm.676 4.79c.01-.67.417-.534.68-.687-.01.662-.416.53-.68.687zm.68 8.196c-.142-.287.222.446 0 0zm-.34-29.38c.035.827-.492.417 0 0 .57-2.416 1.06 2.228 0 0zm0-8.884c-.4-.788-1.198-.775-2.035-.685.085-.74.676-.46.68-1.368.062-.58-.133-.645-.34-.683-.062-.58.133-.646.34-.685h.678c-.408.897-.132 1.08 0 2.053.8-.21.63-2.374 1.695-2.053.055 1.933-1.02 1.593-1.018 3.42zm2.034 32.798c-.01.664-.413.527-.677.68.01-.663.415-.53.677-.68zm-.337-7.52c.22.452-.142-.283 0 0zm.337-32.116c.224.45-.14-.283 0 0zm-.337 43.733c-.142-.286.22.447 0 0zm0 1.37c.01-.665.414-.536.677-.686-.008.663-.415.534-.677.686zm1.016-33.483c-.142-.286.223.445 0 0zm.34 16.4c-.143-.288.222.448 0 0zm0-21.182c-.143-.29.222.446 0 0zm1.018 14.348c-.088-.18.02.04.06.12l-.06-.12zm-.68-5.465c1.03-2.525 1.144 2.075 0 0zm.34-21.182c-.64 1.437-.54 4.372-2.033 4.098-.527-2.424 1.15-.412 1.017-2.047-.006-.896-.94-.87-1.017 0-.923-2.476.44-2.54 1.356-2.734-.092-1.41-1.502-.165-1.356-2.05-.41.067-.208-.994 0 0 1.493-1.87 1.35 1.813 2.712 2.05v.684c.956-.806 1.438-.137 2.373.68.076 1.295-.382 1.508-.34 2.734-.933-.624-1.865-1.252-2.034-3.414h-.68zm2.714 8.2c-.143-.288.22.445 0 0zm-1.018 1.364c.393-2.7.393 2.697 0 0zm.06 2.17l-.06-.12.06.12zm-.74-2.17c.223.45-.14-.286 0 0zm.34-1.363c-.14-.29.223.444 0 0zm0 29.377c.01-.666.416-.53.68-.68-.01.66-.416.53-.68.68zm.34-2.05c.223.452-.142-.286 0 0zm-.34-14.345c.01-.667.416-.53.68-.685-.01.666-.416.53-.68.685zm0-5.47c.38-1.06 1.104-1.42 1.02-3.413.64.073.234 2.258 1.016 2.053v.68c.434-.036.47-.878 1.02-.68.04 1.222-.34 1.592-1.02 1.36v-.682h-.678c.1 2.79-.47-.116-1.357.682zm2.035 2.048c-.41.073-.208-.99 0 0 1.41-.65.07 2.05 0 0zm-.337 4.105c-.142-.29.222.447 0 0zm-.678 11.617c.136.272.052.104 0-.002v.002zm0 11.615c.288.127.32-.27.34-.69.416.306.695.878.677 2.057-.3-.42-.606-.826-.678 0-.33-.024-.263-.837-.34-1.367zm.34 2.734c.413-2.07 1.292.477 1.695.682-.51 2.258-.83-1.42-1.696-.682zm1.695-10.253c-1.028 2.53-1.144-2.07 0 0zm-.34-5.466c.393-2.696.393 2.7 0 0zm.34-2.05c-.41.07-.21-.994 0 0 .41-.068.208.997 0 0zm0-3.414c.222.447-.144-.286 0 0zm1.354 6.15c-.14-.29.224.447 0 0zm-1.354-8.887c.03-1.583 1.563-2.866-.34-2.73-.776-.53 1.057-1.434 1.694-1.365.098 1.19-1.083 3.664.34 3.413-.414.977-1.294 1.555-1.694.683zm1.354-7.514c.408.896.134 1.073 0 2.05-1.096.846-.26-2.213-1.354-1.366.01-.664.415-.53.678-.685.062-.58-.133-.645-.34-.686-.058-1.48 1.203-.307 1.696-.682.124 1.162-.264 1.29-.68 1.367zm1.018 8.884c-.143-.288.223.445 0 0zm1.356-19.82c-.744 2.09-2.17-.785 0 0zm-.338 15.72c-.142-.286.222.45 0 0zm0-8.198c-.008.66-.414.53-.678.68.01-.665.416-.528.678-.68zm-.34 6.146c.222.45-.142-.287 0 0zm.34 8.885c-.142-.286.222.446 0 0zm-.34-3.416c.012-.663.416-.53.68-.687-.01.67-.417.532-.68.688zm.678-6.15c.222.45-.14-.287 0 0zm0-25.282c.496-2.266.845 2.664 0 0zm.68 27.332l.06.12c-.01-.02-.03-.056-.06-.12zm1.694-7.514c-.744 2.083-2.17-.794 0 0zm-1.017-28.7c.223.448-.143-.284 0 0zm1.357 26.65c.222.446-.142-.287 0 0zm0-6.148c-.142-.29.222.444 0 0zm-1.695-21.19c-1.113-2.155-2.322-.693-4.07-.68.01-.662.416-.528.678-.68-.055-.8-.617-.575-1.016-.685.47-1.562 2.358-.256 3.39-.687-.108-1.604-.537-2.562-.34-4.78.33.02.263.837.34 1.364 1.2.826.843 4.797 3.05 2.736.12 2.747-2.662-.356-2.033 3.413zm2.033-14.345c-.14-.286.223.45 0 0zm.34-23.23c-.41.07-.21-.995 0 0 .41-.075.208.99 0 0zm-.678-64.233c-.158-1.457.484-1.3 1.017-1.368-.15.842-.436 1.402-1.018 1.368zm1.356 51.25l-.03-.06.03.06zm0 34.163h.68v1.368h-.68v-1.367zm.68 14.35c.416.298.695.878.678 2.046-.42-.295-.698-.87-.68-2.046zm.337-7.515c.71-.29.897.467 1.356.68-.34 1.422-1.497 1.875-1.355-.68zm1.357 10.932c.034.826-.493.424 0 0-.034-.826.493-.423 0 0zm.34-19.133c1.135-1.652-.822 2.29 0 0zm.338-18.45c-.708.29-.897-.47-1.356-.68-.108-1.207 1.9-1.225 1.356.68zm0-92.243c.49.154.118 2.04.68 2.05-.385 2.195-.97-.66-.68-2.05zm1.017 4.098c-.01.664-.415.532-.68.687.01-.665.417-.533.68-.688zm-.28 2.855c-.01-.022-.027-.057-.06-.12-.088-.18.02.04.06.12zm.28 3.296c1.167 1.764-1.744 1.65 0 0zm0 2.733c-.14-.288.222.446 0 0zm-.34 24.596c.224.45-.14-.287 0 0zm-.03-11.296l-.093.932.093-.932.032-.322c.012-.13.02-.227.03-.303-.017.15-.04.38-.063.626zm-.105 1.058l-.034.337.034-.336zm.814 63.538c-2.693.36 1.66-.223 0 0zm.378 10.325l-.038-.076c-.076-.153-.01-.017.038.077zm-.717 10.172c.01-.665.415-.525.68-.683-.01.664-.417.53-.68.682zm.68-4.785c.222.453-.144-.288 0 0zm0-59.444c-.144-.288.222.447 0 0zm0-19.813c-.144-.29.222.445 0 0zm.34-11.617h-.68v-1.37h.68v1.37zm0-2.734c.842-2.135.804 1.4 1.015 1.365-.58 2.59-.558-1.48-1.016-1.364zm.337 78.58c-.142-.29.222.446 0 0zm0-53.984c.055-.798.618-.575 1.018-.683-.056.802-.62.578-1.018.682zm1.355 0c.01-.666.415-.526.678-.683-.01.667-.415.532-.68.682zm-.34-23.913c.01-.664.415-.53.68-.684-.01.665-.416.53-.68.683zm3.392 21.864c-.04 2.528-.493 1.718-1.355 1.365.222-.916.724-1.272 1.355-1.366zm-.34-27.334c.394-2.695.394 2.705 0 0zm-.678 69.7c.222.445-.142-.286 0 0zm0-23.917c.065-.555.34-.68.34-1.368h.678c.158 1.46-.485 1.302-1.018 1.368zm1.696-10.93c-.142-.29.222.446 0 0zm0-24.604c.222.447-.142-.28 0 0zm-.678-15.717c-2.223-.22-3.03.61-4.746 0-.84.09-.578-.835 0-.68 2.82.22 5.38-.088 7.12-2.05.04 1.97 1.858.35 1.695 2.73-1.302-1.534-1.314.726-2.373 1.37-1.082.582-1.05-1.075-1.695-1.37zm3.39 1.37c-.14-.29.223.448 0 0zm-.337 17.08c.392-2.697.392 2.7 0 0zM51.86 45.157c-.143-.292.22.443 0 0zm.34 46.46c1.136-1.65-.82 2.293 0 0zm0-2.048c.032.826-.495.42 0 0 .066-2.046 1.406.65 0 0zm1.016 0c.222.445-.144-.287 0 0zm-.34-19.133c-1.08 1.82-1.147-1.748-.677-3.416.702.177.09 3.005.677 3.417 2.17-.79.744 2.087 0 0zm1.02 26.65c.22.446-.144-.288 0 0zm.336-6.15c-.14-.29.223.444 0 0zm-.677-2.734c.055-.8.618-.58 1.018-.682-.056.8-.62.577-1.018.683zm0-6.15v-1.367c.682-.23 1.06.138 1.018 1.367h-1.018zm1.356-5.467c.195-2.742-.285 4.042 0 0zm0-2.05c.223.45-.14-.284 0 0zm.34 6.15c.41-.07.21.992 0 0-1.016-.136.324-2.837 0 0zm0 7.517c-.016-.03-.022-.046-.027-.056l.035.07c.117.237.05.105 0 0l-.008-.014zm.34 1.366c1.137-1.653-.82 2.29 0 0zm.338-2.735c-1.456.237-.916-2.486-.678-4.098.48 1.03 1.256 2.945.678 4.098zm-1.356-15.033c1.884-3.333 3.524-.03 0 0zm2.035 15.033c.22.447-.143-.287 0 0zm.338-36.213c-.14-.29.223.446 0 0zm-.338-36.217c.008-.663.414-.526.678-.683-.01.667-.416.533-.678.683zM58.98 29.44v3.417c-2.464.68-2.238-2.65 0-3.418zm-1.017 8.882c.494-2.263.844 2.665 0 0zm-.678-2.048c.223.45-.142-.286 0 0zm.34 69.692c.22.45-.144-.284 0 0zm0-21.18c.392-2.702.392 2.7 0 0zm.338 5.466c-.142-.29.223.45 0 0zm.68-4.786c.22.45-.144-.286 0 0zm-.34-20.497c.843-2.664.494 2.267 0 0zm.677 19.135c-.142-.29.222.446 0 0zm0-2.052c.393-2.7.393 2.7 0 0zm.34-43.044c-.142-.292.22.445 0 0zm1.017 25.28c-.055.796-.62.573-1.017.68.054-.8.618-.577 1.017-.68zm-.68 26.648c-.14-.292.224.443 0 0zm.34 23.23c.223.446-.142-.288 0 0zm0-8.202c.223.45-.142-.284 0 0zm.34 5.47c-.142-.29.222.445 0 0zm-.34-24.6c.01-.665.416-.533.68-.683-.01.664-.416.53-.68.682zm.68 9.565c.22.452-.144-.285 0 0zm0-5.462c-.144-.292.22.443 0 0zm-1.02-6.833c.224-2.05.726.652 1.356 0-.05 1.698-1.146.2-1.355 0zm1.357 21.86c.052-.182.73-1.256 1.02-.678.233.468-1.34 1.882-1.02.68zm1.697-38.944c1.41-.652.07 2.045 0 0-1.407.653-.068-2.045 0 0zm2.035 8.885v2.05c-.48-.06-.96-.112-1.02.687-1.016-1.024.252-3.07 1.02-2.737zm-.34-6.835c.494-2.266.845 2.666 0 0zm-1.694 17.083c.845-2.666.495 2.264 0 0zm0 18.45c.708-.292.898.47 1.356.684.11 1.203-1.9 1.218-1.355-.684zm1.017 15.03c.01-.664.416-.527.68-.68-.01.662-.417.528-.68.68zm.68 37.585c.22.446-.143-.286 0 0zm.338 12.982c-.14-.288.222.446 0 0zm-.34-77.896c.01-.667.415-.532.68-.687-.01.666-.416.532-.68.687zm.68 68.33c.01-.667.414-.532.678-.687-.01.666-.417.534-.68.687zm0-76.53c.843-2.666.493 2.262 0 0zm.678-43.048c-.253 1.54-1.9.266-2.714.682.93-2.037 1.565-.446 2.713-2.047-.208.607-.41 1.222 0 1.366zm.34 135.97c.22.453-.144-.282 0 0zm0-5.46c.063-.555.34-.685.34-1.366h.677c.157 1.458-.485 1.3-1.018 1.366zm1.016 5.46c1.026-2.52 1.142 2.085 0 0zm.677-15.708c-.142-.29.223.444 0 0zm.338 17.08c-.14-.288.223.45 0 0zm-.338-23.915c.05-.188.73-1.262 1.02-.686.232.474-1.34 1.886-1.02.686zm.678 30.06c.222.452-.142-.282 0 0zm.34 1.37c.222.448-.143-.286 0 0zm.677 9.566c.222.446-.142-.285 0 0zm.678-9.567h-.678c.756-2.058.62-2.826 0-4.78 1.89.39 3.887-.31 3.052-3.42 1.082-.584 1.048 1.076 1.696 1.37-.14.856-.438 1.396-1.018 1.366.047 1.124 2.327 1.124 2.373 0-.41.067-.207-.994 0 0 1.27.533-.892 4.23.678 3.418-.188.98-.527 1.662-1.018 2.045-1.08.83.228 2.572-1.355 2.734v-2.05c-.746.496-1.127 3.208-2.034 1.365-.02.416-.05.812-.34.685.034.823-.493.418 0 0 .02-.418.052-.81.34-.685-.076-.532-.01-1.35-.34-1.366.034.832-.493.42 0 0v-2.053c.45.013.31 1.2.68 1.37 1.32-2.956-2.362-4.443-1.696.683-.207-.034-.402-.1-.34-.683zm5.766 17.768c.22.446-.143-.285 0 0zm-.34-2.732c-.143-.29.222.447 0 0zm-.678-.683c-.15.99-.3-.07-.678 0 .083-.86.674-.695.678 0zm-3.73 0c-.264.15-.394.572-.34 1.363-1.516-1.533.477-5.48-.678-6.148.305-1.437.528-3.036 1.018-4.098.38.142.53.758.68 1.363.412.078.802.205.677 1.368.828.68.724.226 2.034.682-.923 1.954-1.905.624-3.392.685.302 1.67.79 2.965.68 5.47-.264-.153-.67-.022-.68-.685zm2.035 6.832c.22.446-.143-.286 0 0zm-1.018-8.885c.562.694.368 2.904.68 4.1-1.227.65-.475-2.692-.68-4.1zm0 6.832c.223.45-.143-.286 0 0zm-.34 12.985c-.244-3.714-.777-6.942-.338-13.666.73-2.506-.127 3.82.678 3.414.096-2.688 1.494.13 0 0 .014.942-.16 1.503-.34 2.05 1.535 2.947 2.572-9.138 3.73-2.73H74.24c-.484 3.022 1.146 1.785 1.016 4.097-1.402-1.73-1.21 1.53-3.05.687-.48.13.536 5.043-.34 6.147.41-.07.208.99 0 0zm1.697 8.2c.393-2.702.393 2.7 0 0zm1.016 2.047c-.41.07-.208-.993 0 0zm.678-13.667v3.42h-1.693c.332-.926 1.143-.888 1.355-2.05-.05-1.264-1.148-.422-1.355-1.37 0 .375-.275.775-.34 0h-.34c.035.83-.493.42 0 0 0-.375.275-.772.34 0h.34v-1.368c1.28-.986.65 1.88 1.693 1.368-.033-.823.494-.415 0 0zm.34 12.304c.29-2.01.854.885 1.696 0-.268 2.398-1.187.788-1.696 0zm2.713 4.78c.22.45-.144-.287 0 0zm1.695-10.93c-.688 2.356-.448 3.023-.34 6.15-1.097.84-.26-2.217-1.356-1.368.03-1.077.864-.532.678-2.056-.14-1.16-.438.145-1.018 0-.076-.53-.01-1.346-.34-1.363.567-.644 1.188-2.526-.338-2.05 1.46-.938.638-3.373 1.695-4.098-.34-.91-.32-2.546-1.018-2.738 1.65-2.5.562-4.336 1.017-9.562 1.922 5.22-.65 15.25 1.018 17.084-.035-.826.49-.423 0 0zm-.34-17.77H78.65v-1.366c.68-.23 1.06.14 1.018 1.365zm-.678-4.096c-.142-.29.222.447 0 0zm1.018 10.93c.263.155.668.018.677.688-.262-.16-.668-.02-.677-.688zm.677 5.47c-.142-.287.222.445 0 0zm-.338 2.73c.05-.19.73-1.264 1.017-.684.235.475-1.337 1.884-1.016.685zm1.016-22.55c-.875.55-3.284 1.534-4.068 0-.41.07-.21-.99 0 0 1.26.262.886-2.767 2.374-2.044-.082.97-.56 1.147-.68 2.045 1.51 1.043 1.365-2.728 2.374-.686v.685c.41-.07.21.996 0 0zm-.678-11.61c-.053-1.39 2.126-3.543.34-4.105-.16-2.142.912-1.805 1.018-3.414-1.14-.627-.168-1.27-.34-3.417h.34c.275-2.362-.633-2.89 0-4.1.887-.19 1.46.253 1.355 2.05-1.325-1.08-.702 1.773-1.355 2.05v3.416c.584 2.4.448 7.78.34 9.563-.736.116-.154-2.426-.34-3.416-1.1-.845-.26 2.21-1.358 1.37zm1.357 12.975c.222.45-.144-.283 0 0zm0 3.422c-.507 5.093.24-2.43 0 0zm0-12.98c1.192 4.35-.83 4.132 0 0zm0 6.15c1.554.448-.273 4.13 0 0zm0 10.246h.338c-.034-.825.493-.417 0 0 .832.908-.61 2.063.34 2.732-.035-.826.492-.418 0 0v.685c.41-.07.208.993 0 0h-1.02c.286-.793.448-1.832.34-3.416zm.338 6.148c-1.3.125-.122-.56-.34-2.05.396.115.37 1.082.34 2.05 1.335.195-.064 3.01 0 0zm1.356 11.622c.41-.078.208.99 0 0zm-.34-6.153h-.337c-.535-2.298 1.408-2.98 1.355-2.055.135 1.645-1.545-.373-1.017 2.055zm1.358 4.78c.244-2.09-.348-2.49-.34-4.098 1.465-3.56.803 2.234.34 4.097zm0 4.782c-.042-1.71-.646-2.138.338-2.733-.157 1.308 1.047 2.942-.338 2.732zm.338-10.936c.01-.66.416-.524.68-.682-.01.67-.416.537-.68.682zm1.696 13.672c-.14-.29.222.443 0 0zM85.77 215.98c.513-2.475.67-2.135 1.695-4.1-.41.066-.21-.996 0 0 .46.213.647.97 1.355.685-.092 1.406-1.263.642-1.355 2.045.41-.07.21.996 0 0-1.046-.51-.414 2.358-1.695 1.37zm2.373 15.714c-.443-.008-.432-1.896 0-2.048v2.048zm0-3.417c-.41.07-.21-.993 0 0 .41-.07.208.994 0 0zm.338-6.827h-.678v-1.373c-.41.07-.208-.99 0 0 .415.078.805.208.68 1.373zm1.698 2.04v-.68c-.342-.007-.427-1.195 0-1.36.86-1.675-.715-1.462-.34-4.105-.61-.09-.793.68-.68 2.05-1.207-1.307-.352-2.898.34-4.784.654.28.03 3.13 1.357 2.052-.892.907-.85 2.646.678 2.05-.146 1.525-.6 2.438-1.355 2.74v1.36c.467-.03.744.324 1.018.68-.09 1.066-.745.475-1.018-.002zm2.713 8.204c-1.49 2.51-1.288-1.89 0 0zm-.677-2.048h-.68c-.02.413-.05.81-.338.68.324 2.84-1.016.14 0 0 .02-.416.05-.804.338-.68-.14-.862-.437-1.4-1.017-1.37 1.05-2.343 1.296-.02 2.713 0-.09.962-.745.78-1.017 1.37zm.338-5.466c-.056-1.485 1.204-.312 1.696-.69.057 1.49-1.203.313-1.695.69zm1.696-2.73c.01-.67.415-.534.678-.687-.008.662-.414.53-.678.687zm.678 6.146c.05-.19.73-1.262 1.018-.682.234.472-1.338 1.88-1.018.682zm.68 3.416c.842-2.666.494 2.26 0 0zm.337-2.05c.01-.666.417-.532.68-.685-.01.664-.415.53-.68.685zm.68-5.472c.223.454-.14-.28 0 0zm.34-3.413c.222.45-.144-.286 0 0zm.677.687c-.008.66-.414.53-.678.687.01-.67.415-.534.677-.686zm.34 7.513c.22.447-.143-.286 0 0zm0-2.047c-.265-.152-.395-.576-.34-1.37-.41.072-.207-.992 0 0h1.018c-.004.902-.594.625-.678 1.37zm1.017-6.153c.223.45-.142-.286 0 0zm.678-.68c-.143-.29.223.444 0 0zm2.035 2.73c.393-2.7.393 2.7 0 0zm0-4.098c-.143-.29.223.446 0 0zm0 8.2c-.303.3-.607.6-.68 1.365-.395-.116-.367-1.082-.338-2.05.398.107.962-.115 1.017.685zm-.68-9.57c-.14-.283.224.452 0 0zm-.338 6.83c.222.454-.143-.28 0 0zm-.678-10.248c.22.453-.144-.28 0 0zm.677 2.737c-.18.55-.355 1.108-.34 2.05h-1.696c.564-1.36-.03-.87 0-2.733.926 1.714.865 2.335 2.035.682zm-.958-6.03l-.06-.122.06.12z"/><path d="M34.904 38.322c.223.45-.14-.29 0 0zM34.904 35.587c.466-.567.434-1.28.293-2.094l-.314 2.074c.008.005.013.016.02.02zM22.02 122.365c-.077-.196-.143-.396-.204-.598l-.16 1.06c.163-.067.302-.185.363-.462zM33.21 47.206c-.144-.288.222.446 0 0zM22.3 118.57c.034-.083.058-.19.057-.3h-.012l-.045.3zM33.888 50.622c.22.446-.143-.29 0 0zM35.6 30.846c.242-.25.25-1.465.364-2.41l-.365 2.41zM34.564 49.254c.224.45-.14-.283 0 0zM33.888 48.57c.392 2.702.392-2.7 0 0zM35.582 32.172c-.045-.216-.09-.322-.127-.376l-.045.3c.037.052.09.09.172.076zM35.582 32.172c.21.995.41-.07 0 0z"/></g></svg>