<?xml version="1.0" encoding="utf-8"?>
<!-- Generator: Adobe Illustrator 15.1.0, SVG Export Plug-In . SVG Version: 6.00 Build 0)  -->
<!DOCTYPE svg PUBLIC "-//W3C//DTD SVG 1.1//EN" "http://www.w3.org/Graphics/SVG/1.1/DTD/svg11.dtd">
<svg version="1.1" id="Layer_1" xmlns="http://www.w3.org/2000/svg" xmlns:xlink="http://www.w3.org/1999/xlink" x="0px" y="0px"
	 width="512px" height="512px" viewBox="0 0 512 512" enable-background="new 0 0 512 512" xml:space="preserve">
<g>
	<g>
		<g>
			<g>
				<path fill-rule="evenodd" clip-rule="evenodd" fill="#FFF200" d="M113.693,300.268c-36.022-16.723-60.445-44.016-78.038-77.533
					c-3.438-11.646-9.733-21.256-13.852-32.276c5.978,2.787,9.113,5.971,14.253,12.354c5.997,8.693,9.814,20.174,12.214,24.599
					C67.596,262.992,102.882,289.19,113.693,300.268z"/>
				<path fill-rule="evenodd" clip-rule="evenodd" fill="#FFF200" d="M71.409,214.938c-6.965-11.68-12.454-27.354-14.327-40.988
					c-0.695-14.056-0.589-15.91,0.883-25.494c-2.73-6.882-4.335-12.829-8.605-19.274c-3.943-6.542-11.233-17.315-22.417-16.371
					c4.204,3.839,6.191,5.769,8.245,8.955c8.572,13.289,9.828,34.624,14.021,52.829c2.528,10.987,4.472,21.1,7.758,30.458
					c0.783,2.222,1.692,5.362,2.523,7.454c3.314,8.323,8.724,16.562,12.079,23.853c-7.62-8.655-14.27-20.088-21.895-29.821
					c-15.027-19.167-23.834-23.557-27.571-25.558c-3.145-1.686-9.707-4.672-13.55-2.554c2.972,1.381,24.347,9.156,38.785,37.479
					c9.142,22.609,42.527,57.947,42.527,57.947c14.396,14.132,30.071,27.108,39.716,45.577c3.157,2.26,13.173,7.388,20.031,7.67
					c-3.917-3.297-20.25-15.338-28.661-36.064c0.321,0.325,6.078,3.912,5.631,2.379c-9.65-13.928-14.469-28.62-17.558-48.535
					c2.466,2.362,3.577,3.848,7.732,6.611c-2.336-6.391-3.544-12.605-3.525-20.235c0.017-8.708,1.683-17.287,3.269-23.436
					c1.668,4.345,1.668,6.543,5.282,10.018c0,0-0.695-19.39,6.868-35.151c0.126,16.35,7.188,23.766,13.486,34.505
					c7.418,10.958,20.179,20.8,30.529,30.386c10.678,11.29,21.548,18.339,29.352,30.529c1.265-3.673,3.599-6.37,5.139-9.795
					c-11.501-14.391-25.406-26.695-40.183-38.339c-5.41-4.264-11.858-9.009-16.425-14.068c-13.857-15.331-16.589-40.675-9.745-63.47
					c-8.247,0-12.921,26.84-19.63,21.727c-13.546-9.961-23.927-31.982-16.352-53.25c1.183,5.026-0.188,12.38,2.336,16.188
					c1.392-0.463,1.285-5.427,1.392-7.875c0.128-3.06,0.646-6.597,1.982-11.259c3.124-10.884,8.036-19.905,13.166-27.414
					c25.242-37.005,50.809-48.319,61.848-53.964c19.808-10.127,39.882-13.156,43.578-14.087c2.645-0.665,6.44-1.434,7.476-3.402
					c-12.508-1.14-26.289,1.997-37.382,5.111c-15.958,4.468-36.404,17.107-40.656,20.022c-6.191,4.242-13.014,8.881-19.16,14.481
					c-4.952,4.515-25.069,23.858-34.579,43.453c-6.872,14.156-13.939,30.234-15.889,49.416c-3.081-16.812,2.536-31.728,6.541-44.727
					c-23.967,7.694-11.523,75.237-12.226,74.838c-4.271-2.397-7.917-22.809-9.65-36.929c-2.96,9.237-2.614,17.847-2.336,25.14
					c0.47,12.358,2.336,15.34,5.609,28.971c1.952,10.08,5.899,14.308,5.047,15.335c-1.526-1.5-7.54-4.826-12.615-11.936
					c0.653,5.356,6.903,19.272,6.903,19.272C73.724,218.91,71.409,214.938,71.409,214.938z"/>
			</g>
			<g>
				<path fill-rule="evenodd" clip-rule="evenodd" fill="#FFF200" d="M429.13,213.785c0.394,0.081,2.808-0.417,7.091-5.761
					c1.234-1.854,1.852-2.73,4.591-6.17c0.717,5.659-10.754,32.907-16.053,39.545c13.028-16.095,25.312-51.975,28.67-69.364
					c-1.256,2.83-8.221,23.243-14.789,24.064c0.647-2.336,5.581-15.2,6.305-17.959c3.424-13.073,4.209-16.62,6.78-25.275
					c4.204-11.224,9.358-23.151,14.094-29.399c2.455-3.171,9.251-9.781,17.045-9.368c-2.051,1.624-3.484,3.013-5.14,4.682
					c-5.609,5.705-7.582,14.946-9.344,23.858c-1.795,9.073-4.309,18.638-6.077,28.549c-1.213,6.844-5.019,20.093-6.915,27.262
					c-5.835,22.009-16.435,37.565-16.577,37.969c13.93-15.849,24.736-37.627,41.498-50.897c5.076-3.977,16.691-10.303,22.188-7.093
					c-6.299,2.836-12.844,3.836-25.929,17.747c-5.042,5.363-7.788,11.362-12.304,19.882c-14.647,30.951-47.241,59.115-72.986,86.335
					c-4.738,8.24-6.97,12.055-12.126,18.868c-3.96,1.467-9.562,3.267-15.051,5.059c10.842-10.077,21.113-26.122,23.018-31.224
					c-1.059-0.264-1.755-0.264-2.854-0.793c9.03-13.358,14.979-29.513,17.292-48.998c-0.013,0,0.045-0.05,0,0
					c-1.938,2.276-3.022,3.556-5.365,5.688c0.156-1.849,0-4.686,0.228-6.962c1.092-11.158,0.411-27.224-1.868-37.062
					c-1.004,3.63-2.407,7.67-4.209,8.093c-1.939-12.071-5.83-27.127-8.413-34.5c1.17,34.864-19.694,47.564-39.256,65.602
					c-20.624,17.325-34.631,29.973-51.935,46.292c-6.388,5.83-12.38,10.963-22.362,9.517c-2.837-4.237-5.956-8.201-7.476-13.631
					c16.3,3.761,24.386-4.688,33.644-11.504c12.131-10.389,23.346-21.598,35.981-31.53c12.084-10.078,29.684-24.131,35.982-32.796
					c10.464-14.396,9.581-40.827,3.273-60.07c1.724-0.327,2.946,0.836,5.75,4.359c4.992,6.716,5.438,12.705,11.539,16.518
					c16.874-6.196,25.627-30.325,19.16-52.4c-1.491,5.033,1.156,13.838-3.269,16.188c-0.233-4.598-0.479-7.9-0.957-12.195
					c-0.928-8.256-2.065-14.604-4.712-21.579c-7.854-20.708-28.507-42.515-51.702-57.931
					c-21.861-13.655-40.105-18.939-66.473-23.872c-1.882-0.358-3.644-0.862-5.142-2.006c2.271-1.417,5.493-1.437,7.482-1.275
					c15.799,1.306,31.084,6.11,44.17,10.939c24.926,9.795,40.708,22.087,47.354,28.11c30.066,27.267,38.422,49.318,43.933,64.474
					c3.266,10.369,4.828,17.752,5.756,30.671c4.176-11.041,0.522-23.583-3.361-34.08c-4.327-10.118-9.813-22.434-10.656-34.308
					c6.357,12.285,19.293,28.029,22.429,44.67c3.511,18.681,0.188,38.797-4.297,54.816c16.525-27.267,8.582-60.493,5.776-67.308
					c-4.179-10.153-9.861-17.033-14.951-26.415c-2.51-4.62-7.54-14.894-8.413-18.745c-2.479-10.975-0.25-15.473,3.976-21.724
					c1.923-2.853,7.184-6.975,10.813-7.245c-5.674,10.018-7.843,16.193-6.844,22.581c0.821,5.232,4.202,13.631,5.842,17.256
					c1.121,2.479,3.934,7.459,5.211,10.006c5.75,11.487,15.746,22.156,17.451,37.919c2.507,18.536-2.975,48.822-13.249,68.587
					c-0.964,1.762-0.682,2.284,3.751,0.921C435.433,204.676,429.177,214.302,429.13,213.785z"/>
				<path fill-rule="evenodd" clip-rule="evenodd" fill="#FFF200" d="M428.196,215.06
					C428.503,215.342,427.997,214.882,428.196,215.06L428.196,215.06z"/>
				<path fill-rule="evenodd" clip-rule="evenodd" fill="#FFF200" d="M427.259,216.339
					C427.565,216.615,427.062,216.164,427.259,216.339L427.259,216.339z"/>
				<path fill-rule="evenodd" clip-rule="evenodd" fill="#FFF200" d="M437.54,236.361
					C437.844,236.641,437.348,236.181,437.54,236.361L437.54,236.361z"/>
			</g>
			<g>
				<path fill-rule="evenodd" clip-rule="evenodd" fill="#FFF200" d="M87.06,41.677c3.575,2.063,5.961,4.233,9.128,8.064
					c12.501,16.359-6.144,48.875-17.076,68.189c-3.248,5.74-9.242,19.046-11.509,40.48c-1.292,12.178,1.628,24.278,4.969,39.184
					c-4.947-0.484-6.065-4.715-7.72-7.877c-2.25-4.304-3.653-12.525-4.121-17.778c-1.419-15.993-0.223-25.467,3.428-36.964
					c1.633-5.145,2.749-9.002,4.677-13.636c4.477-10.766,10.07-21.166,14.486-31.953C94.312,62.551,90.111,49.487,87.06,41.677z"/>
			</g>
			<g>
				<path fill-rule="evenodd" clip-rule="evenodd" fill="#FFF200" d="M370.412,72.98c10.047,8.102,22.322,28.39,24.067,42.609
					c2.336,19.037,1.662,30.22-0.36,51.5c-1.496,1.253-2.771,2.525-6.37,3.755c-0.83,0.29-3.003-2.227-3.997-3.879
					c4.715-24.63,2.492-53.774-5.097-74.601c-2.185-6.003-6.702-10.716-8.406-16.61C370.057,74.611,369.949,72.98,370.412,72.98z"/>
			</g>
			<g>
				<path fill-rule="evenodd" clip-rule="evenodd" fill="#FFF200" d="M137.06,82.573c-4.423,10.939-10.175,19.839-11.68,34.935
					c-1.206,12.085-0.84,26.08,0,37.484c0.434,5.89,1.011,20.468-4.679,15.331c-6.142-5.531-4.561-13.071-4.672-20.447
					c-0.218-14.92-0.46-22.521,1.683-35.905C120.673,95.416,136.464,82.996,137.06,82.573z"/>
			</g>
			<g>
				<path fill-rule="evenodd" clip-rule="evenodd" fill="#FFF200" d="M269.001,379.459h-14.994l5.486-33.612
					c3.516-10.082,3.081-14.115,1.804-20.021c-1.868-8.663-6.666-16.227-10.68-24.281c-1.524-3.06-7.901-20.031-3.371-30.229
					c3.375-7.594,15.243-16.729,13.437-25.819c0,0,3.532,7.827,4.605,6.775c1.676-1.899-9.748,14.892-7.732,31.091
					c2.896,12.214,11.734,22.196,13.239,25.423c3.588,7.665,5.596,15.665,5.057,22.578c-0.377,4.853-0.895,12.192-2.48,18.087
					L269.001,379.459z"/>
				<path fill-rule="evenodd" clip-rule="evenodd" fill="#FFF200" d="M309.965,351.812c2.087-1.394,1.657-6.4,4.141-7.884
					c1.398,2.343,2.562,5.187,4.273,7.031c6.527-5.07,14.6-9.289,22.896-13.211c2.535-1.189,15.134-6.421,18.689-7.665
					c3.442-1.211,32.361-10.158,41.592-15.336c36.033-20.235,54.84-46.221,60.278-52.824c-1.115,18.101-18.759,38.56-33.178,53.252
					c-9.06,7.99-18.873,16.294-32.544,22.472c-33.101,14.68-53.908,24.793-71.408,35.894c0,0-29.503,5.918-46.501,5.918
					c-2.267,0,1.204-22.434,7.245-25.529C291.489,350.822,301.268,357.607,309.965,351.812z"/>
				<path fill-rule="evenodd" clip-rule="evenodd" fill="#FFF200" d="M308.747,382.137c-53.066,52.509-43.53,87.783-45.98,89.806
					c-0.938,4.509,0.589,8.655-0.496,13.086c-0.527,2.119-5.453,10.267-6.979,10.348c-3.53,0.181-4.626-5.876-6.547-8.516
					c-1.916-2.651-4.266-2.794-5.607-5.115c-0.807-6.18,1.505-11.547-0.931-16.613c-1.847-3.834-6.578-36.886-42.059-80.93
					c0,0,30.355,3.056,58.285,2.716C285.699,386.581,308.747,382.137,308.747,382.137z"/>
				<path fill-rule="evenodd" clip-rule="evenodd" fill="#FFF200" d="M193.332,375.419c-12.456-10.22-26.552-16.24-35.243-19.772
					c-14.32-4.045-25.487-6.127-36.45-10.649c-3.131-1.292-24.131-11.505-36.449-33.658c-3.876-6.979-6.915-14.766-10.281-22.148
					c12.71,10.142,24.888,20.76,40.193,28.542c26.332,15.547,63.719,22.15,65.884,24.275c5.311,2.989,7.739,6.011,11.219,9.38
					c2.022-2.165,2.236-2.683,5.068-7.157c5.234,7.309,11.366,22.417,11.739,32.741L193.332,375.419z"/>
			</g>
			<g>
				<path fill-rule="evenodd" clip-rule="evenodd" fill="#FFF200" d="M487.628,190.924c-3.599,11.065-6.056,17.857-13.178,33.083
					c-17.833,33.587-41.567,60.288-78.259,76.681c16.912-12.494,39.191-36.212,46.73-44.73c8.1-9.227,11.877-14.281,17.045-22.581
					c6.227-9.978,8.997-18.495,15.2-29.109C480.159,197.051,487.316,190.924,487.628,190.924z"/>
			</g>
			<g>
				<path fill-rule="evenodd" clip-rule="evenodd" fill="#FFF200" d="M179.586,273.854c1.334,11.495,8.755,18.14,13.553,26.833
					c-5.054,1.711-12.062-1.843-14.319-4.677c-0.468,8.945,2.854,8.496,4.437,14.472c1.84,6.975,3,14.842,8.947,20.453
					c-4.701,0.449-6.823-0.437-10.75-2.124c0.639,4.805,1.724,6.188,5.296,10.326c-19.227-3.01-32.133-12.522-43.386-22.53
					c-7.832-8.013-10.714-11.265-13.313-18.05c3.283,3.774,5.158,5.41,7.271,7.281c5.213,4.629,9.605,6.635,16.563,10.188
					c-3.661-3.302-5.581-5.144-8.413-7.672c-8.427-8.902-26.816-30.057-29.527-52.151c5.493,7.518,10.908,13.577,14.106,16.369
					c-7.561-14.422-14.562-30.173-11.217-49.839c3.656,6.747,5.31,12.708,12.149,20.447c-1.647-6.248-2.018-8.857-2.801-13.638
					c-1.27-7.725-2.172-16.396-0.069-26.408c1.987,3.623,3.305,5.475,4.273,7.241c16.102,29.244,56.656,54.133,62.277,65.665
					c1.491,3.061,2.322,4.888,2.21,8.884C188.624,283.512,184.192,278.755,179.586,273.854z"/>
			</g>
			<g>
				<path fill-rule="evenodd" clip-rule="evenodd" fill="#FFF200" d="M87.525,364.589c-4.251,1.004-7.568-2.296-11.214-3.406
					c-4.093-1.239-6.184-1.8-9.816-3.834c-3.893-2.182-5.394-3.583-8.876-5.961c-14.317-9.802-24.442-24.696-28.039-33.233
					c-4.524-10.728-8.854-23.803-8.881-38.769c-0.012-8.798,1.289-16.437,0-24.28c-1.999-12.147-5.667-23.348-9.809-34.503
					c-1.042-2.811-3.214-5.177-4.209-8.095c-0.522-1.247-0.1-1.467,0.468-1.529c1.904,0,8.99,5.697,11.219,8.347
					c6.452,8.24,10.673,18.697,15.418,29.816c2.4,5.628,4.205,12.077,6.07,19.172c1.526,5.764,2.4,9.258,3.273,16.189
					c1.09,8.602,4.988,16.753,6.078,25.131c0.207,1.619-0.252,3.484,0,5.113C52.574,336.719,86.745,361.042,87.525,364.589z"/>
			</g>
			<g>
				<path fill-rule="evenodd" clip-rule="evenodd" fill="#FFF200" d="M502.496,211.23c3.902-1.488-9.886,17.676-13.085,48.991
					c-1.145,11.147,1.105,20.332,0,29.396c-2.975,24.283-15.563,44.901-31.311,58.359c-8.876,7.589-19.922,13.996-34.583,16.612
					c2.271-2.339,3.91-2.981,7.015-5.108c10.032-6.472,17.629-15.165,24.295-24.713c13.481-22.79,16.159-64.061,17.757-70.71
					c1.441-5.999,2.89-11.286,4.68-16.625C483.034,230.188,498.171,212.439,502.496,211.23z"/>
			</g>
			<g>
				<path fill-rule="evenodd" clip-rule="evenodd" fill="#FFF200" d="M380.061,246.585
					C380.067,246.585,380.053,246.571,380.061,246.585c4.921-4.829,8.189-11.501,10.746-18.742
					c0.812,2.132,0.855,8.138,0.869,10.365c0.1,16.698-9.408,32.026-11.15,35.646c6.068-3.893,8.929-8.738,14.025-15.343
					c-0.539,9.159-5.676,16.727-9.818,24.293c-7.022,11.594-27.598,30.925-27.568,30.671c9.975-3.122,14.243-8.313,23.361-15.343
					c-1.626,5.254-4.503,9.232-7.01,12.779c-6.505,9.232-29.812,21.448-30.75,21.873c-7.86,3.547-16.123,8.026-23.756,11.925
					c2.472-5.406-0.596-4.639,3.107-12.499c-6.26,3.119-15.041,9.845-23.834,10.654c0.287-2.153,2.027-2.975,2.801-4.68
					c-3.639-8.629,4.587-10.452,6.078-14.917c1.234-3.708-0.442-6.5,1.397-11.079c-2.721-0.159-6.407,4.605-10.276,3.408
					c-1.275-2.172,1.234-4.143,2.801-5.115c3.613-7.065,7.319-14.054,10.75-21.292c0.681-0.264-0.048-0.518,0,0
					c-5.577,4.14-10.068,9.279-17.758,11.497c3.195-8.729,9.437-11.929,16.756-20.442c26.48-24.995,42.13-36.532,49.69-44.167
					c10.125-10.229,19.402-21.584,22.275-26.272C385.889,221.837,382.641,236.216,380.061,246.585z"/>
				<path fill-rule="evenodd" clip-rule="evenodd" fill="#FFF200" d="M308.56,311.339
					C308.868,311.626,308.367,311.156,308.56,311.339L308.56,311.339z"/>
			</g>
			<g>
				<path fill-rule="evenodd" clip-rule="evenodd" fill="#FFF200" d="M221.156,249.831c2.968-4.026,4.58-4.176,8.313-4.881
					c-4.985,9.942-12.254,37.422-14.839,50.626c6.17-14.056,18.942-32.393,27.725-41.743c0.325,3.065,5.892-1.45,3.269,3.703
					c-1.878,3.689-11.948,16.983-12.765,20.15c-4.057,15.687-8.233,29.769-7.941,48.139c3.421-5.546,2.975-14.614,6.07-20.454
					c3.471,4.145,1.73,11.391,1.4,17.897c-0.373,7.3,0.997,9.595-1.291,14.483c9.163-3.671,5.158-10.301,10.174-17.038
					c5.228,7.376,5.168,9.491,4.924,17.727c-0.085,2.751,2.896,35.229-0.373,41.019c-8.864-0.624-18.747-0.624-28.291-1.241
					c-3.397-24.086-17.322-39.44-17.759-42.531C194.929,301.729,212.615,263.806,221.156,249.831z"/>
			</g>
			<g>
				<path fill-rule="evenodd" clip-rule="evenodd" fill="#FFF200" d="M107.113,366.144c-28.881-15.509-47.787-37.503-56.502-72.696
					c-2.348-9.461-3-19.844-4.207-31.523c-0.135-0.688,0.444-0.734,0.468-1.277c0.309,0,0.617,0,0.93,0
					c5.703,3.646,9.152,10.182,14.023,15.328c3.307,3.511,4.826,4.048,7.01,9.375c2.552,6.248,5.261,14.225,7.941,20.881
					c14.419,35.777,52.274,51.085,53.743,51.97c17.691,8.522,33.615,10.873,49.627,16.193
					C198.067,380.356,118.247,372.114,107.113,366.144z"/>
			</g>
			<g>
				<path fill-rule="evenodd" clip-rule="evenodd" fill="#FFF200" d="M461.375,275.975c0.396-1.84,1.794-2.766,1.397,0
					c-2.542,22.08-9.08,40.744-18.694,56.663c-10.749,17.819-22.279,25.428-43.699,34.017c-2.293,0.916-70.605,9.742-56.616,5.158
					c24.022-8.594,34.36-12.396,48.88-21.327c6.758-4.159,12.914-8.43,18.26-13.593
					C438.172,310.592,453.593,297.174,461.375,275.975z"/>
			</g>
			<g>
				<path fill-rule="evenodd" clip-rule="evenodd" fill="#FFF200" d="M416.609,399.645c2.885,0.39,0.607,7.011-5.98,11.238
					c-16.897,10.837-14.761,16.727-18.789,20.24c-8.57,7.48-12.446,1.775-29.28,4.672c-14.656,2.521-24.551,5.059-44.273,2.089
					c0.695-2.293,6.54-19.103,15.853-22.709c6.557-2.552,55.805-4.111,62.826-6.075
					C401.912,407.721,408.432,406.209,416.609,399.645z"/>
			</g>
			<g>
				<path fill-rule="evenodd" clip-rule="evenodd" fill="#FFF200" d="M347.353,397.969c-16.233,5.854-26.05,10.319-42.655,47.139
					c-1.505,3.343-4.344,12.646-5.282,23.74c-0.375,4.403-5.014,0.923-10.479,2.243c-9.671,2.333-14.022,8.204-21.641,13.07
					c-0.192-3.862,1.427-10.011,1.923-13.251c1.534-1.225,7.308-28.644,22.646-51.268c15.361-22.649,33.802-37.843,36.61-38.885
					c4.387-1.607,101.979-5.956,135.184-26.491c2.792-1.732-36.271,28.404-36.271,39.251c0,2.832-7.617-6.514-27.132-3.469
					C380.089,393.181,359.877,395.706,347.353,397.969z"/>
			</g>
		</g>
		<path fill-rule="evenodd" clip-rule="evenodd" fill="#FFF200" d="M184.294,384.202c17.271,16.521,40.872,48.661,51.334,81.892
			c0,2.701,1.512,8.994,1.512,11.703c-4.931-2.754-53.031-20.824-85.307-42.496c-27.737-1.035-54.567-17.868-72.635-33.347
			c-17.377-15.171-33.064-47.688-33.064-47.688s11.967,6.933,19.511,10.624C125.23,385.235,181.348,381.38,184.294,384.202z
			 M90.695,389.712c15.093,16.511,60.01,32.683,75.111,35.438c8.912,1.621,43.78,23.051,43.78,23.051s-20.003-40.428-29.062-46.109
			C172.598,402.092,138.251,404.678,90.695,389.712z"/>
	</g>
	<path fill-rule="evenodd" clip-rule="evenodd" fill="#FFF200" d="M261.411,257.61c0.539-15.455-5.754-23.424-6.084-22.467
		c-8.157,23.625-11.324,26.956-24.126,34.004c-1.603,0.886,11.005-13.816,9.344-19.732c-6.467,6.244-6.965,7.563-9.683,11.001
		c-1.562,1.966,1.018-7.487,8.157-22.467c-4.069,5.196-15.243,17.89-15.243,17.89l1.223-6.747
		c-8.57,7.418-15.179,8.093-15.179,8.093c10.854-4.611,18.707-25.691,20.321-30.164c1.616-4.463,0.963-7.131-4.383-8.77
		c-5.346-1.633-14.096-10.255-10.538-8.171c3.568,2.077,15.397,5.194,14.26,0.883c-1.14-4.316-5.194-9.515-12.162-14.125
		c-6.968-4.601-8.743,6.258-8.743,6.258s-5.04-26.322,9.705-19.343c14.747,6.977,22.756,12.675,37.323,3.737
		c0,0,5.99,2.526,10.531,7.87c4.539,5.348,5.619,10.666,17.28,12.736c11.668,2.077,25.432-0.161,25.432-0.161
		s-14.405,9.978-25.423,9.09c0,0-4.213,2.675-2.265,4.757c1.947,2.082,6.324,9.372,3.903,16.062c0,0-4.871-11.896-6.973-6.094
		c-2.101,5.804-5.118,16.708-7.058,22.061c-1.938,5.36,3.404,26.128,7.222,26.254C270.693,281.126,260.991,269.857,261.411,257.61z
		 M253.292,200.244c0,0-4.888-1.795-7.502-1.496c-2.604,0.29,0.988,2.393,2.614,4.188c1.633,1.794,3.276,0.838,5.218,0.603
		C259.521,202.812,257.207,202.034,253.292,200.244z"/>
</g>
</svg>
